#N canvas 1095 543 342 272 12;
#X obj 15 88 vline~;
#X obj 15 217 outlet~;
#X obj 15 16 inlet;
#X msg 15 46 1 \$1 \, 0 \$2 \$1;
#X text 93 134 exponentially curved env;
#X obj 15 133 pow~ \$1;
#X obj 138 16 inlet;
#X obj 67 16 inlet;
#X obj 15 188 *~ 1;
#X obj 193 15 inlet;
#X connect 0 0 5 0;
#X connect 2 0 3 0;
#X connect 3 0 0 0;
#X connect 5 0 8 0;
#X connect 6 0 5 1;
#X connect 7 0 0 0;
#X connect 8 0 1 0;
#X connect 9 0 8 1;
