#N canvas 137 100 795 806 12;
#X floatatom 67 108 8 0 0 0 - - - 0;
#X text 128 108 (MIDI);
#X obj 67 134 mtof;
#X floatatom 67 191 7 0 0 0 freq\ fm1 - - 0;
#X obj 67 54 sigmund~ -npts 2048 -stabletime 70 -growth 20 -vibrato 0.4 -minpower 20 notes, f 46;
#X listbox 140 310 20 0 0 1 \ +\ freq - - 0;
#X obj 66 317 f;
#X listbox 65 439 35 0 0 1 +\ clone\ id\ +\ dur - - 0;
#X obj 95 317 + 1;
#X obj 65 412 list;
#X obj 66 345 mod 4;
#X listbox 507 585 24 0 0 1 \ +\ freq - - 0;
#X obj 482 661 list;
#X listbox 482 688 34 0 0 1 \ +\ clone\ id - - 0;
#X obj 85 251 s \$1-freq;
#X obj 467 200 r \$2-freq;
#X floatatom 507 511 8 0 0 1 freq\ fm2 - - 0;
#X obj 389 246 r \$1-freq;
#X obj 507 353 -;
#X obj 507 379 abs;
#X obj 415 332 +;
#X obj 590 371 + 2;
#X obj 415 390 spigot;
#X obj 507 407 spigot;
#X obj 590 286 r \$1-addfreq;
#X obj 590 408 spigot;
#X floatatom 544 196 5 1 3 0 - - - 0;
#X obj 454 353 == 1;
#X obj 546 374 == 2;
#X floatatom 415 418 5 0 0 0 - - - 0;
#X obj 544 162 r \$1-selfm2;
#X floatatom 389 272 5 0 0 0 - - - 0;
#X floatatom 467 228 5 0 0 0 - - - 0;
#X floatatom 590 313 5 0 0 0 - - - 0;
#X obj 467 255 t b f;
#X floatatom 590 433 5 0 0 0 - - - 0;
#X floatatom 507 433 5 0 0 0 - - - 0;
#X obj 629 372 == 0;
#X obj 590 337 t b f;
#X obj 640 162 loadbang;
#X obj 174 347 s \$1-show-fm1;
#X obj 558 624 s \$1-show-fm2;
#X text 544 108 0 = + n Hz \; 1 = f1 + f2 \; 2 = abs (f1 - f2), f 18;
#X obj 651 406 r \$1-fm2;
#X obj 507 556 list;
#X obj 651 434 t b a;
#X obj 108 162 t b a;
#X obj 108 134 r \$1-fm1;
#X obj 66 279 t b a;
#X obj 140 283 list;
#X obj 67 23 r~ \$1-le;
#X obj 100 616 cnv 14 150 65 empty empty empty 25 12 0 12 #9f9f9f #404040 0;
#N canvas 1279 191 458 685 qlist-simulation 0;
#X obj 49 228 s \$1-addfreq;
#X floatatom 49 197 5 1 10 0 - - - 0;
#X msg 35 408 2 3 2 5;
#X obj 35 464 s \$1-fm2;
#X obj 47 130 s \$1-selfm2;
#X floatatom 46 101 5 1 3 0 - - - 0;
#X obj 39 350 s \$1-fm1;
#X text 42 27 test for qlist;
#X text 147 321 carPartial \, modPartial \, index \, lfo-freq;
#X text 154 435 carPartial \, modPartial \, index \, lfo-freq;
#X msg 39 294 1 2.02 3 5;
#X text 149 230 freq fm1 + n Hz;
#X obj 37 547 s \$1-synth-mix;
#X floatatom 37 521 5 0 1 0 - - - 0;
#X text 127 640 0 - 5000;
#X floatatom 35 610 5 0 5000 0 - - - 0;
#X msg 36 495 0;
#X obj 183 48 r init;
#X obj 35 641 s \$1-noise-q;
#X msg 35 586 500;
#X msg 50 171 1;
#X msg 58 321 1 2.42 3 7;
#X msg 74 434 1 2.4 2 6;
#X msg 57 265 1 1.02 1.5 4;
#X msg 52 379 0.99 1.01 2 5;
#X connect 1 0 0 0;
#X connect 2 0 3 0;
#X connect 5 0 4 0;
#X connect 10 0 6 0;
#X connect 13 0 12 0;
#X connect 15 0 18 0;
#X connect 16 0 13 0;
#X connect 17 0 5 0;
#X connect 17 0 20 0;
#X connect 17 0 16 0;
#X connect 17 0 19 0;
#X connect 17 0 21 0;
#X connect 17 0 22 0;
#X connect 19 0 15 0;
#X connect 20 0 1 0;
#X connect 21 0 6 0;
#X connect 22 0 3 0;
#X connect 23 0 6 0;
#X connect 24 0 3 0;
#X restore 545 66 pd qlist-simulation;
#X obj 100 600 cnv 15 150 15 empty empty fm\\\ synth\\\ \$1 30 8 0 11 #404040 #ffffff 0;
#X listbox 102 630 24 0 0 2 \$3-fm1 \$1-show-fm1 dummy 10;
#X listbox 102 660 24 0 0 2 \$3-fm2 \$1-show-fm2 dummy 10;
#X obj 84 467 tgl 19 0 empty empty empty 0 -10 0 12 #fcfcfc #000000 #000000 0 1;
#X obj 66 550 *~ 0.05;
#X obj 482 743 *~ 0.05;
#X obj 66 577 throw~ \$1-chan;
#X obj 482 770 throw~ \$1-chan;
#X obj 65 524 clone -s 0 fm-env~ 4 \$1;
#X obj 482 715 clone -s 0 fm-env~ 4 \$1;
#X floatatom 266 155 8 0 0 0 - - - 0;
#X obj 266 129 r \$1-dur;
#X obj 129 348 list;
#X obj 265 265 t f f;
#X obj 507 625 list;
#X obj 654 517 tgl 19 0 empty empty empty 0 -10 0 12 #fcfcfc #000000 #000000 0 1;
#X msg 654 543 vis 1 \$1;
#X msg 84 493 vis 1 \$1;
#X obj 404 660 tgl 19 0 empty empty empty 0 -10 0 12 #fcfcfc #000000 #000000 0 1;
#X msg 404 686 vis 1 \$1;
#X obj 162 197 r init;
#X msg 162 221 -1;
#X obj 266 232 * 0.1;
#X obj 338 130 r \$1-dur-mult;
#X text 210 102 duration from qlist, f 23;
#X text 359 96 part of the duration length of the env, f 21;
#X floatatom 338 156 10 0 0 0 - - - 0;
#X floatatom 265 289 8 0 0 0 - - - 0;
#X obj 338 179 t b f;
#X connect 0 0 2 0;
#X connect 2 0 3 0;
#X connect 3 0 14 0;
#X connect 3 0 48 0;
#X connect 4 0 0 0;
#X connect 5 0 40 0;
#X connect 5 0 65 0;
#X connect 6 0 10 0;
#X connect 7 0 61 0;
#X connect 8 0 6 1;
#X connect 9 0 7 0;
#X connect 10 0 8 0;
#X connect 10 0 9 0;
#X connect 10 0 12 0;
#X connect 11 0 41 0;
#X connect 11 0 67 0;
#X connect 12 0 13 0;
#X connect 13 0 62 0;
#X connect 15 0 32 0;
#X connect 16 0 44 0;
#X connect 17 0 31 0;
#X connect 18 0 19 0;
#X connect 19 0 23 0;
#X connect 20 0 22 0;
#X connect 21 0 25 0;
#X connect 22 0 29 0;
#X connect 23 0 36 0;
#X connect 24 0 33 0;
#X connect 25 0 35 0;
#X connect 26 0 27 0;
#X connect 26 0 28 0;
#X connect 26 0 37 0;
#X connect 27 0 22 1;
#X connect 28 0 23 1;
#X connect 29 0 16 0;
#X connect 30 0 26 0;
#X connect 31 0 20 0;
#X connect 31 0 18 0;
#X connect 31 0 21 0;
#X connect 32 0 34 0;
#X connect 33 0 38 0;
#X connect 34 0 20 0;
#X connect 34 0 18 0;
#X connect 34 1 20 1;
#X connect 34 1 18 1;
#X connect 35 0 16 0;
#X connect 36 0 16 0;
#X connect 37 0 25 1;
#X connect 38 0 21 0;
#X connect 38 1 21 1;
#X connect 39 0 26 0;
#X connect 43 0 45 0;
#X connect 44 0 11 0;
#X connect 45 0 16 0;
#X connect 45 1 44 1;
#X connect 46 0 3 0;
#X connect 46 1 49 1;
#X connect 47 0 46 0;
#X connect 48 0 6 0;
#X connect 48 1 49 0;
#X connect 49 0 5 0;
#X connect 50 0 4 0;
#X connect 56 0 70 0;
#X connect 57 0 59 0;
#X connect 58 0 60 0;
#X connect 61 0 57 0;
#X connect 62 0 58 0;
#X connect 63 0 75 0;
#X connect 64 0 63 0;
#X connect 65 0 9 1;
#X connect 66 0 65 1;
#X connect 66 0 80 0;
#X connect 66 1 67 1;
#X connect 67 0 12 1;
#X connect 68 0 69 0;
#X connect 70 0 61 0;
#X connect 71 0 72 0;
#X connect 72 0 62 0;
#X connect 73 0 74 0;
#X connect 74 0 6 1;
#X connect 75 0 66 0;
#X connect 76 0 79 0;
#X connect 79 0 81 0;
#X connect 81 0 75 0;
#X connect 81 1 75 1;
#X coords 0 -1 1 1 150 80 2 100 600;
