#N canvas 718 511 408 639 10;
#X obj 21 82 inlet~;
#X floatatom 49 138 5 0 0 0 - - - 0;
#X obj 49 162 dbtorms;
#X floatatom 50 180 5 0 0 0 - - - 0;
#X floatatom 51 330 5 0 0 0 - - - 0;
#X floatatom 48 398 5 0 0 0 - - - 0;
#X floatatom 51 444 5 0 0 0 - - - 0;
#X obj 21 529 *~;
#X obj 51 352 t f f;
#X obj 21 577 outlet~;
#X obj 49 116 env~;
#X obj 50 203 expr $f1*sqrt(2);
#N canvas 0 25 150 185 inv 0;
#X obj 30 29 inlet;
#X obj 29 114 outlet;
#X obj 30 55 + 1;
#X obj 30 80 mod 2;
#X connect 0 0 2 0;
#X connect 2 0 3 0;
#X connect 3 0 1 0;
#X restore 49 375 pd inv;
#N canvas 63 88 311 295 sup 0;
#X obj 57 63 inlet;
#X obj 141 17 loadbang;
#X msg 142 69 1;
#X obj 103 117 spigot;
#X obj 142 90 tgl 15 0 empty empty empty 17 7 0 10 #fcfcfc #000000 #000000 0 1;
#X floatatom 135 204 5 0 0 0 - - - 0;
#X obj 57 246 spigot;
#X obj 96 225 tgl 15 0 empty empty empty 17 7 0 10 #fcfcfc #000000 #000000 0 1;
#X obj 57 85 t f f f;
#X obj 135 246 outlet;
#X obj 103 137 t b f;
#X msg 198 111 0;
#X obj 80 197 >;
#X msg 157 39 bang;
#X obj 231 11 inlet;
#X obj 231 33 t b f;
#X connect 0 0 8 0;
#X connect 1 0 2 0;
#X connect 2 0 4 0;
#X connect 3 0 10 0;
#X connect 4 0 3 1;
#X connect 5 0 9 0;
#X connect 5 0 12 1;
#X connect 6 0 5 0;
#X connect 7 0 6 1;
#X connect 8 0 6 0;
#X connect 8 1 12 0;
#X connect 8 2 3 0;
#X connect 10 0 11 0;
#X connect 10 1 5 0;
#X connect 11 0 4 0;
#X connect 12 0 7 0;
#X connect 13 0 2 0;
#X connect 14 0 15 0;
#X connect 15 0 2 0;
#X connect 15 1 5 0;
#X restore 51 310 pd sup;
#X obj 51 423 /;
#X obj 51 487 line~;
#X obj 84 226 loadbang;
#X obj 84 247 tgl 16 0 empty empty empty 0 -8 0 10 #fcfcfc #000000 #000000 0 1;
#X msg 84 289 1;
#X text 20 22 (c) 2024 Achim Bornhoeft adapted from: https://forum.pdpatchrepo.info/topic/10559/normalize;
#X obj 51 466 pack \$1 200;
#X obj 84 268 metro 50;
#X obj 21 554 clip~ -0.99 0.99;
#X connect 0 0 7 0;
#X connect 0 0 10 0;
#X connect 1 0 2 0;
#X connect 2 0 3 0;
#X connect 3 0 11 0;
#X connect 4 0 8 0;
#X connect 5 0 14 0;
#X connect 6 0 20 0;
#X connect 7 0 22 0;
#X connect 8 0 12 0;
#X connect 8 1 14 1;
#X connect 10 0 1 0;
#X connect 11 0 13 0;
#X connect 12 0 5 0;
#X connect 13 0 4 0;
#X connect 14 0 6 0;
#X connect 15 0 7 1;
#X connect 16 0 17 0;
#X connect 17 0 21 0;
#X connect 18 0 13 1;
#X connect 20 0 15 0;
#X connect 21 0 18 0;
#X connect 22 0 9 0;
#X coords 0 639 1 638 138 18 0;
