#N canvas 801 787 521 477 10;
#X obj 216 400 pack f f f f;
#X obj 216 426 outlet;
#X obj 207 36 inlet;
#X obj 229 203 -;
#X floatatom 228 226 5 0 0 0 - - -, f 5;
#X obj 320 204 -;
#X floatatom 319 227 5 0 0 0 - - -, f 5;
#X obj 304 153 t b f;
#X obj 227 158 t b f;
#X obj 171 326 +;
#X obj 172 280 random;
#X obj 219 108 unpack f f f f f f f f;
#X floatatom 187 303 5 0 0 0 - - -, f 5;
#X obj 315 324 +;
#X obj 316 278 random;
#X floatatom 331 301 5 0 0 0 - - -, f 5;
#X floatatom 245 346 5 0 0 0 - - -, f 5;
#X floatatom 171 348 5 0 0 0 - - -, f 5;
#X floatatom 315 346 5 0 0 0 - - -, f 5;
#X floatatom 375 348 5 0 0 0 - - -, f 5;
#X obj 92 70 bng 15 250 50 0 empty empty empty 17 7 0 10 -262144 -1
-1;
#X obj 92 45 inlet;
#X obj 246 276 frandom;
#X obj 374 277 frandom;
#X msg 249 39 100 500 0.5 2 200 600 0.7 3;
#X connect 0 0 1 0;
#X connect 2 0 11 0;
#X connect 3 0 4 0;
#X connect 4 0 10 1;
#X connect 5 0 6 0;
#X connect 6 0 14 1;
#X connect 7 0 5 0;
#X connect 7 1 5 1;
#X connect 8 0 3 0;
#X connect 8 1 3 1;
#X connect 9 0 17 0;
#X connect 10 0 9 0;
#X connect 11 0 8 0;
#X connect 11 0 12 0;
#X connect 11 1 3 0;
#X connect 11 2 22 1;
#X connect 11 3 22 2;
#X connect 11 4 7 0;
#X connect 11 4 15 0;
#X connect 11 5 5 0;
#X connect 11 6 23 1;
#X connect 11 7 23 2;
#X connect 12 0 9 1;
#X connect 13 0 18 0;
#X connect 14 0 13 0;
#X connect 15 0 13 1;
#X connect 16 0 0 1;
#X connect 17 0 0 0;
#X connect 18 0 0 2;
#X connect 19 0 0 3;
#X connect 20 0 23 0;
#X connect 20 0 14 0;
#X connect 20 0 22 0;
#X connect 20 0 10 0;
#X connect 21 0 20 0;
#X connect 22 0 16 0;
#X connect 23 0 19 0;
#X connect 24 0 11 0;
