#N canvas 364 413 479 396 12;
#X obj 119 37 loadbang;
#X floatatom 105 249 5 0 0 0 - - -;
#X obj 105 220 max;
#X msg 120 192 0;
#X obj 58 307 pack f f;
#X obj 57 90 inlet~;
#X obj 120 122 metro \$1;
#X obj 119 63 t b b;
#X msg 164 95 5000;
#X obj 181 39 bng 15 250 50 0 empty empty empty 17 7 0 10 -262144 -1
-1;
#X obj 58 332 outlet vu-meter;
#X obj 157 332 outlet db-rms;
#X floatatom 224 230 5 0 0 0 - - -;
#X obj 224 195 max;
#X obj 225 251 - 100;
#X obj 179 308 outlet timed-peak;
#X obj 58 278 - 100;
#X obj 103 278 - 100;
#X obj 225 279 outlet max-peak;
#X obj 241 135 r \$0-res-in-s;
#X msg 241 160 0;
#X obj 57 147 env~;
#X connect 0 0 7 0;
#X connect 1 0 2 1;
#X connect 1 0 17 0;
#X connect 2 0 1 0;
#X connect 3 0 2 1;
#X connect 4 0 10 0;
#X connect 5 0 21 0;
#X connect 6 0 3 0;
#X connect 7 0 6 0;
#X connect 7 1 8 0;
#X connect 8 0 6 1;
#X connect 9 0 7 0;
#X connect 12 0 13 1;
#X connect 12 0 14 0;
#X connect 13 0 12 0;
#X connect 14 0 18 0;
#X connect 16 0 4 0;
#X connect 16 0 11 0;
#X connect 17 0 4 1;
#X connect 17 0 15 0;
#X connect 19 0 20 0;
#X connect 20 0 13 1;
#X connect 21 0 2 0;
#X connect 21 0 13 0;
#X connect 21 0 16 0;
