#N canvas 731 661 409 375 12;
#X obj 92 137 f;
#X obj 120 137 + 1;
#X floatatom 152 191 5 0 0 0 - - - 0;
#X msg 252 69 4;
#X msg 285 70 8;
#X obj 148 137 mod 2;
#X msg 219 69 2;
#X obj 120 166 t b f;
#X obj 67 261 vline~;
#X obj 19 304 *~;
#X obj 93 115 metro 1500;
#X obj 219 41 sel 0 1 2;
#X obj 218 18 inlet;
#X obj 93 22 inlet;
#X obj 318 69 f;
#X floatatom 318 91 5 0 0 0 - - - 0;
#X obj 19 185 hip~ 200;
#X msg 69 237 0 \, 1 80 \, 0 80 800;
#X obj 19 210 *~ 0.1;
#X msg 152 214 set \$1-out;
#X obj 19 345 throw~ 1-out;
#X obj 93 49 t f f;
#X msg 125 74 \; pd dsp \$1 \;;
#X obj 19 157 r~ noise;
#X connect 0 0 1 0;
#X connect 1 0 5 0;
#X connect 1 0 7 0;
#X connect 2 0 19 0;
#X connect 3 0 5 1;
#X connect 4 0 5 1;
#X connect 5 0 0 1;
#X connect 6 0 5 1;
#X connect 7 0 17 0;
#X connect 7 1 2 0;
#X connect 8 0 9 1;
#X connect 9 0 20 0;
#X connect 10 0 0 0;
#X connect 11 0 6 0;
#X connect 11 1 3 0;
#X connect 11 2 4 0;
#X connect 11 3 14 0;
#X connect 12 0 11 0;
#X connect 12 0 14 1;
#X connect 13 0 21 0;
#X connect 14 0 15 0;
#X connect 15 0 5 1;
#X connect 16 0 18 0;
#X connect 17 0 8 0;
#X connect 18 0 9 0;
#X connect 19 0 20 0;
#X connect 21 0 10 0;
#X connect 21 1 22 0;
#X connect 23 0 16 0;
