#N canvas 121 146 195 226 10;
#N canvas 1115 143 454 457 kreise 1;
#X obj 249 178 tgl 15 0 empty loop empty 0 -6 0 8 #fcfcfc #000000 #000000 0 1;
#X text 109 125 radius;
#X text 283 175 loop 0n/off;
#X obj 200 141 tgl 15 0 empty dir empty 0 -6 0 8 #fcfcfc #000000 #000000 0 1;
#X text 199 121 direction 1=clockwise;
#X text 222 132 0=counterclockwise;
#X obj 114 243 t b f;
#N canvas 838 359 375 510 kreis 1;
#X msg 186 175 set \$1;
#X msg 137 273 60000;
#X obj 97 129 * 2;
#X obj 97 170 * 3.14159;
#X obj 86 388 t b f;
#X obj 86 303 line 0 10;
#X floatatom 40 353 0 0 0 0 - - - 0;
#X obj 36 413 poltocar;
#X obj 186 152 inlet;
#X obj 254 16 inlet;
#X obj 150 84 inlet;
#X obj 35 32 inlet;
#X obj 86 31 inlet;
#X obj 114 61 delay 10;
#X obj 97 191 t f f b;
#X obj 96 149 *;
#X floatatom 86 326 5 0 0 0 - - - 0;
#X obj 155 323 select 100;
#X obj 35 467 outlet;
#X obj 150 105 * 2;
#X obj 150 125 - 1;
#X msg 137 240 bang;
#X obj 86 467 outlet;
#X msg 95 107 1;
#X obj 297 32 inlet;
#X msg 155 345 0;
#X obj 87 362 + 1;
#X obj 295 248 deg2rad;
#X obj 36 440 + 100;
#X obj 87 440 + 100;
#X obj 64 60 sel 0 1;
#X msg 67 260 stop;
#X obj 33 387 f 90;
#X msg 114 86 bang;
#X floatatom 296 166 5 0 0 0 - - - 0;
#X obj 221 40 spigot;
#X floatatom 293 272 5 0 0 0 - - - 0;
#X obj 296 210 line;
#X msg 296 189 \$1 10;
#X connect 0 0 1 0;
#X connect 1 0 5 1;
#X connect 2 0 15 0;
#X connect 3 0 14 0;
#X connect 4 0 32 0;
#X connect 4 1 7 1;
#X connect 5 0 16 0;
#X connect 6 0 32 1;
#X connect 7 0 28 0;
#X connect 7 1 29 0;
#X connect 8 0 0 0;
#X connect 9 0 35 1;
#X connect 10 0 19 0;
#X connect 11 0 30 0;
#X connect 12 0 6 0;
#X connect 13 0 33 0;
#X connect 14 0 17 1;
#X connect 14 1 5 0;
#X connect 14 2 21 0;
#X connect 15 0 3 0;
#X connect 16 0 17 0;
#X connect 16 0 26 0;
#X connect 17 0 25 0;
#X connect 17 0 35 0;
#X connect 19 0 20 0;
#X connect 20 0 15 1;
#X connect 21 0 1 0;
#X connect 23 0 2 0;
#X connect 24 0 34 0;
#X connect 25 0 5 0;
#X connect 26 0 4 0;
#X connect 27 0 36 0;
#X connect 28 0 18 0;
#X connect 29 0 22 0;
#X connect 30 0 31 0;
#X connect 30 1 23 0;
#X connect 31 0 5 0;
#X connect 32 0 7 0;
#X connect 33 0 23 0;
#X connect 34 0 38 0;
#X connect 35 0 13 0;
#X connect 36 0 26 1;
#X connect 37 0 27 0;
#X connect 38 0 37 0;
#X restore 114 220 pd kreis ___________________;
#X obj 118 143 tgl 15 0 empty empty empty 17 7 0 10 #fcfcfc #000000 #000000 0 1;
#X text 265 154 time (msec.);
#X obj 113 317 pack f f f;
#X text 154 126 GO;
#X text 314 202 startpos (in deg);
#X obj 112 341 outlet;
#X obj 25 65 bng 15 250 50 0 empty empty empty 17 7 0 10 #fcfcfc #000000 #000000;
#X text 44 64 clear controller;
#X text 19 268 set ctl.point-nr.;
#X obj 114 292 f;
#X text 165 85 bevor was automatisch bewegt wird --> clear !;
#X text 24 19 KREIS-BEWEGUNGEN;
#X text 28 381 if radius >= 145 -> kreisbewegung nur zwischen den jew. benachbarten ecken;
#X obj 24 86 s clear-grid;
#X floatatom 165 143 5 0 0 0 - - - 0;
#X floatatom 223 158 5 0 0 0 - - - 0;
#X floatatom 281 195 5 0 0 0 - - - 0;
#X obj 160 22 inlet;
#X obj 159 46 unpack f f f f f f f;
#X connect 0 0 7 4;
#X connect 3 0 7 2;
#X connect 6 0 17 0;
#X connect 6 1 10 1;
#X connect 7 0 6 0;
#X connect 7 1 10 2;
#X connect 8 0 7 0;
#X connect 10 0 13 0;
#X connect 14 0 21 0;
#X connect 17 0 10 0;
#X connect 22 0 7 1;
#X connect 23 0 7 3;
#X connect 24 0 7 5;
#X connect 25 0 26 0;
#X connect 26 0 17 0;
#X connect 26 1 8 0;
#X connect 26 2 22 0;
#X connect 26 3 3 0;
#X connect 26 4 23 0;
#X connect 26 5 0 0;
#X connect 26 6 24 0;
#X restore 38 130 pd kreise;
#X obj 38 100 list prepend;
#X obj 80 54 t a b;
#X obj 81 26 inlet;
#X obj 107 78 f \$1;
#X obj 38 157 s kreise-out;
#X connect 0 0 5 0;
#X connect 1 0 0 0;
#X connect 2 0 1 0;
#X connect 2 1 4 0;
#X connect 3 0 2 0;
#X connect 4 0 1 1;
