#N canvas 1654 771 622 465 10;
#X obj 33 16 inlet;
#X obj 33 255 line;
#X obj 95 256 line;
#X obj 102 171 t f f;
#X obj 33 233 pack 0 0;
#X obj 95 232 pack 0 0;
#X obj 33 341 pack f f f;
#X obj 33 385 s linie-out;
#X obj 33 309 f \$1;
#X obj 33 285 t b f;
#X msg 285 249 read \$1;
#X obj 285 128 sel 113;
#X obj 285 72 key;
#X floatatom 285 101 5 0 0 1 - - - 0;
#X obj 299 156 r init;
#X floatatom 374 326 5 0 0 0 - - - 0;
#X obj 374 424 qlist;
#N canvas 559 38 395 475 line-in-qlist 0;
#X obj 169 201 f 0;
#X obj 243 200 + 1;
#X msg 239 157 0;
#X obj 98 289 spigot;
#X obj 168 243 <;
#X obj 169 290 sel 0;
#N canvas 577 108 470 320 fastmetro 0;
#X obj 101 104 select 0 1;
#X obj 101 53 inlet;
#X obj 101 78 t a a;
#X msg 101 126 stop;
#X obj 100 256 outlet;
#X text 85 24 like [metro] \, only faster;
#X obj 100 212 t b b;
#X obj 130 232 del 0;
#X obj 100 155 del;
#X obj 100 188 spigot;
#X obj 221 126 max 0.01;
#X obj 221 83 loadbang;
#X connect 0 0 3 0;
#X connect 0 1 8 0;
#X connect 1 0 2 0;
#X connect 2 0 0 0;
#X connect 2 1 9 1;
#X connect 3 0 8 0;
#X connect 6 0 4 0;
#X connect 6 1 7 0;
#X connect 7 0 8 0;
#X connect 8 0 9 0;
#X connect 9 0 6 0;
#X connect 10 0 8 1;
#X connect 11 0 10 0;
#X restore 98 144 pd fastmetro;
#X obj 98 419 outlet;
#X obj 98 9 inlet;
#X msg 98 82 1;
#X obj 98 114 tgl 15 0 empty empty empty 0 -6 0 10 #fcfcfc #000000 #000000 0 1;
#X obj 98 46 t b f b;
#X obj 309 159 outlet;
#X msg 98 349 next 1;
#X msg 179 348 next;
#X msg 309 129 rewind;
#X obj 198 115 + 1;
#X connect 0 0 1 0;
#X connect 0 0 4 0;
#X connect 1 0 0 1;
#X connect 2 0 0 1;
#X connect 3 0 13 0;
#X connect 4 0 3 1;
#X connect 4 0 5 0;
#X connect 5 0 2 0;
#X connect 5 0 10 0;
#X connect 5 0 14 0;
#X connect 6 0 3 0;
#X connect 6 0 0 0;
#X connect 8 0 11 0;
#X connect 9 0 10 0;
#X connect 10 0 6 0;
#X connect 11 0 9 0;
#X connect 11 1 16 0;
#X connect 11 2 15 0;
#X connect 13 0 7 0;
#X connect 14 0 7 0;
#X connect 15 0 12 0;
#X connect 16 0 4 1;
#X restore 374 354 pd line-in-qlist;
#X text 480 355 See/edit content;
#X obj 285 217 makefilename %s-spat.txt;
#X obj 285 188 f \$1;
#X obj 79 16 r \$1-spat;
#X obj 79 76 list;
#X listbox 79 97 20 0 0 0 - - - 0;
#X obj 100 39 r \$2-dur;
#X obj 33 145 unpack f f f;
#X obj 374 302 r \$2-line-cue;
#X text 371 270 send from [cuelist] abstraction \; from each of the 4 channels;
#X text 141 15 position from qlist file;
#X text 156 38 from duration qlist;
#X listbox 33 363 20 0 0 0 - - - 0;
#X obj 151 141 r stop-spat-lines;
#X msg 151 162 stop;
#X obj 177 243 r cue-1-number;
#X floatatom 177 326 5 0 0 0 - - - 0;
#X obj 177 264 t f b;
#X msg 204 286 100;
#X obj 177 347 max 0;
#X text 162 373 send from [pd rehearsal marks]: Reset the spat position in 100 msecs to the last state of the previous cue. (using [max 0] not go below the first line (0) in qlist., f 31;
#X obj 7 115 bng 16 250 50 0 empty empty empty 0 -8 0 10 #fcfcfc #000000 #000000;
#X connect 0 0 25 0;
#X connect 1 0 9 0;
#X connect 2 0 6 2;
#X connect 3 0 4 1;
#X connect 3 1 5 1;
#X connect 4 0 1 0;
#X connect 5 0 2 0;
#X connect 6 0 30 0;
#X connect 8 0 6 0;
#X connect 9 0 8 0;
#X connect 9 1 6 1;
#X connect 10 0 16 0;
#X connect 11 0 20 0;
#X connect 12 0 13 0;
#X connect 13 0 11 0;
#X connect 14 0 20 0;
#X connect 15 0 17 0;
#X connect 17 0 16 0;
#X connect 17 1 16 0;
#X connect 19 0 10 0;
#X connect 20 0 19 0;
#X connect 21 0 22 0;
#X connect 22 0 23 0;
#X connect 23 0 25 0;
#X connect 24 0 22 1;
#X connect 25 0 4 0;
#X connect 25 1 5 0;
#X connect 25 2 3 0;
#X connect 26 0 15 0;
#X connect 30 0 7 0;
#X connect 31 0 32 0;
#X connect 32 0 1 0;
#X connect 32 0 2 0;
#X connect 33 0 35 0;
#X connect 34 0 37 0;
#X connect 35 0 34 0;
#X connect 35 1 36 0;
#X connect 36 0 22 1;
#X connect 37 0 17 0;
#X connect 39 0 25 0;
