#N canvas 848 158 249 357 10;
#X obj 33 16 inlet;
#X obj 46 181 line;
#X obj 109 186 line;
#X obj 120 80 t f f;
#X obj 46 143 pack 0 0;
#X obj 108 142 pack 0 0;
#X obj 45 287 pack f f f;
#X obj 44 311 s linie-out;
#X obj 45 255 f \$1;
#X obj 49 224 t b f;
#X obj 34 46 unpack f f f;
#X connect 0 0 10 0;
#X connect 1 0 9 0;
#X connect 2 0 6 2;
#X connect 3 0 4 1;
#X connect 3 1 5 1;
#X connect 4 0 1 0;
#X connect 5 0 2 0;
#X connect 6 0 7 0;
#X connect 8 0 6 0;
#X connect 9 0 8 0;
#X connect 9 1 6 1;
#X connect 10 0 4 0;
#X connect 10 1 5 0;
#X connect 10 2 3 0;
