#N struct 4373-controller float x0 float y0 float id float color;
#N canvas 991 481 592 686 12;
#X obj 161 77 hradio 20 1 0 16 empty empty 1\ to\ maximal\ 16\ control\ points 0 -6 0 12 #fcfcfc #000000 #000000 0;
#X obj 161 106 + 1;
#X obj 315 496 tgl 19 0 empty empty empty 17 7 0 12 #fcfcfc #000000 #000000 0 1;
#X msg 260 234 clear;
#X symbolatom 347 526 12 0 0 1 - - - 0;
#N canvas 1417 887 324 394 save 0;
#X obj 77 106 tgl 15 0 empty empty empty 17 7 0 10 #fcfcfc #000000 #000000 0 1;
#X obj 24 26 inlet;
#X obj 24 128 spigot 0;
#X obj 84 229 inlet;
#X text 65 25 data(ind x/y)in;
#X obj 54 220 bng 15 250 50 0 empty empty empty 17 7 0 10 #fcfcfc #000000 #000000;
#X text 125 228 filename;
#X msg 84 326 symbol \$1;
#X obj 24 354 txt-write;
#X text 96 106 blocks writing while reading;
#X obj 84 261 t a b;
#X obj 77 79 inlet;
#X obj 54 157 inlet;
#X text 96 155 write data;
#X obj 54 181 t b b;
#X obj 116 295 s clear-grid;
#X connect 0 0 2 1;
#X connect 1 0 2 0;
#X connect 2 0 8 0;
#X connect 3 0 10 0;
#X connect 5 0 8 1;
#X connect 7 0 8 2;
#X connect 10 0 7 0;
#X connect 10 1 15 0;
#X connect 11 0 0 0;
#X connect 12 0 14 0;
#X connect 14 0 5 0;
#X connect 14 1 15 0;
#X restore 252 555 pd save as txt;
#N canvas 505 25 617 735 simple 0;
#X obj 45 502 t b f;
#X obj 44 603 pack f f f;
#X obj 44 696 outlet;
#X text 77 574 set ctl.point-nr.;
#X obj 45 578 f;
#X floatatom 63 551 3 0 0 0 - - - 0;
#X obj 63 526 init 1;
#X floatatom 469 325 5 0 0 0 - - - 0;
#X text 508 327 dur;
#X obj 467 300 init 2000;
#X obj 29 76 bng 15 250 50 0 empty empty empty 17 7 0 10 #fcfcfc #000000 #000000;
#X text 48 75 clear controller;
#N canvas 430 459 252 256 lines 0;
#X obj 17 35 inlet;
#X obj 18 65 unpack f f f f;
#X obj 14 188 line;
#X obj 65 186 line;
#X obj 13 210 outlet;
#X obj 67 209 outlet;
#X obj 100 134 f;
#X obj 69 133 f;
#X obj 55 93 t b f;
#X obj 17 93 t b f;
#X obj 161 36 inlet;
#X obj 163 58 t f f;
#X obj 43 162 pack 0 0;
#X obj 123 163 pack 0 0;
#X connect 0 0 1 0;
#X connect 1 0 9 0;
#X connect 1 1 8 0;
#X connect 1 2 7 1;
#X connect 1 3 6 1;
#X connect 2 0 4 0;
#X connect 3 0 5 0;
#X connect 6 0 13 0;
#X connect 7 0 12 0;
#X connect 8 0 6 0;
#X connect 8 1 3 0;
#X connect 9 0 7 0;
#X connect 9 1 2 0;
#X connect 10 0 11 0;
#X connect 11 0 12 1;
#X connect 11 1 13 1;
#X connect 12 0 2 0;
#X connect 13 0 3 0;
#X restore 45 467 pd lines;
#X msg 27 162 0 200 200 200;
#X msg 37 183 200 200 200 0;
#X msg 52 203 200 0 0 0;
#X msg 62 224 0 0 0 200;
#X text 30 137 seitenbewegungen;
#X text 154 137 diagonal;
#X msg 148 162 0 200 200 0;
#X msg 158 183 200 0 0 200;
#X msg 173 203 200 200 0 0;
#X msg 183 224 0 0 200 200;
#X text 415 499 x/y: \; [1] 0 200 \; [2] 200 200 \; [3] 0 0 \; [4] 200 0 \;;
#X obj 483 126 random 200;
#X obj 486 104 until;
#X msg 498 79 4;
#X obj 418 174 list append;
#X obj 548 172 t l;
#X obj 482 149 list prepend;
#X obj 480 53 t b b b;
#X msg 415 241 122 14 85 3;
#X msg 417 198 set \$1 \$2 \$3 \$4;
#X obj 418 218 t b a;
#X msg 479 31 random movement;
#X msg 261 162 100 200 100 0;
#X msg 271 183 100 0 100 200;
#X msg 286 203 0 100 200 100;
#X text 264 137 front/rear|left/right;
#X msg 296 224 200 100 0 100;
#X text 285 511 [1]________[2] \; ______________ \; ______________ \; [3]________[4] \;;
#N canvas 0 22 201 270 simple 0;
#X obj 49 50 delay 2000;
#X obj 39 31 bng 15 250 50 0 empty empty empty 17 7 0 10 #fcfcfc #000000 #000000;
#X obj 63 71 delay 2000;
#X obj 69 95 delay 2000;
#X obj 51 236 outlet;
#X obj 128 20 inlet;
#X obj 39 10 inlet;
#X msg 66 162 200 0 0 200;
#X msg 76 183 0 200 200 200;
#X msg 41 121 0 200 200 200;
#X msg 51 142 200 200 200 0;
#X connect 0 0 10 0;
#X connect 0 0 2 0;
#X connect 1 0 9 0;
#X connect 1 0 0 0;
#X connect 2 0 7 0;
#X connect 2 0 3 0;
#X connect 3 0 8 0;
#X connect 5 0 0 1;
#X connect 5 0 2 1;
#X connect 5 0 3 1;
#X connect 6 0 1 0;
#X connect 7 0 4 0;
#X connect 8 0 4 0;
#X connect 9 0 4 0;
#X connect 10 0 4 0;
#X restore 381 412 pd simple seq;
#X obj 28 97 s clear-grid;
#X obj 381 392 bng 15 250 50 0 empty empty empty 17 7 0 10 #fcfcfc #000000 #000000;
#X text 404 392 play;
#X text 438 324 -->;
#X text 481 11 misc;
#X obj 59 630 tgl 15 0 empty empty empty 17 7 0 10 #fcfcfc #000000 #000000 0 1;
#N canvas 24 25 992 556 random 0;
#X obj 126 177 random 200;
#X obj 129 155 until;
#X obj 61 225 list append;
#X obj 191 223 t l;
#X obj 125 200 list prepend;
#X obj 123 104 t b b b;
#X msg 58 292 135 189 35 85 89 47 185 156 119 95;
#X obj 61 269 t b a;
#X obj 123 64 tgl 15 0 empty empty empty 17 7 0 10 #fcfcfc #000000 #000000 0 1;
#X text 291 61 random points;
#X obj 123 82 metro 200;
#X obj 120 38 inlet;
#X msg 141 130 10;
#X obj 57 315 unpack f f f f f f f f f f;
#X obj 43 394 t b f;
#X obj 46 444 pack f f f;
#X text 370 416 ctl.point-nr.;
#X obj 118 393 t b f;
#X obj 121 443 pack f f f;
#X obj 192 392 t b f;
#X obj 195 442 pack f f f;
#X obj 264 395 t b f;
#X obj 267 445 pack f f f;
#X obj 334 394 t b f;
#X obj 337 444 pack f f f;
#X obj 338 419 f 9;
#X obj 268 420 f 7;
#X obj 196 417 f 5;
#X obj 122 418 f 3;
#X obj 47 419 f 2;
#X msg 60 249 set \$1 \$2 \$3 \$4 \$5 \$6 \$7 \$8 \$9 \$10;
#X obj 329 166 bng 15 250 50 0 empty empty empty 17 7 0 10 #fcfcfc #000000 #000000;
#X text 348 165 clear controller;
#X obj 328 187 s clear-grid;
#X obj 600 173 random 200;
#X obj 603 151 until;
#X obj 535 221 list append;
#X obj 665 219 t l;
#X obj 599 196 list prepend;
#X obj 597 100 t b b b;
#X msg 532 288 71 0 142 13 168 157 122 111 118 175;
#X obj 535 265 t b a;
#X obj 597 60 tgl 15 0 empty empty empty 17 7 0 10 #fcfcfc #000000 #000000 0 1;
#X msg 615 126 10;
#X obj 531 311 unpack f f f f f f f f f f;
#X obj 517 390 t b f;
#X obj 520 440 pack f f f;
#X text 844 412 ctl.point-nr.;
#X obj 592 389 t b f;
#X obj 595 439 pack f f f;
#X obj 666 388 t b f;
#X obj 669 438 pack f f f;
#X obj 738 391 t b f;
#X obj 741 441 pack f f f;
#X obj 808 390 t b f;
#X obj 811 440 pack f f f;
#X msg 534 245 set \$1 \$2 \$3 \$4 \$5 \$6 \$7 \$8 \$9 \$10;
#X obj 597 78 metro 333;
#X obj 523 475 t a;
#X obj 51 514 outlet;
#X obj 49 479 t a;
#X obj 521 415 f 1;
#X obj 596 414 f 4;
#X obj 670 413 f 6;
#X obj 742 416 f 8;
#X obj 812 415 f 10;
#X obj 329 122 sel 0;
#X text 292 75 2 schichten 5:3 (cgl. metros) zu je 5 ctl-pts;
#X connect 0 0 4 0;
#X connect 1 0 0 0;
#X connect 2 0 30 0;
#X connect 3 0 4 1;
#X connect 4 0 3 0;
#X connect 4 0 2 1;
#X connect 5 0 2 0;
#X connect 5 1 12 0;
#X connect 5 2 4 1;
#X connect 6 0 13 0;
#X connect 7 0 6 0;
#X connect 7 1 6 0;
#X connect 8 0 10 0;
#X connect 8 0 66 0;
#X connect 10 0 5 0;
#X connect 11 0 8 0;
#X connect 11 0 42 0;
#X connect 12 0 1 0;
#X connect 13 0 14 0;
#X connect 13 1 15 2;
#X connect 13 2 17 0;
#X connect 13 3 18 2;
#X connect 13 4 19 0;
#X connect 13 5 20 2;
#X connect 13 6 21 0;
#X connect 13 7 22 2;
#X connect 13 8 23 0;
#X connect 13 9 24 2;
#X connect 14 0 29 0;
#X connect 14 1 15 1;
#X connect 15 0 60 0;
#X connect 17 0 28 0;
#X connect 17 1 18 1;
#X connect 18 0 60 0;
#X connect 19 0 27 0;
#X connect 19 1 20 1;
#X connect 20 0 60 0;
#X connect 21 0 26 0;
#X connect 21 1 22 1;
#X connect 22 0 60 0;
#X connect 23 0 25 0;
#X connect 23 1 24 1;
#X connect 24 0 60 0;
#X connect 25 0 24 0;
#X connect 26 0 22 0;
#X connect 27 0 20 0;
#X connect 28 0 18 0;
#X connect 29 0 15 0;
#X connect 30 0 7 0;
#X connect 31 0 33 0;
#X connect 34 0 38 0;
#X connect 35 0 34 0;
#X connect 36 0 56 0;
#X connect 37 0 38 1;
#X connect 38 0 37 0;
#X connect 38 0 36 1;
#X connect 39 0 36 0;
#X connect 39 1 43 0;
#X connect 39 2 38 1;
#X connect 40 0 44 0;
#X connect 41 0 40 0;
#X connect 41 1 40 0;
#X connect 42 0 57 0;
#X connect 43 0 35 0;
#X connect 44 0 45 0;
#X connect 44 1 46 2;
#X connect 44 2 48 0;
#X connect 44 3 49 2;
#X connect 44 4 50 0;
#X connect 44 5 51 2;
#X connect 44 6 52 0;
#X connect 44 7 53 2;
#X connect 44 8 54 0;
#X connect 44 9 55 2;
#X connect 45 0 61 0;
#X connect 45 1 46 1;
#X connect 46 0 58 0;
#X connect 48 0 62 0;
#X connect 48 1 49 1;
#X connect 49 0 58 0;
#X connect 50 0 63 0;
#X connect 50 1 51 1;
#X connect 51 0 58 0;
#X connect 52 0 64 0;
#X connect 52 1 53 1;
#X connect 53 0 58 0;
#X connect 54 0 65 0;
#X connect 54 1 55 1;
#X connect 55 0 58 0;
#X connect 56 0 41 0;
#X connect 57 0 39 0;
#X connect 58 0 59 0;
#X connect 60 0 59 0;
#X connect 61 0 46 0;
#X connect 62 0 49 0;
#X connect 63 0 51 0;
#X connect 64 0 53 0;
#X connect 65 0 55 0;
#X connect 66 0 31 0;
#X restore 59 652 pd random points 5:3;
#X text 133 98 before somthing moves --> clear !;
#X text 31 29 Simple movements: Lines \, diagonals \, points;
#X connect 0 0 4 0;
#X connect 0 1 1 1;
#X connect 1 0 2 0;
#X connect 4 0 1 0;
#X connect 5 0 4 1;
#X connect 6 0 5 0;
#X connect 7 0 12 1;
#X connect 7 0 41 1;
#X connect 9 0 7 0;
#X connect 10 0 42 0;
#X connect 12 0 0 0;
#X connect 12 1 1 2;
#X connect 13 0 12 0;
#X connect 14 0 12 0;
#X connect 15 0 12 0;
#X connect 16 0 12 0;
#X connect 19 0 12 0;
#X connect 20 0 12 0;
#X connect 21 0 12 0;
#X connect 22 0 12 0;
#X connect 24 0 29 0;
#X connect 25 0 24 0;
#X connect 26 0 25 0;
#X connect 27 0 32 0;
#X connect 28 0 29 1;
#X connect 29 0 28 0;
#X connect 29 0 27 1;
#X connect 30 0 27 0;
#X connect 30 1 26 0;
#X connect 30 2 29 1;
#X connect 31 0 12 0;
#X connect 32 0 33 0;
#X connect 33 0 31 0;
#X connect 33 1 31 0;
#X connect 34 0 30 0;
#X connect 35 0 12 0;
#X connect 36 0 12 0;
#X connect 37 0 12 0;
#X connect 39 0 12 0;
#X connect 41 0 12 0;
#X connect 43 0 41 0;
#X connect 47 0 48 0;
#X connect 48 0 2 0;
#X restore 47 130 pd simple;
#X obj 47 621 spigot;
#X obj 86 592 tgl 19 0 empty empty empty 17 7 0 10 #fcfcfc #000000 #000000 0 1;
#X obj 47 649 print;
#N canvas 348 97 446 701 read 0;
#X obj 44 661 outlet;
#X obj 46 184 tgl 19 0 empty empty empty 17 7 0 10 #fcfcfc #000000 #000000 0 1;
#X floatatom 99 185 5 0 0 0 - - - 0;
#X text 100 166 tempo;
#X obj 46 216 metro 50;
#X obj 145 332 spigot 0;
#X obj 198 309 tgl 15 0 empty empty empty 17 7 0 10 #fcfcfc #000000 #000000 0 1;
#X text 214 308 loop;
#X obj 99 300 symbol;
#X obj 47 123 bng 15 250 50 0 empty empty empty 17 7 0 10 #fcfcfc #000000 #000000;
#X text 66 122 clear controller;
#X obj 46 333 txt-read;
#X symbolatom 124 271 10 0 0 0 - - - 0;
#X text 200 264 or choose file to play \; without extension;
#X floatatom 138 390 5 0 0 0 - - - 0;
#X text 139 371 tempo;
#X obj 186 494 spigot 0;
#X obj 239 471 tgl 15 0 empty empty empty 17 7 0 10 #fcfcfc #000000 #000000 0 1;
#X text 252 495 loop;
#X obj 139 462 symbol;
#X obj 85 495 txt-read;
#X symbolatom 139 434 10 0 0 0 - - - 0;
#X text 215 423 or choose file to play \; without extension;
#X text 97 662 ind x y stream;
#X obj 85 415 metro 24;
#N canvas 504 119 692 558 change 0;
#X obj 368 503 outlet;
#X obj 86 299 symbol;
#X obj 33 334 txt-read;
#X obj 35 99 t f f;
#X obj 36 190 tgl 15 0 empty empty empty 17 7 0 10 #fcfcfc #000000 #000000 0 1;
#X obj 36 212 metro 10;
#X obj 66 127 sel 1;
#X obj 65 160 t b b;
#X obj 381 217 symbol;
#X obj 328 243 txt-read;
#X obj 328 58 t f f;
#X obj 328 140 tgl 15 0 empty empty empty 17 7 0 10 #fcfcfc #000000 #000000 0 1;
#X obj 328 168 metro 10;
#X obj 360 84 sel 1;
#X obj 360 112 t b b;
#X msg 392 139 6;
#X msg 381 193 kreis;
#X msg 86 270 kreis;
#X text 137 271 CTL-POINT 2;
#X obj 595 222 symbol;
#X obj 542 248 txt-read;
#X obj 540 57 t f f;
#X obj 541 144 tgl 15 0 empty empty empty 17 7 0 10 #fcfcfc #000000 #000000 0 1;
#X obj 542 166 metro 10;
#X obj 572 82 sel 1;
#X obj 572 108 t b b;
#X msg 595 196 kreis;
#X obj 368 299 t b f;
#X obj 368 409 pack f f f;
#X obj 368 382 f;
#X floatatom 386 357 3 0 0 0 - - - 0;
#X obj 386 329 init 9;
#X text 206 358 override ctl.point-nr.;
#X obj 328 271 unpack f f f;
#X floatatom 328 299 3 0 0 0 - - - 0;
#X text 298 298 old;
#X obj 581 299 t b f;
#X obj 578 413 pack f f f;
#X obj 578 385 f;
#X floatatom 596 361 3 0 0 0 - - - 0;
#X obj 541 272 unpack f f f;
#X floatatom 541 300 3 0 0 0 - - - 0;
#X obj 596 333 init 5;
#X msg 604 134 12;
#X msg 96 188 24;
#X obj 164 144 bng 15 250 50 0 empty empty empty 17 7 0 10 #fcfcfc #000000 #000000;
#X text 183 143 clear controller;
#X obj 163 165 s clear-grid;
#X obj 328 16 inlet;
#X text 89 243 orig. ctl-pt 2 (see kreis.txt);
#X text 140 493 Routing from a text file to several control points, f 26;
#X connect 1 0 2 1;
#X connect 2 0 0 0;
#X connect 3 0 4 0;
#X connect 3 1 6 0;
#X connect 4 0 5 0;
#X connect 5 0 2 0;
#X connect 6 0 7 0;
#X connect 7 0 17 0;
#X connect 7 1 44 0;
#X connect 8 0 9 1;
#X connect 9 0 33 0;
#X connect 10 0 11 0;
#X connect 10 1 13 0;
#X connect 11 0 12 0;
#X connect 12 0 9 0;
#X connect 13 0 14 0;
#X connect 14 0 16 0;
#X connect 14 1 15 0;
#X connect 15 0 12 1;
#X connect 16 0 8 0;
#X connect 17 0 1 0;
#X connect 19 0 20 1;
#X connect 20 0 40 0;
#X connect 21 0 22 0;
#X connect 21 1 24 0;
#X connect 22 0 23 0;
#X connect 23 0 20 0;
#X connect 24 0 25 0;
#X connect 25 0 26 0;
#X connect 25 1 43 0;
#X connect 26 0 19 0;
#X connect 27 0 29 0;
#X connect 27 1 28 1;
#X connect 28 0 0 0;
#X connect 29 0 28 0;
#X connect 30 0 29 1;
#X connect 31 0 30 0;
#X connect 33 0 34 0;
#X connect 33 1 27 0;
#X connect 33 2 28 2;
#X connect 36 0 38 0;
#X connect 36 1 37 1;
#X connect 37 0 0 0;
#X connect 38 0 37 0;
#X connect 39 0 38 1;
#X connect 40 0 41 0;
#X connect 40 1 36 0;
#X connect 40 2 37 2;
#X connect 42 0 39 0;
#X connect 43 0 23 1;
#X connect 44 0 5 1;
#X connect 45 0 47 0;
#X connect 48 0 21 0;
#X connect 48 0 10 0;
#X connect 48 0 3 0;
#X restore 116 619 pd change ctl-points;
#X msg 120 243 kreis;
#N canvas 54 319 881 416 einfaches 0;
#X obj 41 346 outlet;
#X obj 32 0 inlet;
#X obj 36 45 tgl 15 0 empty empty empty 17 7 0 10 #fcfcfc #000000 #000000 0 1;
#X obj 129 243 symbol;
#X obj 40 191 txt-read;
#X msg 129 192 diagonal1;
#X msg 140 213 diagonal2;
#X obj 37 65 t f f;
#X obj 37 139 tgl 15 0 empty empty empty 17 7 0 10 #fcfcfc #000000 #000000 0 1;
#X obj 38 161 metro 10;
#X obj 64 89 sel 1;
#X text 204 197 presaved txts;
#X obj 56 111 t b b;
#X obj 144 110 t b b;
#X obj 146 86 delay 1500;
#X msg 84 131 13;
#X obj 226 110 t b b;
#X msg 254 130 3;
#X obj 228 86 delay 5000;
#X msg 172 130 46;
#X text 191 246 CTL-POINT 1;
#X obj 328 110 t b b;
#X msg 356 130 80;
#X obj 583 238 symbol;
#X obj 494 186 txt-read;
#X obj 491 60 t f f;
#X obj 491 134 tgl 15 0 empty empty empty 17 7 0 10 #fcfcfc #000000 #000000 0 1;
#X obj 492 156 metro 10;
#X obj 518 84 sel 1;
#X text 643 206 presaved txts;
#X obj 510 106 t b b;
#X obj 598 105 t b b;
#X obj 680 105 t b b;
#X msg 708 125 3;
#X msg 626 125 46;
#X obj 782 105 t b b;
#X obj 784 81 delay 400;
#X text 630 240 CTL-POINT 2;
#X obj 490 38 tgl 15 0 empty empty empty 17 7 0 10 #fcfcfc #000000 #000000 0 1;
#X obj 600 81 delay 2500;
#X msg 538 126 6;
#X obj 682 81 delay 5500;
#X msg 809 125 17;
#X text 387 129 tempi;
#X text 393 87 einsätze;
#X obj 330 86 delay 500;
#X text 205 305 zeitliche anordnung von vorher in einzelnen arbeitsschritten "synthetisierter" bewegungen \; zweistimmiger "kontrapkt";
#X msg 594 207 kreis;
#X obj 116 9 bng 15 250 50 0 empty empty empty 17 7 0 10 #fcfcfc #000000 #000000;
#X text 135 8 clear controller;
#X obj 115 30 s clear-grid;
#X connect 1 0 2 0;
#X connect 2 0 7 0;
#X connect 2 0 25 0;
#X connect 3 0 4 1;
#X connect 4 0 0 0;
#X connect 5 0 3 0;
#X connect 6 0 3 0;
#X connect 7 0 8 0;
#X connect 7 1 10 0;
#X connect 8 0 9 0;
#X connect 9 0 4 0;
#X connect 10 0 12 0;
#X connect 12 0 5 0;
#X connect 12 1 15 0;
#X connect 12 1 14 0;
#X connect 13 0 6 0;
#X connect 13 1 19 0;
#X connect 13 1 18 0;
#X connect 14 0 13 0;
#X connect 15 0 9 1;
#X connect 16 0 5 0;
#X connect 16 1 17 0;
#X connect 16 1 45 0;
#X connect 17 0 9 1;
#X connect 18 0 16 0;
#X connect 19 0 9 1;
#X connect 21 0 6 0;
#X connect 21 1 22 0;
#X connect 22 0 9 1;
#X connect 23 0 24 1;
#X connect 24 0 0 0;
#X connect 25 0 26 0;
#X connect 25 1 28 0;
#X connect 26 0 27 0;
#X connect 27 0 24 0;
#X connect 28 0 30 0;
#X connect 30 0 47 0;
#X connect 30 1 40 0;
#X connect 30 1 39 0;
#X connect 31 0 47 0;
#X connect 31 1 34 0;
#X connect 31 1 41 0;
#X connect 32 0 47 0;
#X connect 32 1 33 0;
#X connect 32 1 36 0;
#X connect 33 0 27 1;
#X connect 34 0 27 1;
#X connect 35 0 47 0;
#X connect 35 1 42 0;
#X connect 36 0 35 0;
#X connect 38 0 25 0;
#X connect 39 0 31 0;
#X connect 40 0 27 1;
#X connect 41 0 32 0;
#X connect 42 0 27 1;
#X connect 45 0 21 0;
#X connect 47 0 23 0;
#X connect 48 0 50 0;
#X restore 104 560 pd einfaches sequencing beispiel;
#X obj 46 144 s clear-grid;
#X text 165 242 presaved txt-file;
#X obj 119 215 loadbang;
#X obj 85 389 tgl 19 0 empty empty empty 0 -10 0 12 #fcfcfc #000000 #000000 0 1;
#X text 45 16 Text files;
#X text 44 45 you need as many txt-read objects as you want to have simultaneous movements. maximum 11 control points simultaneously \; the tempo can thus be adjusted for each text file., f 51;
#X obj 104 530 tgl 19 0 empty empty empty 0 -10 0 12 #fcfcfc #000000 #000000 0 1;
#X obj 116 593 tgl 19 0 empty empty empty 0 -10 0 12 #fcfcfc #000000 #000000 0 1;
#X connect 1 0 4 0;
#X connect 2 0 4 1;
#X connect 4 0 11 0;
#X connect 5 0 8 0;
#X connect 6 0 5 1;
#X connect 8 0 11 1;
#X connect 9 0 28 0;
#X connect 11 0 0 0;
#X connect 11 1 5 0;
#X connect 12 0 8 0;
#X connect 14 0 24 1;
#X connect 16 0 19 0;
#X connect 17 0 16 1;
#X connect 19 0 20 1;
#X connect 20 0 0 0;
#X connect 20 1 16 0;
#X connect 21 0 19 0;
#X connect 24 0 20 0;
#X connect 25 0 0 0;
#X connect 26 0 8 0;
#X connect 27 0 0 0;
#X connect 30 0 26 0;
#X connect 31 0 24 0;
#X connect 34 0 27 0;
#X connect 35 0 25 0;
#X restore 69 216 pd read txt;
#N canvas 703 25 458 717 read 0;
#X text 33 149 [2] \; mit der maus reinzeichnen (dafür muss zuvor der beabsichtigte ctl-point gewählt werden -> hradio) \; vgl. print;
#X text 30 35 [control_grid] -- anwendungsformen;
#X text 31 64 [1] \; im patch erzeugte bewegungen (vgl. beispiele in [pd simple] & [pd kreise]. format: index x y (index: ctl-point-nr. 1 bis max 16) \, x&y 0 bis 200 (entspr. der resolution der gui-oberfläche) als kontinuierlicher daten-strom;
#X text 35 227 [3] \; speichern: alle bewegungen (durch [1] und/oder [2] erzeugt) können als textfile gesichert werden \; 1 filename eingeben (gleichnamige werden immer überschrieben) \; 2 ctl-point-nr wählen (will man z.b. 3 bewegungen gleichzeitig haben \, muss man 3 untersch. ctl.-points(nr) verwenden) \; 3 write-enable 1 (unblock textfile-in) \; 4 daten erzeugen (durch [1] oder [2]) \; 5 write-enable 0 (block textfile-in) \; 6 load_txt (sichern/laden);
#X text 36 405 [4] \; gespeicherte daten lesen (vgl. beispiele [pd read txt]) \; die gewünschten textfiles müssen mit dem filename (ohne extension) angegeben werden (vgl. [pd einfaches sequencing beispiel] \; für jeses textfile ist ein eigenes read-txt-obj notwendig (auf diese weise kann jede beliebige bewegung simultan verwendet werden \, sofern nicht bewegungen mit denselben ctl-points-idx gespeicher wurden. zum überschreiben derselben ctl-points-indices vgl. [pd read txt]->[pd change ctl-points];
#X text 37 685 bugs/comments an m_doettlinger@gmx.at;
#X text 36 567 [pd route -> audio-out] zeigt \, wie x/y daten für die steuerung einer quadrophonischen lautsprecheranordnung verwendet werden können (jede klangquelle muss einem ctl-point zugewiesen werden (route 1 2 3 ... 16 vgl. [pd signals~] zur demonstration sind osc~s implementiert) ohne ctl-pts kein audio-output \, d.h. mute audio = clear-grid !!;
#X restore 455 380 pd read me;
#N canvas 275 327 624 266 route->4chn-audio-out 0;
#X obj 25 20 inlet;
#N canvas 529 294 607 260 master 0;
#X obj 45 19 catch~ chn1;
#X obj 123 18 catch~ chn2;
#X obj 200 19 catch~ chn3;
#X obj 278 19 catch~ chn4;
#X obj 45 151 *~;
#X obj 124 150 *~;
#X obj 199 147 *~;
#X obj 277 146 *~;
#X obj 52 175 dac~ 1;
#X obj 288 173 dac~ 4;
#X obj 207 172 dac~ 3;
#X obj 132 174 dac~ 2;
#X text 333 172 4 chn-out;
#X obj 462 83 pack f 25;
#X obj 463 55 inlet;
#X text 503 56 masterfader;
#X obj 462 104 line~;
#X floatatom 345 49 3 0 0 0 - - - 0;
#X obj 369 70 line~;
#X obj 369 17 inlet;
#X text 367 0 number of active ctl-points;
#X obj 45 111 /~;
#X obj 124 110 /~;
#X obj 199 107 /~;
#X obj 277 106 /~;
#X text 455 192 [1]________[2] \; ______________ \; [3]________[4] \;;
#X floatatom 33 219 5 0 0 0 - - - 0;
#X text 68 218 dB;
#X floatatom 111 219 5 0 0 0 - - - 0;
#X text 146 218 dB;
#X obj 34 197 env~ 8192;
#X obj 112 197 env~ 8192;
#X floatatom 192 219 5 0 0 0 - - - 0;
#X text 227 218 dB;
#X floatatom 270 219 5 0 0 0 - - - 0;
#X text 305 218 dB;
#X obj 193 197 env~ 8192;
#X obj 271 197 env~ 8192;
#X text 338 221 check;
#X text 309 105 amp-divisor;
#X obj 408 19 init 1;
#X obj 369 49 pack f 500;
#X connect 0 0 21 0;
#X connect 1 0 22 0;
#X connect 2 0 23 0;
#X connect 3 0 24 0;
#X connect 4 0 8 0;
#X connect 4 0 30 0;
#X connect 5 0 11 0;
#X connect 5 0 31 0;
#X connect 6 0 10 0;
#X connect 6 0 36 0;
#X connect 7 0 9 0;
#X connect 7 0 37 0;
#X connect 13 0 16 0;
#X connect 14 0 13 0;
#X connect 16 0 4 1;
#X connect 16 0 5 1;
#X connect 16 0 6 1;
#X connect 16 0 7 1;
#X connect 18 0 21 1;
#X connect 18 0 22 1;
#X connect 18 0 23 1;
#X connect 18 0 24 1;
#X connect 19 0 17 0;
#X connect 19 0 41 0;
#X connect 21 0 4 0;
#X connect 22 0 5 0;
#X connect 23 0 6 0;
#X connect 24 0 7 0;
#X connect 30 0 26 0;
#X connect 31 0 28 0;
#X connect 36 0 32 0;
#X connect 37 0 34 0;
#X connect 40 0 41 0;
#X connect 41 0 18 0;
#X restore 339 132 pd master;
#X obj 27 52 s xy-data-stream;
#X text 149 52 r in route2audio;
#X obj 339 19 inlet;
#X text 383 20 number of active ctl-points;
#X floatatom 399 104 4 0 0 0 - - - 0;
#N canvas 1494 503 1066 171 signals~ 0;
#X obj 15 115 s~ sig-1;
#X obj 79 116 s~ sig-2;
#X obj 138 119 s~ sig-3;
#X obj 203 121 s~ sig-4;
#X obj 270 120 s~ sig-5;
#X obj 332 119 s~ sig-6;
#X obj 394 118 s~ sig-7;
#X obj 456 119 s~ sig-8;
#X obj 519 118 s~ sig-9;
#X obj 581 117 s~ sig-10;
#X obj 643 117 s~ sig-11;
#X obj 705 114 s~ sig-12;
#X obj 772 115 s~ sig-13;
#X obj 834 114 s~ sig-14;
#X obj 896 114 s~ sig-15;
#X obj 958 113 s~ sig-16;
#X obj 394 86 osc~ 700;
#X obj 456 85 osc~ 800;
#X obj 519 86 osc~ 900;
#X obj 581 85 osc~ 1000;
#X obj 643 84 osc~ 1100;
#X obj 705 83 osc~ 1200;
#X obj 772 86 osc~ 1300;
#X obj 834 85 osc~ 1400;
#X obj 896 84 osc~ 1500;
#X obj 958 83 osc~ 1600;
#X obj 332 87 osc~ 600;
#X obj 15 92 osc~ 200;
#X obj 79 91 osc~ 250;
#X obj 138 91 osc~ 300;
#X obj 203 89 osc~ 400;
#X obj 270 88 osc~ 500;
#X text 13 15 die zu bewegenden klänge müssen hier den entsprechenden ctl-points zugewiesen werden;
#X text 11 51 replace osc~s;
#X connect 16 0 6 0;
#X connect 17 0 7 0;
#X connect 18 0 8 0;
#X connect 19 0 9 0;
#X connect 20 0 10 0;
#X connect 21 0 11 0;
#X connect 22 0 12 0;
#X connect 23 0 13 0;
#X connect 24 0 14 0;
#X connect 25 0 15 0;
#X connect 26 0 5 0;
#X connect 27 0 0 0;
#X connect 28 0 1 0;
#X connect 29 0 2 0;
#X connect 30 0 3 0;
#X connect 31 0 4 0;
#X restore 239 19 pd signals~;
#X text 321 152 !! kein ctl-point -> kein audio-output !!;
#X obj 257 230 route2audio 16;
#X text 156 19 --------->;
#X obj 402 78 hsl 128 15 0 1 0 0 empty empty amp 4 -8 0 10 #fcfcfc #000000 #000000 0 1;
#X obj 399 46 init 0.8;
#X obj 26 76 route2audio 1;
#X obj 130 75 route2audio 9;
#X obj 40 98 route2audio 2;
#X obj 62 119 route2audio 3;
#X obj 76 141 route2audio 4;
#X obj 98 162 route2audio 5;
#X obj 114 185 route2audio 6;
#X obj 141 207 route2audio 7;
#X obj 156 230 route2audio 8;
#X obj 144 97 route2audio 10;
#X obj 164 119 route2audio 11;
#X obj 177 141 route2audio 12;
#X obj 202 162 route2audio 13;
#X obj 214 185 route2audio 14;
#X obj 241 206 route2audio 15;
#X connect 0 0 2 0;
#X connect 4 0 1 0;
#X connect 6 0 1 1;
#X connect 11 0 6 0;
#X connect 12 0 11 0;
#X restore 62 556 pd route->4chn-audio-out;
#X obj 260 151 bng 19 250 50 0 empty empty empty 20 7 0 12 #fcfcfc #000000 #000000;
#X obj 260 125 loadbang;
#X text 391 313 (c) doettlinger 2012;
#X text 390 330 m_doettlinger@gmx.at;
#X text 378 348 SEM MOZARTEUM SALZBURG;
#X text 67 197 read saved data;
#X text 45 18 [control_grid] to control x/y data;
#X text 305 234 clear & reinit control_grid;
#N canvas 580 118 482 463 circles 0;
#X floatatom 50 169 5 0 0 0 - radius - 0;
#X floatatom 165 172 5 0 0 0 - time - 0;
#X obj 204 202 tgl 15 0 empty loop empty 0 -6 0 8 #fcfcfc #000000 #000000 0 1;
#X text 47 150 radius;
#X text 223 199 loop 0n/off;
#X obj 127 148 tgl 15 0 empty dir empty 0 -6 0 8 #fcfcfc #000000 #000000 0 1;
#X obj 50 274 t b f;
#X floatatom 243 224 5 0 0 0 - start - 0;
#X obj 88 215 tgl 15 0 empty empty empty 17 7 0 10 #fcfcfc #000000 #000000 0 1;
#X text 208 173 time (msec.);
#X obj 49 348 pack f f f;
#N canvas 0 22 149 156 init 0;
#X obj 21 12 loadbang;
#X msg 21 37 \; radius 90 \; dir 1 \; time 4000 \; loop 0 \; start 90 \; ctl-point 2 \;;
#X connect 0 0 1 0;
#X restore 51 107 pd init;
#X text 87 199 GO;
#X obj 48 372 outlet;
#X obj 51 64 bng 15 250 50 0 empty empty empty 17 7 0 10 #fcfcfc #000000 #000000;
#X text 70 63 clear controller;
#X text 94 299 set ctl.point-nr.;
#X obj 50 323 f;
#X floatatom 68 299 3 0 0 0 - ctl-point - 0;
#X obj 50 85 s clear-grid;
#X text 145 85 before something moves --> clear !;
#X text 46 19 Circular movements;
#X text 280 223 start position (in deg);
#X text 43 407 if radius >= 145 -> kcircular movement only between the respective neighboring corners, f 44;
#N canvas 930 209 375 510 circle 0;
#X msg 186 175 set \$1;
#X msg 137 273 4000;
#X obj 97 129 * 2;
#X obj 97 170 * 3.14159;
#X obj 86 388 t b f;
#X obj 86 303 line 0 10;
#X floatatom 40 353 0 0 0 0 - - - 0;
#X obj 36 413 poltocar;
#X obj 186 152 inlet;
#X obj 254 16 inlet;
#X obj 150 84 inlet;
#X obj 74 33 inlet;
#X obj 36 33 inlet;
#X obj 114 61 delay 10;
#X obj 97 191 t f f b;
#X obj 96 149 *;
#X floatatom 86 326 5 0 0 0 - - - 0;
#X obj 155 323 select 100;
#X obj 35 467 outlet;
#X obj 150 105 * 2;
#X obj 150 125 - 1;
#X msg 137 240 bang;
#X obj 86 467 outlet;
#X msg 95 107 1;
#X obj 293 35 inlet;
#X msg 155 345 0;
#X obj 87 362 + 1;
#X obj 284 372 deg2rad;
#X obj 36 440 + 100;
#X obj 87 440 + 100;
#X obj 64 60 sel 0 1;
#X msg 67 260 stop;
#X obj 33 387 f 90;
#X msg 114 86 bang;
#X floatatom 321 137 5 0 0 0 - - - 0;
#X obj 221 40 spigot;
#X connect 0 0 1 0;
#X connect 1 0 5 1;
#X connect 2 0 15 0;
#X connect 3 0 14 0;
#X connect 4 0 32 0;
#X connect 4 1 7 1;
#X connect 5 0 16 0;
#X connect 6 0 32 1;
#X connect 7 0 28 0;
#X connect 7 1 29 0;
#X connect 8 0 0 0;
#X connect 9 0 35 1;
#X connect 10 0 19 0;
#X connect 11 0 30 0;
#X connect 12 0 6 0;
#X connect 13 0 33 0;
#X connect 14 0 17 1;
#X connect 14 1 5 0;
#X connect 14 2 21 0;
#X connect 15 0 3 0;
#X connect 16 0 17 0;
#X connect 16 0 26 0;
#X connect 17 0 25 0;
#X connect 17 0 35 0;
#X connect 19 0 20 0;
#X connect 20 0 15 1;
#X connect 21 0 1 0;
#X connect 23 0 2 0;
#X connect 24 0 27 0;
#X connect 24 0 34 0;
#X connect 25 0 5 0;
#X connect 26 0 4 0;
#X connect 27 0 26 1;
#X connect 28 0 18 0;
#X connect 29 0 22 0;
#X connect 30 0 31 0;
#X connect 30 1 23 0;
#X connect 31 0 5 0;
#X connect 32 0 7 0;
#X connect 33 0 23 0;
#X connect 35 0 13 0;
#X restore 50 251 pd circle __________________;
#X text 149 146 direction 1=clockwise \, 0=counterclockwise;
#X connect 0 0 24 0;
#X connect 1 0 24 3;
#X connect 2 0 24 4;
#X connect 5 0 24 2;
#X connect 6 0 17 0;
#X connect 6 1 10 1;
#X connect 7 0 24 5;
#X connect 8 0 24 1;
#X connect 10 0 13 0;
#X connect 14 0 19 0;
#X connect 17 0 10 0;
#X connect 18 0 17 1;
#X connect 24 0 6 0;
#X connect 24 1 10 2;
#X restore 57 169 pd circles;
#X obj 283 467 bng 19 250 50 0 empty empty empty 0 -10 0 12 #fcfcfc #000000 #000000;
#X text 308 466 write data;
#X text 442 522 type filename to save/load without extension, f 17;
#X text 285 146 clear controller / stop audio [r\\\ \$0-clear-grid], f 29;
#X text 340 495 write enable (0=block/1=unblock);
#X text 111 592 print output;
#X obj 260 209 r clear-grid;
#X obj 260 184 s clear-grid;
#X obj 47 272 spat-control;
#X text 277 632 (c) 2024 AChim Bornhoeft (new fomatting);
#X connect 0 0 1 0;
#X connect 1 0 30 1;
#X connect 2 0 5 2;
#X connect 3 0 30 1;
#X connect 4 0 5 3;
#X connect 6 0 30 0;
#X connect 7 0 9 0;
#X connect 8 0 7 1;
#X connect 10 0 30 0;
#X connect 13 0 29 0;
#X connect 21 0 30 0;
#X connect 22 0 5 1;
#X connect 28 0 3 0;
#X connect 30 0 5 0;
#X connect 30 0 12 0;
#X connect 30 0 7 0;
#X connect 30 1 12 1;
