#N canvas 1919 764 416 287 10;
#X text 117 22 write one;
#X obj 129 41 inlet;
#X obj 25 57 inlet;
#X obj 25 244 textfile;
#X symbolatom 158 118 10 0 0 0 - - - 0;
#X obj 129 68 t b b;
#X obj 159 140 t s;
#X text 166 41 bng;
#X text 25 34 data-in;
#X obj 217 39 inlet;
#X msg 128 186 write \$1.txt;
#X msg 25 85 add \$1 \$2 \$3;
#X obj 158 96 symbol;
#X obj 128 161 symbol;
#X text 210 21 filename (without extension);
#X text 98 245 write ctl-data to text;
#X text 37 104 idx x y;
#X msg 257 184 clear;
#X obj 218 61 t b s b;
#X connect 1 0 5 0;
#X connect 2 0 11 0;
#X connect 4 0 6 0;
#X connect 5 0 13 0;
#X connect 5 1 12 0;
#X connect 6 0 13 1;
#X connect 9 0 18 0;
#X connect 10 0 3 0;
#X connect 11 0 3 0;
#X connect 12 0 4 0;
#X connect 13 0 10 0;
#X connect 17 0 3 0;
#X connect 18 0 5 0;
#X connect 18 1 12 1;
#X connect 18 2 17 0;
