#N canvas 1011 295 353 423 12;
#X obj 69 377 dac~;
#X obj 80 304 *~;
#X obj 81 333 *~ 0.3;
#X obj 25 16 tgl 19 0 \$0-tgl empty empty 0 -10 0 12 #fcfcfc #000000 #000000 0 1;
#X obj 26 230 bng 19 250 50 0 empty empty empty 0 -10 0 12 #fcfcfc #000000 #000000;
#X obj 58 110 + 2000;
#X floatatom 59 134 5 0 0 0 - - - 0;
#X obj 163 259 tgl 19 0 empty \$0-tgl empty 0 -10 0 12 #fcfcfc #000000 #000000 0 1;
#X obj 163 327 snapshot~;
#X floatatom 163 379 5 0 0 0 - - - 0;
#X obj 166 354 hsl 162 19 0 1 0 0 empty empty empty -2 -10 0 12 #fcfcfc #000000 #000000 0 1;
#X obj 26 189 metro;
#X obj 25 40 t f b;
#X obj 162 293 metro 10;
#N canvas 1038 260 349 600 env-param 0;
#X obj 29 19 inlet;
#X obj 25 553 outlet;
#X obj 137 554 outlet;
#X obj 137 102 random 400;
#X obj 137 126 + 100;
#X floatatom 71 150 5 0 0 0 - - - 0;
#X obj 71 125 + 2;
#X obj 71 101 random 2;
#X obj 67 236 /;
#X floatatom 67 261 5 0 0 0 - - - 0;
#X floatatom 47 344 7 0 0 0 - - - 0;
#X obj 48 286 *;
#X obj 29 373 -;
#X listbox 25 525 13 0 0 0 - - - 0;
#X obj 47 316 int;
#X floatatom 28 404 5 0 0 0 - - - 0;
#X obj 27 433 t b f;
#X obj 26 471 f;
#X obj 60 179 t b f;
#X msg 59 205 1;
#X obj 25 498 pack f f;
#X obj 30 49 t f f b b;
#X text 106 340 fade-in randomly between 1/2 and 1/3 of the duration, f 27;
#X text 72 403 fade-out: rest of the duration;
#X text 184 126 random freqs between 100 and 500, f 20;
#X connect 0 0 21 0;
#X connect 3 0 4 0;
#X connect 4 0 2 0;
#X connect 5 0 18 0;
#X connect 6 0 5 0;
#X connect 7 0 6 0;
#X connect 8 0 9 0;
#X connect 9 0 11 1;
#X connect 10 0 12 1;
#X connect 10 0 17 1;
#X connect 11 0 14 0;
#X connect 12 0 15 0;
#X connect 13 0 1 0;
#X connect 14 0 10 0;
#X connect 15 0 16 0;
#X connect 16 0 17 0;
#X connect 16 1 20 1;
#X connect 17 0 20 0;
#X connect 18 0 19 0;
#X connect 18 1 8 1;
#X connect 19 0 8 0;
#X connect 20 0 13 0;
#X connect 21 0 12 0;
#X connect 21 1 11 0;
#X connect 21 2 7 0;
#X connect 21 3 3 0;
#X restore 79 189 pd env-param;
#X obj 160 220 osc~;
#X obj 57 85 random 3000;
#X text 99 133 rnd between 2000 and 3000;
#X obj 79 221 exp-env~ 2;
#X connect 1 0 2 0;
#X connect 2 0 0 0;
#X connect 2 0 0 1;
#X connect 3 0 12 0;
#X connect 4 0 16 0;
#X connect 5 0 6 0;
#X connect 6 0 14 0;
#X connect 6 0 11 1;
#X connect 7 0 13 0;
#X connect 8 0 10 0;
#X connect 10 0 9 0;
#X connect 11 0 4 0;
#X connect 12 0 11 0;
#X connect 12 1 16 0;
#X connect 13 0 8 0;
#X connect 14 0 18 0;
#X connect 14 1 15 0;
#X connect 15 0 1 1;
#X connect 16 0 5 0;
#X connect 18 0 1 0;
#X connect 18 0 8 0;
