#N canvas 576 245 854 553 10;
#X obj 410 321 *~;
#X text 430 14 gain-scaler;
#X text 543 29 limiter on off;
#X obj 430 108 line;
#X obj 430 35 r \$1-gain;
#X obj 546 55 r \$1-limiter;
#N canvas 0 22 345 409 switch~ 0;
#X text 63 22 switch between two audio inputs;
#X obj 73 134 inlet~;
#X text 73 116 input1;
#X obj 120 271 line~;
#X obj 208 214 line~;
#X obj 104 299 *~;
#X obj 191 302 *~;
#X obj 120 200 - 1;
#X obj 118 223 abs;
#X msg 119 243 \$1 30;
#X msg 208 186 \$1 30;
#X obj 175 330 +~;
#X obj 136 134 inlet~;
#X text 136 116 input2;
#X obj 207 133 inlet;
#X text 207 114 toggle;
#X obj 175 357 outlet~;
#X text 65 34 with toggle on it switsches to 2nd input;
#X obj 185 59 loadbang;
#X msg 186 89 0;
#X connect 1 0 5 0;
#X connect 3 0 5 1;
#X connect 4 0 6 1;
#X connect 5 0 11 0;
#X connect 6 0 11 1;
#X connect 7 0 8 0;
#X connect 8 0 9 0;
#X connect 9 0 3 0;
#X connect 10 0 4 0;
#X connect 11 0 16 0;
#X connect 12 0 6 0;
#X connect 14 0 10 0;
#X connect 14 0 7 0;
#X connect 18 0 19 0;
#X connect 19 0 10 0;
#X connect 19 0 7 0;
#X restore 410 381 pd switch~;
#X obj 430 135 s \$0-gain-s;
#X obj 425 180 r \$0-gain-r;
#X obj 546 87 s \$0-limiter-s;
#X obj 546 120 r \$0-limiter-r;
#N canvas 1072 87 573 440 hd_recording 1;
#X msg 219 256 stop;
#X obj 192 150 t f b;
#X obj 192 289 t a;
#X obj 101 66 select 0 1;
#X msg 129 237 start;
#X obj 156 122 f 0;
#X obj 129 96 t b b;
#X obj 47 355 writesf~ 1;
#X obj 46 38 inlet~;
#X text 48 14 signal;
#X msg 101 199 stop;
#X msg 192 229 open \$1;
#X obj 101 38 inlet;
#X obj 192 122 + 1;
#X obj 171 38 inlet;
#X msg 171 63 0;
#X symbolatom 192 203 25 0 0 0 - - - 0;
#X text 49 391 (c) 2007/2015 Achim Bornhoeft;
#X obj 192 175 makefilename ../rec/in/\$1-\$2_%d-in.wav;
#X obj 184 90 bng 16 250 50 0 empty empty empty 0 -8 0 10 #fcfcfc #000000 #000000;
#X connect 0 0 2 0;
#X connect 1 0 18 0;
#X connect 1 1 0 0;
#X connect 2 0 7 0;
#X connect 3 0 10 0;
#X connect 3 1 6 0;
#X connect 4 0 7 0;
#X connect 5 0 13 0;
#X connect 6 0 4 0;
#X connect 6 1 5 0;
#X connect 8 0 7 0;
#X connect 10 0 7 0;
#X connect 11 0 2 0;
#X connect 12 0 3 0;
#X connect 13 0 5 1;
#X connect 13 0 1 0;
#X connect 14 0 15 0;
#X connect 15 0 5 1;
#X connect 16 0 11 0;
#X connect 18 0 16 0;
#X connect 19 0 5 0;
#X restore 490 428 pd hd_recording;
#X text 545 319 on/off;
#X obj 530 300 unpack f f;
#X obj 530 340 s \$0-in-rec-r;
#X obj 531 373 r \$0-in-rec-s;
#X obj 530 271 r \$1-in-rec;
#X obj 602 192 key;
#X floatatom 602 216 5 0 0 0 - - - 0;
#X obj 278 45 osc~ 440;
#X obj 277 122 *~;
#X obj 292 73 r \$0-testtone-r;
#N canvas 1272 774 240 180 guilabel 0;
#X msg 43 107 label \$1;
#X obj 43 26 inlet;
#X obj 43 136 outlet;
#N canvas 371 178 187 217 round 0;
#X msg 107 79 10;
#X obj 107 56 loadbang;
#X obj 27 84 * 1;
#X obj 27 19 inlet;
#X obj 68 131 / 1;
#X msg 68 109 1;
#X obj 27 109 + 0.5;
#X obj 27 134 div;
#X obj 27 181 outlet;
#X obj 27 157 * 1;
#X obj 107 102 pow 2;
#X obj 27 45 t f b;
#X connect 0 0 10 0;
#X connect 1 0 0 0;
#X connect 2 0 6 0;
#X connect 3 0 11 0;
#X connect 4 0 9 1;
#X connect 5 0 4 0;
#X connect 6 0 7 0;
#X connect 7 0 9 0;
#X connect 9 0 8 0;
#X connect 10 0 2 1;
#X connect 10 0 4 1;
#X connect 10 0 5 0;
#X connect 11 0 2 0;
#X connect 11 1 0 0;
#X restore 43 53 pd round;
#X obj 43 79 makefilename %s;
#X connect 0 0 2 0;
#X connect 1 0 3 0;
#X connect 3 0 4 0;
#X connect 4 0 0 0;
#X restore 445 158 pd guilabel;
#X obj 602 238 sel 67 82;
#N canvas 0 22 345 409 switch~ 0;
#X text 63 22 switch between two audio inputs;
#X obj 73 134 inlet~;
#X text 73 116 input1;
#X obj 120 271 line~;
#X obj 208 214 line~;
#X obj 104 299 *~;
#X obj 191 302 *~;
#X obj 120 200 - 1;
#X obj 118 223 abs;
#X obj 136 134 inlet~;
#X text 136 116 input2;
#X obj 207 133 inlet;
#X text 207 114 toggle;
#X obj 175 357 outlet~;
#X text 65 34 with toggle on it switsches to 2nd input;
#X obj 185 59 loadbang;
#X msg 186 89 0;
#X msg 208 186 \$1 50;
#X msg 119 243 \$1 50;
#X connect 1 0 5 0;
#X connect 3 0 5 1;
#X connect 4 0 6 1;
#X connect 5 0 13 0;
#X connect 6 0 13 0;
#X connect 7 0 8 0;
#X connect 8 0 18 0;
#X connect 9 0 6 0;
#X connect 11 0 17 0;
#X connect 11 0 7 0;
#X connect 15 0 16 0;
#X connect 16 0 17 0;
#X connect 16 0 7 0;
#X connect 17 0 4 0;
#X connect 18 0 3 0;
#X restore 249 148 pd switch~;
#X text 651 215 R = reset soundfile number;
#X text 652 196 C = record on/off;
#X obj 420 479 s \$0-vu-in;
#X obj 446 61 loadbang;
#N canvas 0 22 345 409 switch~ 0;
#X text 63 22 switch between two audio inputs;
#X obj 73 134 inlet~;
#X text 73 116 input1;
#X obj 120 271 line~;
#X obj 208 214 line~;
#X obj 104 299 *~;
#X obj 191 302 *~;
#X obj 120 200 - 1;
#X obj 118 223 abs;
#X obj 136 134 inlet~;
#X text 136 116 input2;
#X obj 207 133 inlet;
#X text 207 114 toggle;
#X obj 175 357 outlet~;
#X text 65 34 with toggle on it switsches to 2nd input;
#X obj 185 59 loadbang;
#X msg 186 89 0;
#X msg 208 186 \$1 50;
#X msg 119 243 \$1 50;
#X connect 1 0 5 0;
#X connect 3 0 5 1;
#X connect 4 0 6 1;
#X connect 5 0 13 0;
#X connect 6 0 13 0;
#X connect 7 0 8 0;
#X connect 8 0 18 0;
#X connect 9 0 6 0;
#X connect 11 0 17 0;
#X connect 11 0 7 0;
#X connect 15 0 16 0;
#X connect 16 0 17 0;
#X connect 16 0 7 0;
#X connect 17 0 4 0;
#X connect 18 0 3 0;
#X restore 249 229 pd switch~;
#X text 361 166 simulation;
#X obj 277 167 catch~ \$1-sim;
#X obj 306 209 tgl 15 0 empty empty empty 17 7 0 10 #fcfcfc #000000 #000000 0 1;
#X obj 306 187 r sim;
#N canvas 962 715 990 635 limit 0;
#X obj 227 572 outlet~;
#X obj 227 438 *~;
#X obj 227 546 *~;
#N canvas 0 22 450 300 delWrite 0;
#X obj 68 80 delwrite~ \$0-comp 500;
#X obj 68 39 inlet~;
#X obj 68 156 outlet~;
#X connect 1 0 0 0;
#X restore 87 221 pd delWrite;
#X obj 456 325 dbtorms;
#X obj 508 296 /;
#X obj 508 265 swap 1;
#X obj 561 272 /;
#X obj 561 250 swap 1000;
#X obj 242 398 lop~;
#X obj 242 343 clip~ 0 1;
#X obj 456 347 s \$0-thresh;
#X obj 508 318 s \$0-ratio;
#X obj 242 521 line~;
#X obj 242 500 pack f 5;
#X obj 242 476 r \$0-gain;
#X obj 613 229 s \$0-gain;
#N canvas 0 22 872 621 rms 0;
#X obj 257 107 env~ 512;
#X obj 257 245 -~;
#X obj 257 293 *~;
#X obj 257 345 +~;
#X obj 257 385 /~;
#X obj 378 221 +~ 0;
#X obj 272 220 r \$0-thresh;
#X obj 272 318 r \$0-thresh;
#X obj 272 269 r \$0-ratio;
#X obj 257 34 inlet~;
#X obj 257 407 outlet~;
#X obj 373 37 inlet;
#X obj 373 59 switch~;
#X obj 257 135 dbtorms~;
#X text 221 74 Input;
#X text 231 136 RMS;
#X text 424 59 turn DSP on/off for this sub-patch;
#X connect 0 0 13 0;
#X connect 1 0 2 0;
#X connect 2 0 3 0;
#X connect 3 0 4 0;
#X connect 4 0 10 0;
#X connect 5 0 4 1;
#X connect 6 0 1 1;
#X connect 7 0 3 1;
#X connect 8 0 2 1;
#X connect 9 0 0 0;
#X connect 11 0 12 0;
#X connect 13 0 1 0;
#X connect 13 0 5 0;
#X restore 242 220 pd rms;
#N canvas 0 22 859 606 peak 0;
#X obj 244 134 abs~;
#X obj 244 243 -~;
#X obj 244 291 *~;
#X obj 244 343 +~;
#X obj 244 383 /~;
#X obj 365 219 +~ 0;
#X obj 259 218 r \$0-thresh;
#X obj 259 316 r \$0-thresh;
#X obj 259 267 r \$0-ratio;
#X obj 244 49 inlet~;
#X obj 244 405 outlet~;
#X obj 470 125 inlet;
#X obj 470 147 switch~;
#X text 206 99 Input;
#X text 208 135 Peak;
#X text 521 148 turn DSP on/off for this sub-patch;
#X connect 0 0 1 0;
#X connect 0 0 5 0;
#X connect 1 0 2 0;
#X connect 2 0 3 0;
#X connect 3 0 4 0;
#X connect 4 0 10 0;
#X connect 5 0 4 1;
#X connect 6 0 1 1;
#X connect 7 0 3 1;
#X connect 8 0 2 1;
#X connect 9 0 0 0;
#X connect 11 0 12 0;
#X restore 290 220 pd peak;
#X obj 275 162 == 0;
#X obj 275 117 t f f;
#X obj 87 33 inlet~;
#X obj 275 93 r \$0-rmspeak;
#X obj 666 203 s \$0-rmspeak;
#X obj 718 179 s \$0-lookahead;
#X obj 144 273 r \$0-lookahead;
#X obj 456 155 route threshold ratio response gain rmspeak lookahead;
#X obj 456 26 loadbang;
#X obj 456 102 t a a;
#X obj 483 130 s \$0-dump;
#X obj 456 290 + 100;
#X obj 613 205 dbtorms;
#X obj 263 376 r \$0-response;
#X obj 561 294 s \$0-response;
#N canvas 0 22 450 300 delRead 0;
#X obj 68 41 inlet~;
#X obj 133 155 outlet~;
#X obj 133 42 inlet lookAhead;
#X obj 133 116 delread~ \$0-comp 0;
#X connect 2 0 3 0;
#X connect 3 0 1 0;
#X restore 87 297 pd delRead;
#X text 135 33 Input;
#X text 27 219 delwrite~;
#X text 53 252 dymmy;
#X text 52 264 cable;
#X text 33 297 delread~;
#X text 143 252 Lookahead in ms;
#X text 309 341 Clip signal;
#X text 273 397 Attack/release using LPF;
#X text 252 437 Gain Control;
#X text 293 243 Gain computation;
#X text 293 257 RMS/Peak;
#X text 305 476 Make-up gain;
#X text 314 117 RMS/Peak;
#X text 314 130 selector;
#X text 516 28 initialise controls;
#X text 513 113 send controls to UI;
#X text 454 369 Convert dB FS;
#X text 454 380 to Pd dB scale;
#X text 454 392 and then linear;
#X text 454 403 amplitude.;
#X text 576 319 inverse of ratio;
#X text 648 292 convert ms to frequency;
#X text 675 231 convert dBFS scale to Pd dB scale;
#X text 747 203 RMS/peak selection;
#X text 809 180 lookahead value in ms;
#X text 732 138 route incoming data;
#X text 454 472 Varun Nair;
#X text 454 485 2013;
#X text 455 498 re-sounding.com;
#X text 456 511 @ntkeep;
#X obj 720 345 inlet;
#X obj 720 382 switch~;
#X obj 613 183 + 100;
#X msg 456 55 threshold -2 \, ratio 1000 \, response 40 \, gain -1.2 \, rmspeak 0 \, lookahead 3;
#X connect 1 0 2 0;
#X connect 2 0 0 0;
#X connect 3 0 34 0;
#X connect 4 0 11 0;
#X connect 5 0 12 0;
#X connect 6 0 5 0;
#X connect 6 1 5 1;
#X connect 7 0 33 0;
#X connect 8 0 7 0;
#X connect 8 1 7 1;
#X connect 9 0 1 1;
#X connect 10 0 9 0;
#X connect 13 0 2 1;
#X connect 14 0 13 0;
#X connect 15 0 14 0;
#X connect 17 0 10 0;
#X connect 18 0 10 0;
#X connect 19 0 17 1;
#X connect 20 0 19 0;
#X connect 20 1 18 1;
#X connect 21 0 3 0;
#X connect 21 0 17 0;
#X connect 21 0 18 0;
#X connect 22 0 20 0;
#X connect 25 0 34 1;
#X connect 26 0 30 0;
#X connect 26 1 6 0;
#X connect 26 2 8 0;
#X connect 26 3 67 0;
#X connect 26 4 23 0;
#X connect 26 5 24 0;
#X connect 27 0 68 0;
#X connect 28 0 26 0;
#X connect 28 1 29 0;
#X connect 30 0 4 0;
#X connect 31 0 16 0;
#X connect 32 0 9 1;
#X connect 34 0 1 0;
#X connect 65 0 66 0;
#X connect 67 0 31 0;
#X connect 68 0 28 0;
#X restore 438 352 pd limit;
#N canvas 647 444 504 477 vu-meter 0;
#X obj 162 277 abs~;
#X obj 162 327 snapshot~;
#X obj 162 364 rmstodb;
#X obj 162 385 - 100;
#X obj 162 443 outlet;
#X obj 228 247 expr 1000 / $f1;
#X floatatom 228 275 5 0 0 1 Hz - - 0;
#X obj 162 299 slop~ 0 0 0 0 1e+09;
#X floatatom 228 222 5 0 0 0 - - - 0;
#X text 328 247 convert to hz;
#X text 262 222 peak decay time in ms;
#X obj 27 263 t f b;
#X text 286 275 The slop~ object is used here for peak detection. We need to convert the output to dB with rmstodb and also subtract by 100 to convert it to dBFS., f 31;
#X text 287 342 Copy from PD documentation;
#X obj 109 16 loadbang;
#X floatatom 70 211 5 0 0 0 - - - 0;
#X obj 70 182 max;
#X msg 83 124 0;
#X obj 27 328 - 100;
#X obj 70 238 - 100;
#X obj 27 159 env~ 1024;
#X obj 27 419 pack f f;
#X obj 27 445 outlet;
#X obj 27 54 inlet~;
#X msg 228 193 500;
#X obj 109 39 t b b b;
#X text 284 426 (c) 2023 AChim Bornhoeft;
#N canvas 535 70 763 564 peak-meter 0;
#X floatatom 217 132 5 0 50 0 - \$0-decay-speed-init - 0;
#N canvas 392 300 639 450 generate-test 0;
#X obj 45 196 osc~ 440;
#X msg 98 166 -0.25;
#X obj 165 239 *~;
#X obj 147 270 *~;
#X obj 147 395 outlet~;
#X obj 165 153 f;
#X msg 165 178 1 \, 0 \$1;
#X obj 338 87 loadbang;
#X obj 383 157 s \$0-decay-speed-init;
#X msg 338 127 30;
#X obj 97 78 metro 500;
#X obj 97 25 inlet;
#X msg 383 127 500;
#X obj 183 25 inlet;
#X obj 165 204 line~;
#X obj 338 187 s \$0-pulse-length-init;
#X obj 253 25 inlet;
#X obj 253 243 pow 4;
#X obj 253 294 line~;
#X msg 253 268 \$1 10;
#X obj 235 321 *~;
#X obj 235 352 dac~;
#X connect 0 0 3 0;
#X connect 1 0 0 1;
#X connect 2 0 3 1;
#X connect 3 0 4 0;
#X connect 3 0 20 0;
#X connect 5 0 6 0;
#X connect 6 0 14 0;
#X connect 7 0 9 0;
#X connect 7 0 12 0;
#X connect 9 0 15 0;
#X connect 10 0 5 0;
#X connect 10 0 1 0;
#X connect 11 0 10 0;
#X connect 12 0 8 0;
#X connect 13 0 5 1;
#X connect 14 0 2 0;
#X connect 14 0 2 1;
#X connect 16 0 17 0;
#X connect 17 0 19 0;
#X connect 18 0 20 1;
#X connect 19 0 18 0;
#X connect 20 0 21 0;
#X connect 20 0 21 1;
#X restore 47 101 pd generate-test;
#X text 365 155 Envelope follower for use in peak metering;
#X text 314 467 See the HTML documentation (link on main page of this patch) for more details., f 54;
#X floatatom 101 63 5 1 100 2 pulse-length \$0-pulse-length-init - 0;
#X obj 47 214 env~ 1024;
#X obj 139 183 abs~;
#X obj 139 248 snapshot~;
#X obj 139 281 rmstodb;
#X obj 127 347 vu 18 160 empty VU -20 20 0 12 #404040 #000000 1 0;
#X obj 139 213 slop~ 0 0 0 0 1e+09;
#X obj 47 248 t f b;
#X obj 47 289 - 100;
#X obj 139 306 - 100;
#X obj 47 24 tgl 19 0 empty empty empty 17 7 0 10 #dcdcdc #000000 #000000 0 1;
#X obj 217 156 expr 1000 / $f1;
#X text 197 132 ms;
#X text 215 109 decay speed;
#X floatatom 217 182 5 0 0 0 - - - 0;
#X text 197 183 hz;
#X obj 159 72 hsl 128 19 0 1 0 0 empty empty empty 32 9 0 12 #dcdcdc #000000 #000000 0 1;
#X text 314 204 A slew limiter can be used as a fast-rising envelope follower \, useful for example in peak metering. In this example a short burst of sound is metered using both the [env~] follower (which measures an average over a time window) and a fast-rising envelope follower consisting of an [abs~] object (to rectify the signal) followed by a [slop~] object set to rise quickly (1e09 asymptotic rise speed \, 0 up-slew needed to engage it) and with controllable decay (asymptotic downward speed controlled by a number box). There is no linear region at all so the linear cutoff frequency has no effect., f 54;
#X text 314 368 The output is sampled using a [snapshot~] object. Both envelope followers are converted to dBFS for the IEM VU meter., f 54;
#X text 314 420 When the pulse is very short (1 msec \, for instance) the RMS meter acts badly but the [slop~]-driven one still shows the peak., f 54;
#X text 198 73 Volume;
#X text 71 23 <- turn on test pulse;
#X text 35 421 see also ->;
#X connect 0 0 15 0;
#X connect 1 0 5 0;
#X connect 1 0 6 0;
#X connect 4 0 1 1;
#X connect 5 0 11 0;
#X connect 6 0 10 0;
#X connect 7 0 8 0;
#X connect 8 0 13 0;
#X connect 10 0 7 0;
#X connect 11 0 12 0;
#X connect 11 1 7 0;
#X connect 12 0 9 0;
#X connect 13 0 9 1;
#X connect 14 0 1 0;
#X connect 15 0 18 0;
#X connect 18 0 10 3;
#X connect 20 0 1 2;
#X restore 288 362 pd peak-meter;
#X obj 81 328 r \$0-switch;
#X obj 81 349 sel 0;
#X msg 81 370 -100 -100;
#X msg 128 75 4000;
#X obj 83 101 metro;
#X connect 0 0 7 0;
#X connect 1 0 2 0;
#X connect 2 0 3 0;
#X connect 3 0 4 0;
#X connect 5 0 6 0;
#X connect 6 0 7 3;
#X connect 7 0 1 0;
#X connect 8 0 5 0;
#X connect 11 0 18 0;
#X connect 11 1 1 0;
#X connect 14 0 25 0;
#X connect 15 0 16 1;
#X connect 15 0 19 0;
#X connect 16 0 15 0;
#X connect 17 0 16 1;
#X connect 18 0 21 0;
#X connect 19 0 21 1;
#X connect 20 0 16 0;
#X connect 20 0 11 0;
#X connect 21 0 22 0;
#X connect 23 0 20 0;
#X connect 23 0 0 0;
#X connect 24 0 8 0;
#X connect 25 0 32 0;
#X connect 25 1 31 0;
#X connect 25 2 24 0;
#X connect 28 0 29 0;
#X connect 29 0 30 0;
#X connect 30 0 21 0;
#X connect 31 0 32 1;
#X connect 32 0 17 0;
#X restore 420 454 pd vu-meter;
#X obj 249 252 hip~ 1;
#X obj 25 262 loadbang;
#X floatatom 24 328 5 0 1 0 - - - 0;
#X obj 25 308 * 2;
#X obj 25 284 f \$3;
#X obj 24 377 s \$0-input~;
#X obj 114 378 namecanvas \$0-input~;
#X text 624 355 reset soundfile number to 1;
#X obj 627 338 s \$0-no1-in-r;
#X obj 627 372 r \$0-no1-in-s;
#X obj 10 26 cnv 16 150 180 empty empty empty 20 12 0 10 #9f9f9f #404040 0;
#X obj 47 58 vu 14 120 \$0-vu-in empty -12 -8 0 6 #000000 #000000 1 0;
#X obj 32 58 vsl 14 119 0 1.5 0 0 \$0-gain-r \$0-gain-s 0 5 132 0 10 #ffffff #ff0400 #000000 0 1;
#X obj 100 100 tgl 14 0 \$0-limiter-r \$0-limiter-s lim 0 22 0 10 #ffffff #00ff04 #000000 0 1;
#X obj 72 35 cnv 10 60 10 empty \$1-name \$2 0 5 0 12 #9f9f9f #000000 0;
#X obj 99 133 tgl 14 0 \$0-in-rec-s \$0-in-rec-r rec 0 20 0 10 #ffffff #ff0400 #000000 0 1;
#X obj 100 161 bng 14 250 50 0 \$0-no1-in-s \$0-no1-in-r res\ rec 0 20 0 10 #ffffff #ff0400 #000000;
#X obj 100 60 tgl 14 0 \$0-testtone-r \$0-testtone-s 440\ Hz 0 22 0 10 #ffffff #ff0400 #000000 0 1;
#X msg 446 82 0 100;
#X text 597 428 Input recording;
#X obj 286 510 outlet~;
#X obj 410 510 s~ \$1-pre;
#X text 472 507 to direct out (pre fader), f 15;
#X obj 425 275 pack \$1 150;
#X obj 425 296 line~;
#X obj 292 96 t f f;
#X obj 343 510 s~ \$1-le;
#X obj 250 24 r~ \$1-in;
#X obj 10 11 cnv 10 150 15 empty \$1-channel in\\\ \$1 55 8 0 11 #404040 #ffffff 0;
#X msg 24 352 donecanvasdialog 100 100 \$1 0 0 1 1 150 195 10 10 \, dirty 0;
#X connect 0 0 6 0;
#X connect 0 0 34 0;
#X connect 3 0 7 0;
#X connect 4 0 3 0;
#X connect 5 0 9 0;
#X connect 6 0 11 0;
#X connect 6 0 35 0;
#X connect 6 0 57 0;
#X connect 6 0 62 0;
#X connect 6 0 56 0;
#X connect 8 0 22 0;
#X connect 8 0 59 0;
#X connect 10 0 6 2;
#X connect 10 0 34 1;
#X connect 13 0 14 0;
#X connect 13 1 44 0;
#X connect 15 0 11 1;
#X connect 16 0 13 0;
#X connect 17 0 18 0;
#X connect 18 0 23 0;
#X connect 19 0 20 0;
#X connect 20 0 24 1;
#X connect 21 0 61 0;
#X connect 22 0 7 0;
#X connect 23 0 14 0;
#X connect 23 1 44 0;
#X connect 24 0 29 0;
#X connect 29 0 36 0;
#X connect 31 0 29 1;
#X connect 32 0 29 2;
#X connect 33 0 32 0;
#X connect 34 0 6 1;
#X connect 35 0 27 0;
#X connect 36 0 0 0;
#X connect 37 0 40 0;
#X connect 38 0 65 0;
#X connect 39 0 38 0;
#X connect 40 0 39 0;
#X connect 45 0 11 2;
#X connect 54 0 3 0;
#X connect 59 0 60 0;
#X connect 60 0 0 1;
#X connect 61 0 20 1;
#X connect 61 1 24 2;
#X connect 63 0 24 0;
#X connect 65 0 41 0;
#X coords 0 0 1 1 150 195 2 10 10;
