#N canvas 49 172 734 634 12;
#X declare -path abs;
#X declare -path abs;
#X obj 191 274 +~;
#X obj 208 167 osc~;
#X floatatom 85 172 5 0 0 0 - - - 0;
#X text 247 168 modulator;
#X text 121 203 carrier;
#X obj 85 203 sig~;
#N canvas 562 82 718 498 sub-synth 0;
#X obj 168 258 vcf~ 5000;
#X obj 325 280 /, f 4;
#X obj 237 232 line;
#X msg 237 208 \$1 30;
#X msg 325 358 \$1 30;
#X obj 299 166 t f f f;
#X obj 304 408 *~;
#X obj 324 309 + 4;
#X text 339 410 Amplification related to filter-Q;
#X text 64 23 Subtractive synthesis with different filter-Qs;
#X text 468 204 filter-Q ranged between 0 and 1;
#X text 446 227 curved transformation;
#X text 466 251 range between 1 and 12;
#X text 366 333 add additional offset;
#X obj 447 23 declare -path abs;
#X obj 325 383 line;
#X floatatom 324 334 5 0 0 0 - - - 0;
#X floatatom 299 139 5 0 0 0 - - - 0;
#X obj 349 202 range 1 5000 0 1;
#X obj 350 226 curved -0.12;
#X obj 350 249 range 0 1 1 12;
#X obj 304 441 outlet~;
#X obj 196 116 inlet~;
#X obj 299 108 r \$2-noise-q;
#X obj 402 109 inlet;
#X obj 168 147 noise~;
#X connect 0 0 6 0;
#X connect 1 0 7 0;
#X connect 2 0 0 2;
#X connect 3 0 2 0;
#X connect 4 0 15 0;
#X connect 5 0 3 0;
#X connect 5 1 1 0;
#X connect 5 2 18 0;
#X connect 6 0 21 0;
#X connect 7 0 16 0;
#X connect 15 0 6 1;
#X connect 16 0 4 0;
#X connect 17 0 5 0;
#X connect 18 0 19 0;
#X connect 19 0 20 0;
#X connect 20 0 1 1;
#X connect 22 0 0 1;
#X connect 23 0 17 0;
#X connect 24 0 17 0;
#X connect 25 0 0 0;
#X restore 191 312 pd sub-synth;
#X obj 190 352 rev2~ 100 90 1000 10;
#X floatatom 270 275 5 100 5000 0 - - - 0;
#X msg 86 141 300;
#X msg 206 109 800, f 4;
#X obj 190 62 loadbang;
#X obj 208 220 *~ 7;
#X floatatom 233 197 5 0 0 0 - - - 0;
#X msg 264 141 100, f 4;
#X msg 270 248 200;
#X floatatom 208 140 5 0 0 0 - - - 0;
#X obj 71 384 osc~;
#N canvas 221 97 388 528 eq-pwr-mix 0;
#X obj 84 293 *~;
#X obj 140 283 *~;
#X obj 158 200 line~;
#X obj 158 228 cos~;
#X obj 102 198 line~;
#X obj 102 226 cos~;
#X obj 101 172 pack;
#X obj 97 84 t f b;
#X msg 126 144 10;
#X obj 158 173 pack;
#X msg 183 145 10;
#X obj 158 115 - 0.25;
#X obj 158 83 t f b;
#X obj 158 53 / 4;
#X obj 84 252 inlet~;
#X obj 140 253 inlet~;
#X obj 158 25 inlet;
#X obj 84 326 outlet~;
#X obj 158 314 env~;
#X floatatom 157 340 5 0 0 0 - - - 0;
#X obj 38 333 env~;
#X floatatom 37 359 5 0 0 0 - - - 0;
#X connect 0 0 17 0;
#X connect 0 0 20 0;
#X connect 1 0 17 0;
#X connect 1 0 18 0;
#X connect 2 0 3 0;
#X connect 3 0 1 1;
#X connect 4 0 5 0;
#X connect 5 0 0 1;
#X connect 6 0 4 0;
#X connect 7 0 6 0;
#X connect 7 1 8 0;
#X connect 8 0 6 1;
#X connect 9 0 2 0;
#X connect 10 0 9 1;
#X connect 11 0 9 0;
#X connect 12 0 11 0;
#X connect 12 1 10 0;
#X connect 13 0 7 0;
#X connect 13 0 12 0;
#X connect 14 0 0 0;
#X connect 15 0 1 0;
#X connect 16 0 13 0;
#X connect 18 0 19 0;
#X connect 20 0 21 0;
#X restore 71 427 pd eq-pwr-mix;
#X f 26;
#X obj 253 392 hsl 128 15 0 1 0 0 empty empty empty -2 -8 0 10 #fcfcfc #000000 #000000 0 1;
#N canvas 562 82 718 498 sub-synth 0;
#X obj 168 258 vcf~ 5000;
#X obj 325 280 /, f 4;
#X obj 237 232 line;
#X msg 237 208 \$1 30;
#X msg 325 358 \$1 30;
#X obj 299 166 t f f f;
#X obj 304 408 *~;
#X obj 324 309 + 4;
#X text 339 410 Amplification related to filter-Q;
#X text 64 23 Subtractive synthesis with different filter-Qs;
#X text 468 204 filter-Q ranged between 0 and 1;
#X text 446 227 curved transformation;
#X text 466 251 range between 1 and 12;
#X text 366 333 add additional offset;
#X obj 447 23 declare -path abs;
#X obj 325 383 line;
#X floatatom 324 334 5 0 0 0 - - - 0;
#X floatatom 299 139 5 0 0 0 - - - 0;
#X obj 349 202 range 1 5000 0 1;
#X obj 350 226 curved -0.12;
#X obj 350 249 range 0 1 1 12;
#X obj 304 441 outlet~;
#X obj 196 116 inlet~;
#X obj 299 108 r \$2-noise-q;
#X obj 402 109 inlet;
#X obj 168 147 noise~;
#X connect 0 0 6 0;
#X connect 1 0 7 0;
#X connect 2 0 0 2;
#X connect 3 0 2 0;
#X connect 4 0 15 0;
#X connect 5 0 3 0;
#X connect 5 1 1 0;
#X connect 5 2 18 0;
#X connect 6 0 21 0;
#X connect 7 0 16 0;
#X connect 15 0 6 1;
#X connect 16 0 4 0;
#X connect 17 0 5 0;
#X connect 18 0 19 0;
#X connect 19 0 20 0;
#X connect 20 0 1 1;
#X connect 22 0 0 1;
#X connect 23 0 17 0;
#X connect 24 0 17 0;
#X connect 25 0 0 0;
#X restore 530 361 pd sub-synth;
#X obj 529 401 rev2~ 100 90 1000 10;
#X obj 410 433 osc~;
#N canvas 221 97 388 528 eq-pwr-mix 0;
#X obj 84 293 *~;
#X obj 140 283 *~;
#X obj 158 200 line~;
#X obj 158 228 cos~;
#X obj 102 198 line~;
#X obj 102 226 cos~;
#X obj 101 172 pack;
#X obj 97 84 t f b;
#X msg 126 144 10;
#X obj 158 173 pack;
#X msg 183 145 10;
#X obj 158 115 - 0.25;
#X obj 158 83 t f b;
#X obj 158 53 / 4;
#X obj 84 252 inlet~;
#X obj 140 253 inlet~;
#X obj 158 25 inlet;
#X obj 84 326 outlet~;
#X obj 158 314 env~;
#X floatatom 157 340 5 0 0 0 - - - 0;
#X obj 38 333 env~;
#X floatatom 37 359 5 0 0 0 - - - 0;
#X connect 0 0 17 0;
#X connect 0 0 20 0;
#X connect 1 0 17 0;
#X connect 1 0 18 0;
#X connect 2 0 3 0;
#X connect 3 0 1 1;
#X connect 4 0 5 0;
#X connect 5 0 0 1;
#X connect 6 0 4 0;
#X connect 7 0 6 0;
#X connect 7 1 8 0;
#X connect 8 0 6 1;
#X connect 9 0 2 0;
#X connect 10 0 9 1;
#X connect 11 0 9 0;
#X connect 12 0 11 0;
#X connect 12 1 10 0;
#X connect 13 0 7 0;
#X connect 13 0 12 0;
#X connect 14 0 0 0;
#X connect 15 0 1 0;
#X connect 16 0 13 0;
#X connect 18 0 19 0;
#X connect 20 0 21 0;
#X restore 410 476 pd eq-pwr-mix;
#X f 26;
#X obj 592 441 hsl 128 15 0 1 0 0 empty empty empty -2 -8 0 10 #fcfcfc #000000 #000000 0 1;
#X obj 421 384 +~ 2;
#X obj 153 60 bng 19 250 50 0 empty empty empty 0 -10 0 12 #fcfcfc #000000 #000000;
#X obj 353 580 dac~ 2;
#X obj 70 573 dac~ 1;
#X obj 236 477 tgl 19 0 empty empty empty 0 -10 0 12 #fcfcfc #000000 #000000 0 1;
#X obj 354 531 *~ 0.3;
#X obj 69 511 *~ 0.3;
#X connect 0 0 6 0;
#X connect 0 0 17 0;
#X connect 0 0 25 0;
#X connect 1 0 12 0;
#X connect 2 0 5 0;
#X connect 5 0 0 0;
#X connect 6 0 7 0;
#X connect 7 0 18 1;
#X connect 8 0 6 1;
#X connect 8 0 20 1;
#X connect 9 0 2 0;
#X connect 10 0 16 0;
#X connect 11 0 9 0;
#X connect 11 0 10 0;
#X connect 11 0 15 0;
#X connect 11 0 14 0;
#X connect 12 0 0 1;
#X connect 13 0 12 1;
#X connect 14 0 13 0;
#X connect 15 0 8 0;
#X connect 16 0 1 0;
#X connect 17 0 18 0;
#X connect 18 0 31 0;
#X connect 19 0 18 2;
#X connect 20 0 21 0;
#X connect 21 0 23 1;
#X connect 22 0 23 0;
#X connect 23 0 30 0;
#X connect 24 0 23 2;
#X connect 25 0 20 0;
#X connect 25 0 22 0;
#X connect 26 0 9 0;
#X connect 26 0 10 0;
#X connect 26 0 14 0;
#X connect 26 0 15 0;
#X connect 29 0 31 1;
#X connect 29 0 30 1;
#X connect 30 0 27 0;
#X connect 31 0 28 0;
