#N canvas 357 114 881 743 12;
#X declare -path abs;
#X floatatom 68 265 5 0 0 1 freq - - 0;
#X obj 174 505 +~;
#X obj 191 451 *~;
#X obj 191 398 osc~;
#X floatatom 144 266 5 0 0 1 carPartial - - 0;
#X floatatom 261 267 5 0 0 1 modPartial - - 0;
#X floatatom 374 265 5 0 0 1 index - - 0;
#X floatatom 462 265 5 0 0 1 lfo-freq - - 0;
#X obj 191 345 *;
#X obj 261 290 t b f;
#N canvas 324 349 502 110 credits 0;
#X text 43 36 (c) 2024 Achim Bornhoeft Modelled after Mark Polishook's Supercollider Tutorial: 18_Frequency_modulation;
#X restore 240 34 pd credits;
#X text 72 34 Frequency modulator;
#X floatatom 191 371 5 0 0 0 - - - 0;
#N canvas 382 407 507 451 LFNoise 0;
#X obj 45 83 inlet;
#X floatatom 45 133 5 0 0 0 - - - 0;
#X obj 45 210 metro;
#X obj 45 348 pack f f, f 11;
#X obj 45 298 / 100;
#X floatatom 45 322 5 0 0 0 - - - 0;
#X obj 45 239 bng 19 250 50 0 empty empty empty 0 -10 0 12 #fcfcfc #000000 #000000;
#X obj 45 156 t b f;
#X msg 45 182 1;
#X text 127 268 values 0 - 100;
#X obj 45 268 random 101;
#X text 93 297 values 0 - 1;
#X text 45 25 Generates linearly interpolated random values between 0 and 1 at a rate in seconds;
#X obj 45 109 expr 1000 * $f1;
#X obj 45 372 vline~;
#X obj 45 400 outlet~;
#X connect 0 0 13 0;
#X connect 1 0 7 0;
#X connect 2 0 6 0;
#X connect 3 0 14 0;
#X connect 4 0 5 0;
#X connect 5 0 3 0;
#X connect 6 0 10 0;
#X connect 7 0 8 0;
#X connect 7 1 2 1;
#X connect 7 1 3 1;
#X connect 8 0 2 0;
#X connect 10 0 4 0;
#X connect 13 0 1 0;
#X connect 14 0 15 0;
#X restore 462 293 pd LFNoise;
#X obj 444 348 *~;
#X obj 375 310 sig~;
#X obj 305 357 sig~;
#X obj 305 402 *~, f 6;
#X obj 144 292 t b f;
#X obj 68 379 *;
#X floatatom 68 403 5 0 0 0 - - - 0;
#X text 230 399 modulator;
#X text 104 434 carrier;
#X obj 68 434 sig~;
#X obj 255 85 inlet;
#X obj 173 658 *~;
#X obj 174 540 osc~;
#N canvas 221 97 388 528 eq-pwr-mix 0;
#X obj 84 293 *~;
#X obj 140 283 *~;
#X obj 158 200 line~;
#X obj 158 228 cos~;
#X obj 102 198 line~;
#X obj 102 226 cos~;
#X obj 101 172 pack;
#X obj 97 84 t f b;
#X msg 126 144 10;
#X obj 158 173 pack;
#X msg 183 145 10;
#X obj 158 115 - 0.25;
#X obj 158 83 t f b;
#X obj 158 53 / 4;
#X obj 84 252 inlet~;
#X obj 140 253 inlet~;
#X obj 158 25 inlet;
#X obj 84 326 outlet~;
#X obj 158 314 env~;
#X floatatom 157 340 5 0 0 0 - - - 0;
#X obj 38 333 env~;
#X floatatom 37 359 5 0 0 0 - - - 0;
#X connect 0 0 17 0;
#X connect 0 0 20 0;
#X connect 1 0 17 0;
#X connect 1 0 18 0;
#X connect 2 0 3 0;
#X connect 3 0 1 1;
#X connect 4 0 5 0;
#X connect 5 0 0 1;
#X connect 6 0 4 0;
#X connect 7 0 6 0;
#X connect 7 1 8 0;
#X connect 8 0 6 1;
#X connect 9 0 2 0;
#X connect 10 0 9 1;
#X connect 11 0 9 0;
#X connect 12 0 11 0;
#X connect 12 1 10 0;
#X connect 13 0 7 0;
#X connect 13 0 12 0;
#X connect 14 0 0 0;
#X connect 15 0 1 0;
#X connect 16 0 13 0;
#X connect 18 0 19 0;
#X connect 20 0 21 0;
#X restore 173 615 pd eq-pwr-mix;
#X f 26;
#X obj 406 539 hsl 128 15 0 1 0 0 empty empty empty -2 -8 0 10 #fcfcfc #000000 #000000 0 1;
#N canvas 567 257 718 498 sub-synth 0;
#X obj 168 258 vcf~ 5000;
#X obj 325 280 /, f 4;
#X obj 237 232 line;
#X msg 237 208 \$1 30;
#X msg 325 358 \$1 30;
#X obj 299 166 t f f f;
#X obj 304 408 *~;
#X obj 324 309 + 4;
#X text 339 410 Amplification related to filter-Q;
#X text 64 23 Subtractive synthesis with different filter-Qs;
#X text 468 204 filter-Q ranged between 0 and 1;
#X text 446 227 curved transformation;
#X text 466 251 range between 1 and 12;
#X text 366 333 add additional offset;
#X obj 447 23 declare -path abs;
#X obj 325 383 line;
#X floatatom 324 334 5 0 0 0 - - - 0;
#X floatatom 299 139 5 0 0 0 - - - 0;
#X obj 349 202 range 1 5000 0 1;
#X obj 350 226 curved -0.12;
#X obj 350 249 range 0 1 1 12;
#X obj 304 441 outlet~;
#X obj 196 116 inlet~;
#X obj 299 108 r \$2-noise-q;
#X obj 302 79 inlet;
#X obj 168 147 noise~;
#X connect 0 0 6 0;
#X connect 1 0 7 0;
#X connect 2 0 0 2;
#X connect 3 0 2 0;
#X connect 4 0 15 0;
#X connect 5 0 3 0;
#X connect 5 1 1 0;
#X connect 5 2 18 0;
#X connect 6 0 21 0;
#X connect 7 0 16 0;
#X connect 15 0 6 1;
#X connect 16 0 4 0;
#X connect 17 0 5 0;
#X connect 18 0 19 0;
#X connect 19 0 20 0;
#X connect 20 0 1 1;
#X connect 22 0 0 1;
#X connect 23 0 17 0;
#X connect 24 0 17 0;
#X connect 25 0 0 0;
#X restore 262 535 pd sub-synth;
#X obj 404 511 r \$2-synth-mix;
#N canvas 1038 260 349 600 env-param 0;
#X obj 29 19 inlet;
#X obj 26 554 outlet;
#X floatatom 76 144 5 0 0 0 - - - 0;
#X obj 76 119 + 2;
#X obj 76 95 random 2;
#X obj 75 230 /;
#X floatatom 75 255 5 0 0 0 - - - 0;
#X floatatom 52 344 7 0 0 0 - - - 0;
#X obj 53 286 *;
#X obj 30 374 -;
#X listbox 26 526 13 0 0 0 - - - 0;
#X obj 52 316 int;
#X floatatom 29 405 5 0 0 0 - - - 0;
#X obj 28 434 t b f;
#X obj 27 472 f;
#X obj 76 174 t b f;
#X msg 75 200 1;
#X obj 26 499 pack f f;
#X text 111 340 fade-in randomly between 1/2 and 1/3 of the duration, f 27;
#X text 73 404 fade-out: rest of the duration;
#X obj 30 49 t f f b;
#X connect 0 0 20 0;
#X connect 2 0 15 0;
#X connect 3 0 2 0;
#X connect 4 0 3 0;
#X connect 5 0 6 0;
#X connect 6 0 8 1;
#X connect 7 0 9 1;
#X connect 7 0 14 1;
#X connect 8 0 11 0;
#X connect 9 0 12 0;
#X connect 10 0 1 0;
#X connect 11 0 7 0;
#X connect 12 0 13 0;
#X connect 13 0 14 0;
#X connect 13 1 17 1;
#X connect 14 0 17 0;
#X connect 15 0 16 0;
#X connect 15 1 5 1;
#X connect 16 0 5 0;
#X connect 17 0 10 0;
#X connect 20 0 9 0;
#X connect 20 1 8 0;
#X connect 20 2 4 0;
#X restore 596 284 pd env-param;
#X obj 596 338 exp-env~ 2;
#X msg 629 223 0 500;
#X obj 628 198 r fadeout-env;
#X obj 618 432 metro 10;
#X obj 618 456 snapshot~;
#X floatatom 618 480 5 0 0 0 - - - 0;
#X obj 618 400 tgl 19 0 empty empty empty 0 -10 0 12 #fcfcfc #000000 #000000 0 1;
#X obj 621 514 hsl 162 19 0 1 0 0 empty empty empty -2 -10 0 12 #fcfcfc #000000 #000000 0 1;
#X obj 618 369 r init;
#X obj 663 308 r \$2-env-curve;
#X floatatom 596 257 10 0 0 0 - - - 0;
#X text 627 145 fade-out when automatic qlist is stopped, f 15;
#X obj 170 699 dac~;
#X obj 255 112 unpack f f f f f f f;
#X obj 263 501 +~;
#X obj 263 571 rev2~ 100 90 3000 20;
#X msg 365 57 300 1 2.67 3 7 20000 200;
#X connect 0 0 8 0;
#X connect 0 0 19 0;
#X connect 0 0 16 0;
#X connect 1 0 26 0;
#X connect 2 0 1 1;
#X connect 3 0 2 0;
#X connect 4 0 18 0;
#X connect 5 0 9 0;
#X connect 6 0 15 0;
#X connect 7 0 13 0;
#X connect 8 0 12 0;
#X connect 9 0 8 0;
#X connect 9 1 8 1;
#X connect 12 0 3 0;
#X connect 13 0 14 1;
#X connect 14 0 17 1;
#X connect 14 0 46 1;
#X connect 15 0 14 0;
#X connect 16 0 17 0;
#X connect 17 0 2 1;
#X connect 18 0 19 0;
#X connect 18 1 19 1;
#X connect 19 0 20 0;
#X connect 20 0 23 0;
#X connect 23 0 1 0;
#X connect 23 0 46 0;
#X connect 24 0 45 0;
#X connect 25 0 44 0;
#X connect 25 0 44 1;
#X connect 26 0 27 0;
#X connect 27 0 25 0;
#X connect 28 0 27 2;
#X connect 29 0 47 0;
#X connect 30 0 28 0;
#X connect 31 0 32 0;
#X connect 32 0 25 1;
#X connect 32 0 36 0;
#X connect 33 0 32 1;
#X connect 34 0 33 0;
#X connect 35 0 36 0;
#X connect 36 0 37 0;
#X connect 37 0 39 0;
#X connect 38 0 35 0;
#X connect 40 0 38 0;
#X connect 41 0 32 2;
#X connect 42 0 31 0;
#X connect 45 0 0 0;
#X connect 45 1 4 0;
#X connect 45 2 5 0;
#X connect 45 3 6 0;
#X connect 45 4 7 0;
#X connect 45 5 42 0;
#X connect 45 6 29 1;
#X connect 46 0 29 0;
#X connect 47 0 27 1;
#X connect 47 1 27 1;
#X connect 48 0 45 0;
