#N canvas 417 310 750 575 10;
#X obj 50 87 adc~ 1;
#X obj 67 108 adc~ 2;
#X obj 82 128 adc~ 3;
#X obj 99 149 adc~ 4;
#X obj 115 168 adc~ 5;
#X obj 132 191 adc~ 6;
#X obj 148 213 adc~ 7;
#X obj 165 234 adc~ 8;
#X obj 50 257 8in-out~ \$0 in;
#X text 48 42 rows top-to-bottom correspond to the microphone inputs 1-8;
#X text 48 60 columns left-to-right correspond to the patch inputs 1-8.;
#X text 49 21 8 x 8 hardware input matrix;
#X obj 115 444 s~ 5-in;
#X obj 100 465 s~ 4-in;
#X obj 82 485 s~ 3-in;
#X obj 66 505 s~ 2-in;
#X obj 50 526 s~ 1-in;
#X obj 249 401 s in-chans;
#X msg 331 202 0 0 0 \, 0 0 1 \, 0 0 2 \, 0 0 3 \, 0 0 4 \, 0 0 5 \, 0 0 6 \, 0 0 7 \, 0 1 0 \, 0 1 1 \, 0 1 2 \, 0 1 3 \, 0 1 4 \, 0 1 5 \, 0 1 6 \, 0 1 7 \, 0 2 0 \, 0 2 1 \, 0 2 2 \, 0 2 3 \, 0 2 4 \, 0 2 5 \, 0 2 6 \, 0 2 7 \, 0 3 0 \, 0 3 1 \, 0 3 2 \, 0 3 3 \, 0 3 4 \, 0 3 5 \, 0 3 6 \, 0 3 7 \, 0 4 0 \, 0 4 1 \, 0 4 2 \, 0 4 3 \, 0 4 4 \, 0 4 5 \, 0 4 6 \, 0 4 7 \, 0 5 0 \, 0 5 1 \, 0 5 2 \, 0 5 3 \, 0 5 4 \, 0 5 5 \, 0 5 6 \, 0 5 7 \, 0 6 0 \, 0 6 1 \, 0 6 2 \, 0 6 3 \, 0 6 4 \, 0 6 5 \, 0 6 6 \, 0 6 7 \, 0 7 0 \, 0 7 1 \, 0 7 2 \, 0 7 3 \, 0 7 4 \, 0 7 5 \, 0 7 6 \, 0 7 7 \;;
#X obj 249 172 t f b;
#X obj 249 140 inlet;
#X msg 249 327 1 0 0 \, 1 1 1 \, 1 2 2 \, 1 3 3 \, 1 4 4 \, 1 5 5 \, 1 6 6 \, 1 7 7 \;;
#X text 312 304 One microphone per instrument;
#X obj 132 422 s~ 6-in;
#X obj 148 402 s~ 7-in;
#X obj 165 383 s~ 8-in;
#X text 247 96 SETUPS FOR CONNECTING MICROPHONES TO THE AUDIO-CARD:;
#X obj 249 226 sel 0 1;
#X connect 0 0 8 0;
#X connect 1 0 8 1;
#X connect 2 0 8 2;
#X connect 3 0 8 3;
#X connect 4 0 8 4;
#X connect 5 0 8 5;
#X connect 6 0 8 6;
#X connect 7 0 8 7;
#X connect 8 0 16 0;
#X connect 8 1 15 0;
#X connect 8 2 14 0;
#X connect 8 3 13 0;
#X connect 8 4 12 0;
#X connect 8 5 23 0;
#X connect 8 6 24 0;
#X connect 8 7 25 0;
#X connect 18 0 17 0;
#X connect 19 0 27 0;
#X connect 19 1 18 0;
#X connect 20 0 19 0;
#X connect 21 0 17 0;
#X connect 27 0 21 0;
#X connect 27 1 18 0;
