#N canvas 402 354 1309 722 10;
#X obj 182 53 inlet~;
#X obj 174 634 outlet~;
#X obj 174 582 catch~ \$1-L0;
#X obj 230 114 throw~ \$1-L0;
#X obj 322 637 outlet~;
#X obj 462 637 outlet~;
#X obj 602 637 outlet~;
#X obj 742 637 outlet~;
#X obj 882 637 outlet~;
#X obj 1022 637 outlet~;
#X obj 322 579 catch~ \$1-L1;
#X obj 462 580 catch~ \$1-L2;
#X obj 602 580 catch~ \$1-L3;
#X obj 742 580 catch~ \$1-L4;
#X obj 882 579 catch~ \$1-L5;
#X obj 1022 581 catch~ \$1-L6;
#X obj 1162 637 outlet~;
#X obj 1162 581 catch~ \$1-L7;
#X obj 228 175 throw~ \$1-L1;
#X obj 229 235 throw~ \$1-L2;
#X obj 230 295 throw~ \$1-L3;
#X obj 228 354 throw~ \$1-L4;
#X obj 228 414 throw~ \$1-L5;
#X obj 227 473 throw~ \$1-L6;
#X obj 228 535 throw~ \$1-L7;
#X obj 322 53 inlet~;
#X obj 370 113 throw~ \$1-L0;
#X obj 368 175 throw~ \$1-L1;
#X obj 369 235 throw~ \$1-L2;
#X obj 370 295 throw~ \$1-L3;
#X obj 368 354 throw~ \$1-L4;
#X obj 368 414 throw~ \$1-L5;
#X obj 367 473 throw~ \$1-L6;
#X obj 368 535 throw~ \$1-L7;
#X obj 464 52 inlet~;
#X obj 510 113 throw~ \$1-L0;
#X obj 508 175 throw~ \$1-L1;
#X obj 509 235 throw~ \$1-L2;
#X obj 510 295 throw~ \$1-L3;
#X obj 508 354 throw~ \$1-L4;
#X obj 508 414 throw~ \$1-L5;
#X obj 507 473 throw~ \$1-L6;
#X obj 508 535 throw~ \$1-L7;
#X obj 602 53 inlet~;
#X obj 650 113 throw~ \$1-L0;
#X obj 648 175 throw~ \$1-L1;
#X obj 649 235 throw~ \$1-L2;
#X obj 650 295 throw~ \$1-L3;
#X obj 648 354 throw~ \$1-L4;
#X obj 648 414 throw~ \$1-L5;
#X obj 647 473 throw~ \$1-L6;
#X obj 648 535 throw~ \$1-L7;
#X obj 742 53 inlet~;
#X obj 790 113 throw~ \$1-L0;
#X obj 788 175 throw~ \$1-L1;
#X obj 789 235 throw~ \$1-L2;
#X obj 790 295 throw~ \$1-L3;
#X obj 788 354 throw~ \$1-L4;
#X obj 788 414 throw~ \$1-L5;
#X obj 787 473 throw~ \$1-L6;
#X obj 788 535 throw~ \$1-L7;
#X obj 882 53 inlet~;
#X obj 930 113 throw~ \$1-L0;
#X obj 928 175 throw~ \$1-L1;
#X obj 929 235 throw~ \$1-L2;
#X obj 930 295 throw~ \$1-L3;
#X obj 928 354 throw~ \$1-L4;
#X obj 928 414 throw~ \$1-L5;
#X obj 927 473 throw~ \$1-L6;
#X obj 928 535 throw~ \$1-L7;
#X obj 1022 53 inlet~;
#X obj 1070 113 throw~ \$1-L0;
#X obj 1068 175 throw~ \$1-L1;
#X obj 1069 235 throw~ \$1-L2;
#X obj 1070 295 throw~ \$1-L3;
#X obj 1068 354 throw~ \$1-L4;
#X obj 1068 414 throw~ \$1-L5;
#X obj 1067 473 throw~ \$1-L6;
#X obj 1068 535 throw~ \$1-L7;
#X obj 1162 53 inlet~;
#X obj 1210 113 throw~ \$1-L0;
#X obj 1208 175 throw~ \$1-L1;
#X obj 1209 235 throw~ \$1-L2;
#X obj 1210 295 throw~ \$1-L3;
#X obj 1208 354 throw~ \$1-L4;
#X obj 1208 414 throw~ \$1-L5;
#X obj 1207 473 throw~ \$1-L6;
#X obj 1208 535 throw~ \$1-L7;
#X obj 182 81 route-switch~ \$1 0 0;
#X text 170 668 Original by Sumidero (January 2013) under GPL V3 license.
;
#N canvas 976 293 451 509 interaction 0;
#X obj 69 265 route bang;
#X obj 126 328 t b f;
#X obj 126 293 unpack f f f;
#X obj 126 427 pack f f f f;
#X obj 126 356 \$1;
#X msg 126 450 \; \$1-tgl-\$3\$4-r \$2;
#X obj 172 329 i;
#X obj 195 348 i;
#X obj 153 377 clip 0 1;
#X obj 69 240 pack f f f;
#X obj 69 134 tgl 30 0 empty empty empty 17 7 0 10 -262144 -1 -1 0
1;
#X floatatom 97 178 5 0 7 2 Row(input) - -, f 5;
#X floatatom 126 217 5 0 7 1 Column(output) - -, f 5;
#X msg 37 31 0 0 0 \, 0 1 1 \, 0 2 2 \, 0 3 3 \, 0 4 4 \, 0 5 5 \,
0 6 6 \, 0 7 7 \;;
#X msg 59 58 1 0 0 \, 1 1 1 \, 1 2 2 \, 1 3 3 \, 1 4 4 \, 1 5 5 \,
1 6 6 \, 1 7 7 \;;
#X obj 50 89 s \$1-chans;
#X obj 149 263 r \$1-chans;
#X connect 0 1 2 0;
#X connect 1 0 4 0;
#X connect 1 1 8 0;
#X connect 2 0 1 0;
#X connect 2 1 6 0;
#X connect 2 2 7 0;
#X connect 3 0 5 0;
#X connect 4 0 3 0;
#X connect 6 0 3 2;
#X connect 7 0 3 3;
#X connect 8 0 3 1;
#X connect 9 0 0 0;
#X connect 10 0 9 0;
#X connect 11 0 9 1;
#X connect 12 0 9 2;
#X connect 13 0 15 0;
#X connect 14 0 15 0;
#X connect 16 0 2 0;
#X restore 55 52 pd interaction;
#X obj 182 145 route-switch~ \$1 0 1;
#X obj 182 204 route-switch~ \$1 0 2;
#X obj 182 264 route-switch~ \$1 0 3;
#X obj 182 325 route-switch~ \$1 0 4;
#X obj 182 385 route-switch~ \$1 0 5;
#X obj 182 445 route-switch~ \$1 0 6;
#X obj 182 504 route-switch~ \$1 0 7;
#X obj 322 81 route-switch~ \$1 1 0;
#X obj 322 145 route-switch~ \$1 1 1;
#X obj 322 204 route-switch~ \$1 1 2;
#X obj 322 264 route-switch~ \$1 1 3;
#X obj 322 325 route-switch~ \$1 1 4;
#X obj 322 385 route-switch~ \$1 1 5;
#X obj 322 445 route-switch~ \$1 1 6;
#X obj 322 504 route-switch~ \$1 1 7;
#X obj 462 81 route-switch~ \$1 2 0;
#X obj 462 145 route-switch~ \$1 2 1;
#X obj 462 204 route-switch~ \$1 2 2;
#X obj 462 264 route-switch~ \$1 2 3;
#X obj 462 325 route-switch~ \$1 2 4;
#X obj 462 385 route-switch~ \$1 2 5;
#X obj 462 445 route-switch~ \$1 2 6;
#X obj 462 504 route-switch~ \$1 2 7;
#X obj 602 81 route-switch~ \$1 3 0;
#X obj 602 145 route-switch~ \$1 3 1;
#X obj 602 204 route-switch~ \$1 3 2;
#X obj 602 264 route-switch~ \$1 3 3;
#X obj 602 325 route-switch~ \$1 3 4;
#X obj 602 385 route-switch~ \$1 3 5;
#X obj 602 445 route-switch~ \$1 3 6;
#X obj 602 504 route-switch~ \$1 3 7;
#X obj 742 81 route-switch~ \$1 4 0;
#X obj 742 145 route-switch~ \$1 4 1;
#X obj 742 204 route-switch~ \$1 4 2;
#X obj 742 264 route-switch~ \$1 4 3;
#X obj 742 325 route-switch~ \$1 4 4;
#X obj 742 385 route-switch~ \$1 4 5;
#X obj 742 445 route-switch~ \$1 4 6;
#X obj 742 504 route-switch~ \$1 4 7;
#X obj 882 81 route-switch~ \$1 5 0;
#X obj 882 145 route-switch~ \$1 5 1;
#X obj 882 204 route-switch~ \$1 5 2;
#X obj 882 264 route-switch~ \$1 5 3;
#X obj 882 325 route-switch~ \$1 5 4;
#X obj 882 385 route-switch~ \$1 5 5;
#X obj 882 445 route-switch~ \$1 5 6;
#X obj 882 504 route-switch~ \$1 5 7;
#X obj 1022 81 route-switch~ \$1 6 0;
#X obj 1022 145 route-switch~ \$1 6 1;
#X obj 1022 204 route-switch~ \$1 6 2;
#X obj 1022 264 route-switch~ \$1 6 3;
#X obj 1022 325 route-switch~ \$1 6 4;
#X obj 1022 385 route-switch~ \$1 6 5;
#X obj 1022 445 route-switch~ \$1 6 6;
#X obj 1022 504 route-switch~ \$1 6 7;
#X obj 1162 81 route-switch~ \$1 7 0;
#X obj 1162 145 route-switch~ \$1 7 1;
#X obj 1162 204 route-switch~ \$1 7 2;
#X obj 1162 264 route-switch~ \$1 7 3;
#X obj 1162 325 route-switch~ \$1 7 4;
#X obj 1162 385 route-switch~ \$1 7 5;
#X obj 1162 445 route-switch~ \$1 7 6;
#X obj 1162 504 route-switch~ \$1 7 7;
#X text 229 25 row 1;
#X text 369 28 row 2;
#X connect 0 0 88 0;
#X connect 2 0 1 0;
#X connect 10 0 4 0;
#X connect 11 0 5 0;
#X connect 12 0 6 0;
#X connect 13 0 7 0;
#X connect 14 0 8 0;
#X connect 15 0 9 0;
#X connect 17 0 16 0;
#X connect 25 0 98 0;
#X connect 34 0 106 0;
#X connect 43 0 114 0;
#X connect 52 0 122 0;
#X connect 61 0 130 0;
#X connect 70 0 138 0;
#X connect 79 0 146 0;
#X connect 88 0 91 0;
#X connect 88 1 3 0;
#X connect 91 0 92 0;
#X connect 91 1 18 0;
#X connect 92 0 93 0;
#X connect 92 1 19 0;
#X connect 93 0 94 0;
#X connect 93 1 20 0;
#X connect 94 0 95 0;
#X connect 94 1 21 0;
#X connect 95 0 96 0;
#X connect 95 1 22 0;
#X connect 96 0 97 0;
#X connect 96 1 23 0;
#X connect 97 1 24 0;
#X connect 98 0 99 0;
#X connect 98 1 26 0;
#X connect 99 0 100 0;
#X connect 99 1 27 0;
#X connect 100 0 101 0;
#X connect 100 1 28 0;
#X connect 101 0 102 0;
#X connect 101 1 29 0;
#X connect 102 0 103 0;
#X connect 102 1 30 0;
#X connect 103 0 104 0;
#X connect 103 1 31 0;
#X connect 104 0 105 0;
#X connect 104 1 32 0;
#X connect 105 1 33 0;
#X connect 106 0 107 0;
#X connect 106 1 35 0;
#X connect 107 0 108 0;
#X connect 107 1 36 0;
#X connect 108 0 109 0;
#X connect 108 1 37 0;
#X connect 109 0 110 0;
#X connect 109 1 38 0;
#X connect 110 0 111 0;
#X connect 110 1 39 0;
#X connect 111 0 112 0;
#X connect 111 1 40 0;
#X connect 112 0 113 0;
#X connect 112 1 41 0;
#X connect 113 1 42 0;
#X connect 114 0 115 0;
#X connect 114 1 44 0;
#X connect 115 0 116 0;
#X connect 115 1 45 0;
#X connect 116 0 117 0;
#X connect 116 1 46 0;
#X connect 117 0 118 0;
#X connect 117 1 47 0;
#X connect 118 0 119 0;
#X connect 118 1 48 0;
#X connect 119 0 120 0;
#X connect 119 1 49 0;
#X connect 120 0 121 0;
#X connect 120 1 50 0;
#X connect 121 1 51 0;
#X connect 122 0 123 0;
#X connect 122 1 53 0;
#X connect 123 0 124 0;
#X connect 123 1 54 0;
#X connect 124 0 125 0;
#X connect 124 1 55 0;
#X connect 125 0 126 0;
#X connect 125 1 56 0;
#X connect 126 0 127 0;
#X connect 126 1 57 0;
#X connect 127 0 128 0;
#X connect 127 1 58 0;
#X connect 128 0 129 0;
#X connect 128 1 59 0;
#X connect 129 1 60 0;
#X connect 130 0 131 0;
#X connect 130 1 62 0;
#X connect 131 0 132 0;
#X connect 131 1 63 0;
#X connect 132 0 133 0;
#X connect 132 1 64 0;
#X connect 133 0 134 0;
#X connect 133 1 65 0;
#X connect 134 0 135 0;
#X connect 134 1 66 0;
#X connect 135 0 136 0;
#X connect 135 1 67 0;
#X connect 136 0 137 0;
#X connect 136 1 68 0;
#X connect 137 1 69 0;
#X connect 138 0 139 0;
#X connect 138 1 71 0;
#X connect 139 0 140 0;
#X connect 139 1 72 0;
#X connect 140 0 141 0;
#X connect 140 1 73 0;
#X connect 141 0 142 0;
#X connect 141 1 74 0;
#X connect 142 0 143 0;
#X connect 142 1 75 0;
#X connect 143 0 144 0;
#X connect 143 1 76 0;
#X connect 144 0 145 0;
#X connect 144 1 77 0;
#X connect 145 1 78 0;
#X connect 146 0 147 0;
#X connect 146 1 80 0;
#X connect 147 0 148 0;
#X connect 147 1 81 0;
#X connect 148 0 149 0;
#X connect 148 1 82 0;
#X connect 149 0 150 0;
#X connect 149 1 83 0;
#X connect 150 0 151 0;
#X connect 150 1 84 0;
#X connect 151 0 152 0;
#X connect 151 1 85 0;
#X connect 152 0 153 0;
#X connect 152 1 86 0;
#X connect 153 1 87 0;
#X coords 0 722 1 721 140 190 0;
