#N canvas 803 168 846 852 10;
#X obj 111 228 catch~ 5-out;
#X obj 128 251 catch~ 6-out;
#X obj 144 273 catch~ 7-out;
#X obj 161 294 catch~ 8-out;
#X text 43 36 rows top-to-bottom correspond to patch outputs 1-8;
#X text 43 54 columns left-to-right correspond to soundcard outputs 1-8.;
#X text 45 6 8 x 8 hardware output matrix;
#X obj 46 317 8in-out~ \$0 out;
#X msg 319 406 1 0 0 \, 1 1 1 \, 1 2 2 \, 1 3 3 \, 1 4 4 \, 1 5 5 \, 1 6 6 \, 1 7 7 \;;
#X obj 278 466 s out-chans;
#X obj 302 143 inlet;
#X msg 358 200 0 0 0 \, 0 0 1 \, 0 0 2 \, 0 0 3 \, 0 0 4 \, 0 0 5 \, 0 0 6 \, 0 0 7 \, 0 1 0 \, 0 1 1 \, 0 1 2 \, 0 1 3 \, 0 1 4 \, 0 1 5 \, 0 1 6 \, 0 1 7 \, 0 2 0 \, 0 2 1 \, 0 2 2 \, 0 2 3 \, 0 2 4 \, 0 2 5 \, 0 2 6 \, 0 2 7 \, 0 3 0 \, 0 3 1 \, 0 3 2 \, 0 3 3 \, 0 3 4 \, 0 3 5 \, 0 3 6 \, 0 3 7 \, 0 4 0 \, 0 4 1 \, 0 4 2 \, 0 4 3 \, 0 4 4 \, 0 4 5 \, 0 4 6 \, 0 4 7 \, 0 5 0 \, 0 5 1 \, 0 5 2 \, 0 5 3 \, 0 5 4 \, 0 5 5 \, 0 5 6 \, 0 5 7 \, 0 6 0 \, 0 6 1 \, 0 6 2 \, 0 6 3 \, 0 6 4 \, 0 6 5 \, 0 6 6 \, 0 6 7 \, 0 7 0 \, 0 7 1 \, 0 7 2 \, 0 7 3 \, 0 7 4 \, 0 7 5 \, 0 7 6 \, 0 7 7 \;;
#X obj 302 170 t f b;
#X msg 300 375 1 0 0 \, 1 1 1 \, 1 2 2 \, 1 3 3;
#X obj 161 450 hip~ 1;
#X obj 144 497 hip~ 1;
#X obj 128 539 hip~ 1;
#X obj 110 586 hip~ 1;
#X obj 93 627 hip~ 1;
#X obj 78 672 hip~ 1;
#X obj 61 717 hip~ 1;
#X obj 46 763 hip~ 1;
#X msg 264 320 1 0 0 \, 1 1 1 \, 1 2 1 \, 1 3 0;
#X obj 45 785 dac~ 1;
#X obj 61 740 dac~ 2;
#X obj 78 696 dac~ 3;
#X obj 94 650 dac~ 4;
#X obj 110 607 dac~ 5;
#X obj 128 565 dac~ 6;
#X obj 144 518 dac~ 7;
#X obj 161 474 dac~ 8;
#X obj 265 218 sel 0 1 2 3;
#X msg 284 345 1 0 0 \, 1 1 0 \, 1 2 1 \, 1 3 1 \, 1 4 1 \, 1 5 1 \, 1 6 0 \, 1 7 0;
#X obj 43 112 out~ 1;
#X obj 60 137 out~ 2;
#X obj 78 164 out~ 4;
#X obj 95 194 out~ 3;
#X connect 0 0 7 4;
#X connect 1 0 7 5;
#X connect 2 0 7 6;
#X connect 3 0 7 7;
#X connect 7 0 21 0;
#X connect 7 1 20 0;
#X connect 7 2 19 0;
#X connect 7 3 18 0;
#X connect 7 4 17 0;
#X connect 7 5 16 0;
#X connect 7 6 15 0;
#X connect 7 7 14 0;
#X connect 8 0 9 0;
#X connect 10 0 12 0;
#X connect 11 0 9 0;
#X connect 12 0 31 0;
#X connect 12 1 11 0;
#X connect 13 0 9 0;
#X connect 14 0 30 0;
#X connect 15 0 29 0;
#X connect 16 0 28 0;
#X connect 17 0 27 0;
#X connect 18 0 26 0;
#X connect 19 0 25 0;
#X connect 20 0 24 0;
#X connect 21 0 23 0;
#X connect 22 0 9 0;
#X connect 31 0 22 0;
#X connect 31 1 32 0;
#X connect 31 2 13 0;
#X connect 31 3 8 0;
#X connect 32 0 9 0;
#X connect 33 0 7 0;
#X connect 34 0 7 1;
#X connect 35 0 7 2;
#X connect 36 0 7 3;
