#N canvas 748 249 590 502 12;
#X msg 183 375 label \$1;
#X obj 10 66 cnv 15 150 25 empty \$1-cue_canvas Cue-1 30 10 0 20 #9f9f9f #000000 0;
#X obj 257 444 nbx 5 20 0 999 0 0 \$1-setq dont-send Set\ Cue -55 10 0 12 #feffff #000000 #000000 0 256;
#X obj 10 10 cnv 15 150 15 empty empty \$1\\\ cuelist 45 8 0 11 #404040 #ffffff 0;
#X obj 325 191 r #;
#X text 321 166 for comments;
#X text 322 147 recieve dummy;
#X obj 10 25 cnv 15 150 40 empty \$1-section_canvas start 25 20 0 14 #9f9f9f #000000 0;
#X obj 183 407 s \$1-cue_canvas;
#X obj 359 191 r /;
#X text 222 41 space -> \$1 = start/stop automatic sequencing \; r = reset to first line \; q = read qlist file \; set = insert number (from 0) in qlist \;;
#X floatatom 80 37 9 0 0 0 - \$1-del-msecs dummy 0;
#N canvas 121 146 485 765 duration-qlist 0;
#X obj 136 325 qlist;
#N canvas 559 38 395 475 line-in-qlist 0;
#X obj 169 201 f 0;
#X obj 243 200 + 1;
#X msg 239 157 0;
#X obj 98 289 spigot;
#X obj 168 243 <;
#X obj 169 290 sel 0;
#N canvas 577 108 470 320 fastmetro 0;
#X obj 101 104 select 0 1;
#X obj 101 53 inlet;
#X obj 101 78 t a a;
#X msg 101 126 stop;
#X obj 100 256 outlet;
#X text 85 24 like [metro] \, only faster;
#X obj 100 212 t b b;
#X obj 130 232 del 0;
#X obj 100 155 del;
#X obj 100 188 spigot;
#X obj 221 126 max 0.01;
#X obj 221 83 loadbang;
#X connect 0 0 3 0;
#X connect 0 1 8 0;
#X connect 1 0 2 0;
#X connect 2 0 0 0;
#X connect 2 1 9 1;
#X connect 3 0 8 0;
#X connect 6 0 4 0;
#X connect 6 1 7 0;
#X connect 7 0 8 0;
#X connect 8 0 9 0;
#X connect 9 0 6 0;
#X connect 10 0 8 1;
#X connect 11 0 10 0;
#X restore 98 144 pd fastmetro;
#X obj 98 419 outlet;
#X obj 98 9 inlet;
#X msg 98 82 1;
#X obj 98 114 tgl 15 0 empty empty empty 0 -6 0 10 #fcfcfc #000000 #000000 0 1;
#X obj 98 46 t b f b;
#X obj 309 159 outlet;
#X msg 98 349 next 1;
#X msg 179 348 next;
#X msg 309 129 rewind;
#X obj 198 115 + 1;
#X connect 0 0 1 0;
#X connect 0 0 4 0;
#X connect 1 0 0 1;
#X connect 2 0 0 1;
#X connect 3 0 13 0;
#X connect 4 0 3 1;
#X connect 4 0 5 0;
#X connect 5 0 2 0;
#X connect 5 0 10 0;
#X connect 5 0 14 0;
#X connect 6 0 3 0;
#X connect 6 0 0 0;
#X connect 8 0 11 0;
#X connect 9 0 10 0;
#X connect 10 0 6 0;
#X connect 11 0 9 0;
#X connect 11 1 16 0;
#X connect 11 2 15 0;
#X connect 13 0 7 0;
#X connect 14 0 7 0;
#X connect 15 0 12 0;
#X connect 16 0 4 1;
#X restore 136 278 pd line-in-qlist;
#N canvas 1420 49 438 793 keystepper 0;
#X obj 90 592 f;
#X obj 141 213 key;
#X obj 167 591 +;
#X msg 197 414 -1;
#X msg 90 419 0;
#X obj 150 447 t b a;
#X obj 196 447 t b a;
#X obj 90 447 t b a b;
#X msg 151 551 1;
#X obj 17 449 t b f b;
#X obj 170 289 inlet;
#X obj 123 16 key;
#X obj 124 40 - 48;
#X obj 123 266 *;
#X obj 123 141 ==;
#X obj 124 92 t b f;
#X obj 123 116 f \$1;
#X floatatom 123 165 5 0 0 0 - - - 0;
#X obj 123 189 t b f;
#X obj 90 649 outlet;
#X floatatom 90 622 5 0 0 0 - - - 0;
#X msg 150 417 1;
#X floatatom 123 290 5 0 0 0 - - - 0;
#X obj 150 390 bng 19 250 50 0 empty empty empty 0 -10 0 12 #fcfcfc #000000 #000000;
#X obj 197 388 bng 19 250 50 0 empty empty empty 0 -10 0 12 #fcfcfc #000000 #000000;
#X obj 123 240 f;
#X obj 123 347 sel 114 32 8;
#X text 223 336 114 = reset to first line \; 32 = 1 line forward \; 8 = 1 line backward;
#X obj 17 401 r \$1-setq;
#X obj 220 269 r \$1-bang-next;
#X msg 220 301 32;
#X obj 201 242 r start-qlist;
#X obj 91 390 bng 19 250 50 0 empty empty empty 0 -10 0 12 #fcfcfc #000000 #000000;
#X floatatom 123 66 5 0 0 0 - - - 0;
#X connect 0 0 2 0;
#X connect 0 0 20 0;
#X connect 1 0 25 1;
#X connect 2 0 0 1;
#X connect 3 0 6 0;
#X connect 4 0 7 0;
#X connect 5 0 0 0;
#X connect 5 1 2 1;
#X connect 6 0 0 0;
#X connect 6 1 2 1;
#X connect 7 1 0 1;
#X connect 7 2 8 0;
#X connect 8 0 2 1;
#X connect 9 0 0 0;
#X connect 9 1 0 1;
#X connect 9 2 8 0;
#X connect 10 0 26 0;
#X connect 11 0 12 0;
#X connect 12 0 33 0;
#X connect 13 0 22 0;
#X connect 14 0 17 0;
#X connect 15 0 16 0;
#X connect 15 1 14 1;
#X connect 16 0 14 0;
#X connect 17 0 18 0;
#X connect 18 0 25 0;
#X connect 18 1 13 1;
#X connect 20 0 19 0;
#X connect 21 0 5 0;
#X connect 22 0 26 0;
#X connect 23 0 21 0;
#X connect 24 0 3 0;
#X connect 25 0 13 0;
#X connect 26 0 32 0;
#X connect 26 1 23 0;
#X connect 26 2 24 0;
#X connect 28 0 9 0;
#X connect 29 0 30 0;
#X connect 30 0 26 0;
#X connect 31 0 30 0;
#X connect 32 0 4 0;
#X connect 33 0 15 0;
#X restore 136 228 pd keystepper;
#X obj 272 210 makefilename %s;
#X msg 272 242 read \$1;
#X obj 272 121 sel 113;
#X msg 136 193 114;
#X obj 272 65 key;
#X floatatom 272 94 5 0 0 1 - - - 0;
#X obj 272 181 symbol \$2;
#X text 168 194 "r";
#X obj 136 72 key;
#X floatatom 136 101 5 0 0 1 - - - 0;
#X obj 136 127 sel 114;
#X text 332 121 "q";
#X floatatom 136 253 7 0 0 0 - - - 0;
#X text 13 325 See/edit content;
#X obj 145 707 s \$1-bang-next;
#X obj 145 682 bng 19 250 50 0 empty empty empty 0 -10 0 12 #fcfcfc #000000 #000000;
#X obj 244 634 f;
#X obj 283 634 + 1;
#X obj 216 635 bng 19 250 50 0 empty empty empty 0 -10 0 12 #fcfcfc #000000 #000000;
#X msg 262 585 0;
#X obj 145 659 delay;
#X msg 145 633 \$1, f 2;
#X floatatom 145 584 5 0 0 0 - - - 0;
#X msg 194 416 rewind;
#X obj 194 365 delay;
#X obj 145 539 /;
#X obj 144 561 int;
#X obj 163 476 r rel-tempo;
#X floatatom 163 511 10 0 0 0 - - - 0;
#X obj 153 609 s \$1-del-msecs;
#X obj 152 162 r init;
#X obj 286 149 r init;
#X obj 145 445 r \$1-dur;
#X obj 337 282 r qlist-rewind;
#X msg 335 380 stop;
#X text 41 28 Automatic sequencing with durations (msecs) from qlist file \$2-qlist.txt;
#X floatatom 282 664 5 0 0 1 cue - - 0;
#X connect 0 1 27 0;
#X connect 1 0 0 0;
#X connect 1 1 0 0;
#X connect 2 0 15 0;
#X connect 3 0 4 0;
#X connect 4 0 0 0;
#X connect 5 0 9 0;
#X connect 6 0 2 0;
#X connect 7 0 8 0;
#X connect 8 0 5 0;
#X connect 9 0 3 0;
#X connect 11 0 12 0;
#X connect 12 0 13 0;
#X connect 13 0 6 0;
#X connect 15 0 1 0;
#X connect 18 0 17 0;
#X connect 18 0 21 0;
#X connect 19 0 20 0;
#X connect 20 0 19 1;
#X connect 20 0 39 0;
#X connect 21 0 19 0;
#X connect 22 0 19 1;
#X connect 23 0 18 0;
#X connect 24 0 23 0;
#X connect 25 0 24 0;
#X connect 25 0 27 1;
#X connect 25 0 32 0;
#X connect 26 0 0 0;
#X connect 27 0 22 0;
#X connect 27 0 6 0;
#X connect 27 0 26 0;
#X connect 28 0 29 0;
#X connect 29 0 25 0;
#X connect 30 0 31 0;
#X connect 31 0 28 1;
#X connect 33 0 6 0;
#X connect 34 0 9 0;
#X connect 35 0 28 0;
#X connect 36 0 37 0;
#X connect 36 0 26 0;
#X connect 36 0 6 0;
#X connect 37 0 23 0;
#X restore 38 128 pd duration-qlist;
#N canvas 775 253 287 349 parameters 0;
#X obj 51 164 makefilename %s;
#X msg 51 196 read \$1;
#X obj 51 75 sel 113;
#X obj 51 19 key;
#X floatatom 51 48 5 0 0 1 - - - 0;
#X obj 65 103 r init;
#X obj 51 135 symbol \$3;
#X obj 139 198 r \$1-line-cue;
#X floatatom 139 222 5 0 0 0 - - - 0;
#X obj 139 287 qlist;
#N canvas 559 38 395 475 line-in-qlist 0;
#X obj 169 201 f 0;
#X obj 243 200 + 1;
#X msg 239 157 0;
#X obj 98 289 spigot;
#X obj 168 243 <;
#X obj 169 290 sel 0;
#N canvas 577 108 470 320 fastmetro 0;
#X obj 101 104 select 0 1;
#X obj 101 53 inlet;
#X obj 101 78 t a a;
#X msg 101 126 stop;
#X obj 100 256 outlet;
#X text 85 24 like [metro] \, only faster;
#X obj 100 212 t b b;
#X obj 130 232 del 0;
#X obj 100 155 del;
#X obj 100 188 spigot;
#X obj 221 126 max 0.01;
#X obj 221 83 loadbang;
#X connect 0 0 3 0;
#X connect 0 1 8 0;
#X connect 1 0 2 0;
#X connect 2 0 0 0;
#X connect 2 1 9 1;
#X connect 3 0 8 0;
#X connect 6 0 4 0;
#X connect 6 1 7 0;
#X connect 7 0 8 0;
#X connect 8 0 9 0;
#X connect 9 0 6 0;
#X connect 10 0 8 1;
#X connect 11 0 10 0;
#X restore 98 144 pd fastmetro;
#X obj 98 419 outlet;
#X obj 98 9 inlet;
#X msg 98 82 1;
#X obj 98 114 tgl 15 0 empty empty empty 0 -6 0 10 #fcfcfc #000000 #000000 0 1;
#X obj 98 46 t b f b;
#X obj 309 159 outlet;
#X msg 98 349 next 1;
#X msg 179 348 next;
#X msg 309 129 rewind;
#X obj 198 115 + 1;
#X connect 0 0 1 0;
#X connect 0 0 4 0;
#X connect 1 0 0 1;
#X connect 2 0 0 1;
#X connect 3 0 13 0;
#X connect 4 0 3 1;
#X connect 4 0 5 0;
#X connect 5 0 2 0;
#X connect 5 0 10 0;
#X connect 5 0 14 0;
#X connect 6 0 3 0;
#X connect 6 0 0 0;
#X connect 8 0 11 0;
#X connect 9 0 10 0;
#X connect 10 0 6 0;
#X connect 11 0 9 0;
#X connect 11 1 16 0;
#X connect 11 2 15 0;
#X connect 13 0 7 0;
#X connect 14 0 7 0;
#X connect 15 0 12 0;
#X connect 16 0 4 1;
#X restore 139 250 pd line-in-qlist;
#X text 14 286 See/edit content;
#X connect 0 0 1 0;
#X connect 1 0 9 0;
#X connect 2 0 6 0;
#X connect 3 0 4 0;
#X connect 4 0 2 0;
#X connect 5 0 6 0;
#X connect 6 0 0 0;
#X connect 7 0 8 0;
#X connect 8 0 10 0;
#X connect 10 0 9 0;
#X connect 10 1 9 0;
#X restore 38 397 pd parameters;
#X listbox 81 232 15 0 0 0 - - - 0;
#X obj 81 261 unpack, f 15;
#X floatatom 81 296 5 0 0 1 duration - - 0;
#X floatatom 183 322 5 0 0 1 line\ /\ cue - - 0;
#X obj 81 334 s \$1-dur;
#X obj 81 208 r \$1-wait;
#X text 40 165 recieve duration an line for each cue from \$2-qlist.txt:, f 28;
#N canvas 266 291 450 300 spatialization 0;
#X restore 40 448 pd spatialization;
#X obj 183 346 makefilename Cue-%d;
#X text 296 408 Cue number in canvas (see above);
#X obj 199 293 s \$1-line-cue;
#X text 300 294 to parameter qlist;
#X connect 0 0 8 0;
#X connect 14 0 15 0;
#X connect 15 0 16 0;
#X connect 15 1 17 0;
#X connect 15 1 24 0;
#X connect 16 0 18 0;
#X connect 17 0 22 0;
#X connect 19 0 14 0;
#X connect 22 0 0 0;
#X coords 0 -1 1 1 150 80 2 10 10;
