#N canvas 1002 108 605 761 12;
#X obj 124 431 random;
#X floatatom 291 212 5 0 0 0 - - -, f 5;
#X floatatom 296 344 5 0 0 0 - - -, f 5;
#X msg 291 279 10;
#X obj 169 384 *;
#X obj 139 468 /;
#X floatatom 103 573 15 0 0 0 - - -, f 15;
#X obj 291 239 t b f;
#X floatatom 172 215 5 0 0 0 - - -, f 5;
#X floatatom 112 216 5 0 0 0 - - -, f 5;
#X obj 172 243 t b f;
#X obj 141 310 abs;
#X floatatom 141 347 5 0 0 0 - - -, f 5;
#X obj 103 545 +;
#X obj 139 497 t b f;
#X obj 39 24 inlet;
#X obj 114 26 inlet;
#X obj 172 27 inlet;
#X obj 291 26 inlet;
#X obj 103 600 outlet;
#X obj 157 278 - 1;
#X obj 220 42 loadbang;
#X obj 296 315 pow 2;
#X obj 314 89 f \$3;
#X obj 126 95 f \$1;
#X obj 314 116 == 0;
#X obj 209 122 == 0;
#X obj 209 94 f \$2;
#X obj 209 149 sel 0;
#X msg 249 175 1;
#X obj 206 176 f \$2;
#X obj 314 145 sel 0;
#X obj 309 178 f \$3;
#X msg 349 177 2;
#X text 218 526 (c) 2010 Achim Bornhoeft;
#X obj 169 408 + 1;
#X obj 391 29 inlet;
#X msg 392 330 seed \$1;
#X obj 391 91 f \$4;
#X connect 0 0 5 0;
#X connect 1 0 7 0;
#X connect 2 0 4 1;
#X connect 2 0 5 1;
#X connect 3 0 22 0;
#X connect 4 0 35 0;
#X connect 5 0 14 0;
#X connect 6 0 19 0;
#X connect 7 0 3 0;
#X connect 7 0 4 0;
#X connect 7 1 22 1;
#X connect 8 0 10 0;
#X connect 9 0 13 0;
#X connect 9 0 20 0;
#X connect 10 0 20 0;
#X connect 10 1 20 1;
#X connect 11 0 12 0;
#X connect 12 0 4 0;
#X connect 13 0 6 0;
#X connect 14 0 13 0;
#X connect 14 1 13 1;
#X connect 15 0 0 0;
#X connect 16 0 9 0;
#X connect 17 0 8 0;
#X connect 18 0 1 0;
#X connect 20 0 11 0;
#X connect 21 0 23 0;
#X connect 21 0 24 0;
#X connect 21 0 27 0;
#X connect 21 0 38 0;
#X connect 22 0 2 0;
#X connect 23 0 25 0;
#X connect 24 0 9 0;
#X connect 25 0 31 0;
#X connect 26 0 28 0;
#X connect 27 0 26 0;
#X connect 28 0 30 0;
#X connect 28 1 29 0;
#X connect 29 0 8 0;
#X connect 30 0 8 0;
#X connect 31 0 32 0;
#X connect 31 1 33 0;
#X connect 32 0 1 0;
#X connect 33 0 1 0;
#X connect 35 0 0 1;
#X connect 36 0 38 0;
#X connect 37 0 0 0;
#X connect 38 0 37 0;
