#N canvas 126 112 907 606 10;
#X obj 447 314 *~;
#X text 469 18 gain-scaler;
#X text 582 33 limiter on off;
#X obj 469 117 line;
#N canvas 0 22 345 409 switch~ 0;
#X text 63 22 switch between two audio inputs;
#X obj 73 134 inlet~;
#X text 73 116 input1;
#X obj 120 271 line~;
#X obj 208 214 line~;
#X obj 104 299 *~;
#X obj 191 302 *~;
#X obj 120 200 - 1;
#X obj 118 223 abs;
#X msg 119 243 \$1 30;
#X msg 208 186 \$1 30;
#X obj 175 330 +~;
#X obj 136 134 inlet~;
#X text 136 116 input2;
#X obj 207 133 inlet;
#X text 207 114 toggle;
#X obj 175 357 outlet~;
#X text 65 34 with toggle on it switsches to 2nd input;
#X obj 185 59 loadbang;
#X msg 186 89 0;
#X connect 1 0 5 0;
#X connect 3 0 5 1;
#X connect 4 0 6 1;
#X connect 5 0 11 0;
#X connect 6 0 11 1;
#X connect 7 0 8 0;
#X connect 8 0 9 0;
#X connect 9 0 3 0;
#X connect 10 0 4 0;
#X connect 11 0 16 0;
#X connect 12 0 6 0;
#X connect 14 0 10 0;
#X connect 14 0 7 0;
#X connect 18 0 19 0;
#X connect 19 0 10 0;
#X connect 19 0 7 0;
#X restore 447 413 pd switch~;
#N canvas 695 87 513 435 hd_recording 1;
#X msg 234 257 stop;
#X obj 202 150 t f b;
#X obj 202 289 t a;
#X obj 101 66 select 0 1;
#X msg 134 238 start;
#X obj 166 122 f 0;
#X obj 134 97 t b b;
#X obj 47 355 writesf~ 1;
#X obj 46 38 inlet~;
#X text 48 14 signal;
#X msg 101 199 stop;
#X msg 202 229 open \$1;
#X obj 101 38 inlet;
#X obj 202 122 + 1;
#X obj 184 37 inlet;
#X msg 184 62 0;
#X symbolatom 202 203 27 0 0 0 - - - 0;
#X text 49 391 (c) 2007/2015 Achim Bornhoeft;
#X obj 202 175 makefilename ../rec/out/\$1-\$2_%d-out.wav;
#X obj 197 91 bng 19 250 50 0 empty empty empty 0 -10 0 12 #fcfcfc #000000 #000000;
#X connect 0 0 2 0;
#X connect 1 0 18 0;
#X connect 1 1 0 0;
#X connect 2 0 7 0;
#X connect 3 0 10 0;
#X connect 3 1 6 0;
#X connect 4 0 7 0;
#X connect 5 0 13 0;
#X connect 6 0 4 0;
#X connect 6 1 5 0;
#X connect 8 0 7 0;
#X connect 10 0 7 0;
#X connect 11 0 2 0;
#X connect 12 0 3 0;
#X connect 13 0 5 1;
#X connect 13 0 1 0;
#X connect 14 0 15 0;
#X connect 15 0 5 1;
#X connect 16 0 11 0;
#X connect 18 0 16 0;
#X connect 19 0 5 0;
#X restore 526 439 pd hd_recording;
#X text 594 309 on/off;
#X obj 579 290 unpack f f;
#X obj 681 180 key;
#X floatatom 681 204 5 0 0 0 - - - 0;
#X obj 327 49 osc~ 440;
#X obj 328 130 *~;
#X obj 341 80 r \$0-testtone-r;
#N canvas 1727 830 195 217 guilabel 0;
#X msg 43 114 label \$1;
#X obj 43 26 inlet;
#X obj 43 143 outlet;
#X obj 43 86 makefilename %s;
#N canvas 371 178 187 217 round 0;
#X msg 107 79 10;
#X obj 107 56 loadbang;
#X obj 27 84 * 1;
#X obj 27 19 inlet;
#X obj 68 131 / 1;
#X msg 68 109 1;
#X obj 27 109 + 0.5;
#X obj 27 134 div;
#X obj 27 181 outlet;
#X obj 27 157 * 1;
#X obj 107 102 pow 2;
#X obj 27 45 t f b;
#X connect 0 0 10 0;
#X connect 1 0 0 0;
#X connect 2 0 6 0;
#X connect 3 0 11 0;
#X connect 4 0 9 1;
#X connect 5 0 4 0;
#X connect 6 0 7 0;
#X connect 7 0 9 0;
#X connect 9 0 8 0;
#X connect 10 0 2 1;
#X connect 10 0 4 1;
#X connect 10 0 5 0;
#X connect 11 0 2 0;
#X connect 11 1 0 0;
#X restore 43 53 pd round;
#X connect 0 0 2 0;
#X connect 1 0 4 0;
#X connect 3 0 0 0;
#X connect 4 0 3 0;
#X restore 514 198 pd guilabel;
#X obj 681 226 sel 67 82;
#N canvas 0 22 345 409 switch~ 0;
#X text 63 22 switch between two audio inputs;
#X obj 73 134 inlet~;
#X text 73 116 input1;
#X obj 120 271 line~;
#X obj 208 214 line~;
#X obj 104 299 *~;
#X obj 191 302 *~;
#X obj 120 200 - 1;
#X obj 118 223 abs;
#X obj 136 134 inlet~;
#X text 136 116 input2;
#X obj 207 133 inlet;
#X text 207 114 toggle;
#X obj 175 357 outlet~;
#X text 65 34 with toggle on it switsches to 2nd input;
#X obj 185 59 loadbang;
#X msg 186 89 0;
#X msg 208 186 \$1 50;
#X msg 119 243 \$1 50;
#X connect 1 0 5 0;
#X connect 3 0 5 1;
#X connect 4 0 6 1;
#X connect 5 0 13 0;
#X connect 6 0 13 0;
#X connect 7 0 8 0;
#X connect 8 0 18 0;
#X connect 9 0 6 0;
#X connect 11 0 17 0;
#X connect 11 0 7 0;
#X connect 15 0 16 0;
#X connect 16 0 17 0;
#X connect 16 0 7 0;
#X connect 17 0 4 0;
#X connect 18 0 3 0;
#X restore 288 156 pd switch~;
#X f 12;
#X text 680 163 R = reset soundfile number;
#X text 680 148 C = record on/off;
#X obj 459 489 s \$0-vu-in;
#X obj 10 10 cnv 10 150 15 empty \$1-channel out\\\ \$1 50 8 0 11 #404040 #ffffff 0;
#X obj 485 65 loadbang;
#X msg 485 86 0;
#X obj 579 261 r \$1-out-rec;
#X obj 579 330 s \$0-out-rec-r;
#X obj 576 358 r \$0-out-rec-s;
#X obj 585 59 r \$1-compressor;
#X obj 585 91 s \$0-compressor-s;
#X obj 585 123 r \$0-compressor-r;
#N canvas 0 22 956 697 compressor 0;
#X obj 252 640 outlet~;
#X obj 252 506 *~;
#X obj 252 614 *~;
#N canvas 0 22 450 300 delWrite 0;
#X obj 68 80 delwrite~ \$0-comp 500;
#X obj 68 39 inlet~;
#X obj 68 156 outlet~;
#X connect 1 0 0 0;
#X restore 85 289 pd delWrite;
#X obj 481 393 dbtorms;
#X obj 533 364 /;
#X obj 533 333 swap 1;
#X obj 586 340 /;
#X obj 586 318 swap 1000;
#X obj 267 466 lop~;
#X obj 267 411 clip~ 0 1;
#X obj 481 415 s \$0-thresh;
#X obj 533 386 s \$0-ratio;
#X obj 267 589 line~;
#X obj 267 568 pack f 5;
#X obj 267 544 r \$0-gain;
#X obj 638 297 s \$0-gain;
#N canvas 0 22 872 621 rms 0;
#X obj 257 107 env~ 512;
#X obj 257 245 -~;
#X obj 257 293 *~;
#X obj 257 345 +~;
#X obj 257 385 /~;
#X obj 378 221 +~ 0;
#X obj 272 220 r \$0-thresh;
#X obj 272 318 r \$0-thresh;
#X obj 272 269 r \$0-ratio;
#X obj 257 34 inlet~;
#X obj 257 407 outlet~;
#X obj 373 37 inlet;
#X obj 373 59 switch~;
#X obj 257 135 dbtorms~;
#X text 221 74 Input;
#X text 231 136 RMS;
#X text 424 59 turn DSP on/off for this sub-patch;
#X connect 0 0 13 0;
#X connect 1 0 2 0;
#X connect 2 0 3 0;
#X connect 3 0 4 0;
#X connect 4 0 10 0;
#X connect 5 0 4 1;
#X connect 6 0 1 1;
#X connect 7 0 3 1;
#X connect 8 0 2 1;
#X connect 9 0 0 0;
#X connect 11 0 12 0;
#X connect 13 0 1 0;
#X connect 13 0 5 0;
#X restore 267 288 pd rms;
#N canvas 0 22 859 606 peak 0;
#X obj 244 134 abs~;
#X obj 244 243 -~;
#X obj 244 291 *~;
#X obj 244 343 +~;
#X obj 244 383 /~;
#X obj 365 219 +~ 0;
#X obj 259 218 r \$0-thresh;
#X obj 259 316 r \$0-thresh;
#X obj 259 267 r \$0-ratio;
#X obj 244 49 inlet~;
#X obj 244 405 outlet~;
#X obj 470 125 inlet;
#X obj 470 147 switch~;
#X text 206 99 Input;
#X text 208 135 Peak;
#X text 521 148 turn DSP on/off for this sub-patch;
#X connect 0 0 1 0;
#X connect 0 0 5 0;
#X connect 1 0 2 0;
#X connect 2 0 3 0;
#X connect 3 0 4 0;
#X connect 4 0 10 0;
#X connect 5 0 4 1;
#X connect 6 0 1 1;
#X connect 7 0 3 1;
#X connect 8 0 2 1;
#X connect 9 0 0 0;
#X connect 11 0 12 0;
#X restore 315 288 pd peak;
#X obj 300 230 == 0;
#X obj 300 185 t f f;
#X obj 85 32 inlet~;
#X obj 300 161 r \$0-rmspeak;
#X obj 691 271 s \$0-rmspeak;
#X obj 743 247 s \$0-lookahead;
#X obj 142 341 r \$0-lookahead;
#X obj 481 223 route threshold ratio response gain rmspeak lookahead;
#X obj 484 94 loadbang;
#X obj 481 170 t a a;
#X obj 508 198 s \$0-dump;
#X obj 481 358 + 100;
#X obj 638 273 dbtorms;
#X obj 288 444 r \$0-response;
#X obj 586 362 s \$0-response;
#N canvas 0 22 450 300 delRead 0;
#X obj 68 41 inlet~;
#X obj 133 155 outlet~;
#X obj 133 42 inlet lookAhead;
#X obj 133 116 delread~ \$0-comp 0;
#X connect 2 0 3 0;
#X connect 3 0 1 0;
#X restore 85 365 pd delRead;
#X text 129 32 Input;
#X text 25 287 delwrite~;
#X text 51 320 dymmy;
#X text 50 332 cable;
#X text 31 365 delread~;
#X text 141 320 Lookahead in ms;
#X text 334 409 Clip signal;
#X text 298 465 Attack/release using LPF;
#X text 277 505 Gain Control;
#X text 318 311 Gain computation;
#X text 318 325 RMS/Peak;
#X text 330 544 Make-up gain;
#X text 339 185 RMS/Peak;
#X text 339 198 selector;
#X text 541 96 initialise controls;
#X text 538 181 send controls to UI;
#X text 479 437 Convert dB FS;
#X text 479 448 to Pd dB scale;
#X text 479 460 and then linear;
#X text 479 471 amplitude.;
#X text 561 403 inverse of ratio;
#X text 637 380 convert ms to frequency;
#X text 657 316 convert dBFS scale to Pd dB scale;
#X text 707 290 RMS/peak selection;
#X text 781 264 lookahead value in ms;
#X text 757 206 route incoming data;
#X text 810 18 Varun Nair;
#X text 810 31 2013;
#X text 811 44 re-sounding.com;
#X text 812 57 @ntkeep;
#X obj 413 41 inlet;
#X obj 413 78 switch~;
#X obj 638 251 + 100;
#X msg 481 123 threshold -2 \, ratio 4 \, response 40 \, gain -1.2 \, rmspeak 0 \, lookahead 3;
#X connect 1 0 2 0;
#X connect 2 0 0 0;
#X connect 3 0 34 0;
#X connect 4 0 11 0;
#X connect 5 0 12 0;
#X connect 6 0 5 0;
#X connect 6 1 5 1;
#X connect 7 0 33 0;
#X connect 8 0 7 0;
#X connect 8 1 7 1;
#X connect 9 0 1 1;
#X connect 10 0 9 0;
#X connect 13 0 2 1;
#X connect 14 0 13 0;
#X connect 15 0 14 0;
#X connect 17 0 10 0;
#X connect 18 0 10 0;
#X connect 19 0 17 1;
#X connect 20 0 19 0;
#X connect 20 1 18 1;
#X connect 21 0 3 0;
#X connect 21 0 17 0;
#X connect 21 0 18 0;
#X connect 22 0 20 0;
#X connect 25 0 34 1;
#X connect 26 0 30 0;
#X connect 26 1 6 0;
#X connect 26 2 8 0;
#X connect 26 3 67 0;
#X connect 26 4 23 0;
#X connect 26 5 24 0;
#X connect 27 0 68 0;
#X connect 28 0 26 0;
#X connect 28 1 29 0;
#X connect 30 0 4 0;
#X connect 31 0 16 0;
#X connect 32 0 9 1;
#X connect 34 0 1 0;
#X connect 65 0 66 0;
#X connect 67 0 31 0;
#X connect 68 0 28 0;
#X restore 475 384 pd compressor;
#X obj 469 39 r \$1-vol;
#X obj 467 175 s \$0-vol-s;
#X obj 466 223 r \$0-vol-r;
#X text 739 391 reset soundfile to number 1, f 15;
#X obj 629 387 s \$0-no1-out-r;
#X obj 628 412 r \$0-no1-out-s;
#X obj 29 349 loadbang;
#X floatatom 28 415 5 0 0 0 - - - 0;
#X obj 29 395 * 2;
#X obj 29 371 f \$3;
#X obj 28 464 s \$0-output~;
#X obj 118 465 namecanvas \$0-output~;
#X obj 10 26 cnv 16 150 179 empty empty empty 20 12 0 10 #9f9f9f #404040 0;
#X text 643 441 Recording only Live Electronics!;
#N canvas 713 435 563 480 vu-meter 0;
#X obj 162 277 abs~;
#X obj 162 327 snapshot~;
#X obj 162 364 rmstodb;
#X obj 162 385 - 100;
#X obj 162 443 outlet;
#X obj 240 244 expr 1000 / $f1;
#X floatatom 240 272 5 0 0 1 Hz - - 0;
#X obj 162 299 slop~ 0 0 0 0 1e+09;
#X floatatom 240 219 5 0 0 0 - - - 0;
#X text 361 244 convert to hz;
#X text 286 219 peak decay time in ms;
#X obj 27 263 t f b;
#X text 317 270 The slop~ object is used here for peak detection. We need to convert the output to dB with rmstodb and also subtract by 100 to convert it to dBFS., f 31;
#X text 278 358 Copy from PD documentation;
#X obj 109 16 loadbang;
#X floatatom 70 211 5 0 0 0 - - - 0;
#X obj 70 182 max;
#X msg 83 124 0;
#X obj 27 328 - 100;
#X obj 70 238 - 100;
#X obj 27 159 env~ 1024;
#X obj 27 419 pack f f;
#X obj 27 445 outlet;
#X obj 27 54 inlet~;
#X msg 240 190 500;
#X obj 109 39 t b b b;
#X text 284 426 (c) 2023 AChim Bornhoeft;
#N canvas 535 70 763 564 peak-meter 0;
#X floatatom 217 132 5 0 50 0 - \$0-decay-speed-init - 0;
#N canvas 392 300 639 450 generate-test 0;
#X obj 45 196 osc~ 440;
#X msg 98 166 -0.25;
#X obj 165 239 *~;
#X obj 147 270 *~;
#X obj 147 395 outlet~;
#X obj 165 153 f;
#X msg 165 178 1 \, 0 \$1;
#X obj 338 87 loadbang;
#X obj 383 157 s \$0-decay-speed-init;
#X msg 338 127 30;
#X obj 97 78 metro 500;
#X obj 97 25 inlet;
#X msg 383 127 500;
#X obj 183 25 inlet;
#X obj 165 204 line~;
#X obj 338 187 s \$0-pulse-length-init;
#X obj 253 25 inlet;
#X obj 253 243 pow 4;
#X obj 253 294 line~;
#X msg 253 268 \$1 10;
#X obj 235 321 *~;
#X obj 235 352 dac~;
#X connect 0 0 3 0;
#X connect 1 0 0 1;
#X connect 2 0 3 1;
#X connect 3 0 4 0;
#X connect 3 0 20 0;
#X connect 5 0 6 0;
#X connect 6 0 14 0;
#X connect 7 0 9 0;
#X connect 7 0 12 0;
#X connect 9 0 15 0;
#X connect 10 0 5 0;
#X connect 10 0 1 0;
#X connect 11 0 10 0;
#X connect 12 0 8 0;
#X connect 13 0 5 1;
#X connect 14 0 2 0;
#X connect 14 0 2 1;
#X connect 16 0 17 0;
#X connect 17 0 19 0;
#X connect 18 0 20 1;
#X connect 19 0 18 0;
#X connect 20 0 21 0;
#X connect 20 0 21 1;
#X restore 47 101 pd generate-test;
#X text 365 155 Envelope follower for use in peak metering;
#X text 314 467 See the HTML documentation (link on main page of this patch) for more details., f 54;
#X floatatom 101 63 5 1 100 2 pulse-length \$0-pulse-length-init - 0;
#X obj 47 214 env~ 1024;
#X obj 139 183 abs~;
#X obj 139 248 snapshot~;
#X obj 139 281 rmstodb;
#X obj 127 347 vu 18 160 empty VU -20 20 0 12 #404040 #000000 1 0;
#X obj 139 213 slop~ 0 0 0 0 1e+09;
#X obj 47 248 t f b;
#X obj 47 289 - 100;
#X obj 139 306 - 100;
#X obj 47 24 tgl 19 0 empty empty empty 17 7 0 10 #dcdcdc #000000 #000000 0 1;
#X obj 217 156 expr 1000 / $f1;
#X text 197 132 ms;
#X text 215 109 decay speed;
#X floatatom 217 182 5 0 0 0 - - - 0;
#X text 197 183 hz;
#X obj 159 72 hsl 128 19 0 1 0 0 empty empty empty 32 9 0 12 #dcdcdc #000000 #000000 0 1;
#X text 314 204 A slew limiter can be used as a fast-rising envelope follower \, useful for example in peak metering. In this example a short burst of sound is metered using both the [env~] follower (which measures an average over a time window) and a fast-rising envelope follower consisting of an [abs~] object (to rectify the signal) followed by a [slop~] object set to rise quickly (1e09 asymptotic rise speed \, 0 up-slew needed to engage it) and with controllable decay (asymptotic downward speed controlled by a number box). There is no linear region at all so the linear cutoff frequency has no effect., f 54;
#X text 314 368 The output is sampled using a [snapshot~] object. Both envelope followers are converted to dBFS for the IEM VU meter., f 54;
#X text 314 420 When the pulse is very short (1 msec \, for instance) the RMS meter acts badly but the [slop~]-driven one still shows the peak., f 54;
#X text 198 73 Volume;
#X text 71 23 <- turn on test pulse;
#X text 35 421 see also ->;
#X connect 0 0 15 0;
#X connect 1 0 5 0;
#X connect 1 0 6 0;
#X connect 4 0 1 1;
#X connect 5 0 11 0;
#X connect 6 0 10 0;
#X connect 7 0 8 0;
#X connect 8 0 13 0;
#X connect 10 0 7 0;
#X connect 11 0 12 0;
#X connect 11 1 7 0;
#X connect 12 0 9 0;
#X connect 13 0 9 1;
#X connect 14 0 1 0;
#X connect 15 0 18 0;
#X connect 18 0 10 3;
#X connect 20 0 1 2;
#X restore 279 382 pd peak-meter;
#X msg 132 69 4000;
#X obj 83 101 metro, f 7;
#X connect 0 0 7 0;
#X connect 1 0 2 0;
#X connect 2 0 3 0;
#X connect 3 0 4 0;
#X connect 5 0 6 0;
#X connect 6 0 7 3;
#X connect 7 0 1 0;
#X connect 8 0 5 0;
#X connect 11 0 18 0;
#X connect 11 1 1 0;
#X connect 14 0 25 0;
#X connect 15 0 16 1;
#X connect 15 0 19 0;
#X connect 16 0 15 0;
#X connect 17 0 16 1;
#X connect 18 0 21 0;
#X connect 19 0 21 1;
#X connect 20 0 16 0;
#X connect 20 0 11 0;
#X connect 21 0 22 0;
#X connect 23 0 20 0;
#X connect 23 0 0 0;
#X connect 24 0 8 0;
#X connect 25 0 29 0;
#X connect 25 1 28 0;
#X connect 25 2 24 0;
#X connect 28 0 29 1;
#X connect 29 0 17 0;
#X restore 459 462 pd vu-meter;
#X obj 464 256 pack \$1 150;
#X obj 464 277 line~;
#X obj 341 106 t f f;
#X obj 172 142 line;
#N canvas 1727 830 195 217 guilabel 0;
#X msg 43 114 label \$1;
#X obj 43 26 inlet;
#X obj 43 143 outlet;
#N canvas 371 178 187 217 round 0;
#X msg 107 79 10;
#X obj 107 56 loadbang;
#X obj 27 84 * 1;
#X obj 27 19 inlet;
#X obj 68 131 / 1;
#X msg 68 109 1;
#X obj 27 109 + 0.5;
#X obj 27 134 div;
#X obj 27 181 outlet;
#X obj 27 157 * 1;
#X obj 107 102 pow 2;
#X obj 27 45 t f b;
#X connect 0 0 10 0;
#X connect 1 0 0 0;
#X connect 2 0 6 0;
#X connect 3 0 11 0;
#X connect 4 0 9 1;
#X connect 5 0 4 0;
#X connect 6 0 7 0;
#X connect 7 0 9 0;
#X connect 9 0 8 0;
#X connect 10 0 2 1;
#X connect 10 0 4 1;
#X connect 10 0 5 0;
#X connect 11 0 2 0;
#X connect 11 1 0 0;
#X restore 43 53 pd round;
#X obj 43 86 makefilename pre:%s;
#X connect 0 0 2 0;
#X connect 1 0 3 0;
#X connect 3 0 4 0;
#X connect 4 0 0 0;
#X restore 219 190 pd guilabel;
#X obj 188 90 loadbang;
#X msg 188 111 0;
#X text 172 43 direct-in;
#X obj 156 281 *~;
#X obj 172 64 r \$1-dirout;
#X obj 102 216 r~ \$1-pre;
#X obj 172 167 s \$0-pre-s;
#X obj 171 215 r \$0-pre-r;
#X obj 171 236 pack \$1 150;
#X obj 171 257 line~;
#X obj 517 530 env~;
#X floatatom 517 555 5 0 0 0 - - - 0;
#X obj 259 64 env~;
#X floatatom 259 85 5 0 0 0 - - - 0;
#X obj 288 28 catch~ \$1-chan;
#X obj 54 68 vu 14 120 \$0-vu-in empty -12 -8 0 6 #000000 #000000 1 0;
#X obj 39 68 vsl 14 119 0 1.5 0 0 \$0-vol-r \$0-vol-s 0 5 130 0 9 #ffffff #ff0400 #000000 0 1;
#X obj 112 103 tgl 12 0 \$0-limiter-r \$0-limiter-s cmp 0 20 0 8 #ffffff #00ff04 #000000 0 1;
#X obj 112 134 tgl 12 0 \$0-out-rec-s \$0-out-rec-r rec 0 20 0 8 #ffffff #ff0400 #000000 0 1;
#X obj 112 164 bng 12 250 50 0 \$0-no1-out-s \$0-no1-out-r no1 0 20 0 8 #ffffff #ff0400 #000000;
#X obj 112 72 tgl 12 0 \$0-testtone-r \$0-testtone-s 440 0 20 0 8 #ffffff #ff0400 #000000 0 1;
#X obj 74 32 cnv 10 40 10 empty \$1-name \$2 0 5 0 12 #9f9f9f #000000 0;
#X obj 25 47 hsl 120 14 0 5 0 0 \$0-pre-r \$0-pre-s pre:0 10 7 0 8 #fcfcfc #ff0400 #2f004d 0 1;
#X msg 28 439 donecanvasdialog 100 100 \$1 0 0 1 1 150 195 10 10 \, dirty 0;
#X obj 447 531 s~ \$4-sig;
#X obj 156 318 s~ \$1-sig;
#X connect 0 0 5 0;
#X connect 0 0 28 0;
#X connect 0 0 4 0;
#X connect 3 0 30 0;
#X connect 4 0 43 0;
#X connect 4 0 59 0;
#X connect 4 0 73 0;
#X connect 7 0 23 0;
#X connect 7 1 33 0;
#X connect 8 0 9 0;
#X connect 9 0 14 0;
#X connect 10 0 11 0;
#X connect 11 0 15 1;
#X connect 12 0 46 0;
#X connect 13 0 30 0;
#X connect 14 0 23 0;
#X connect 14 1 33 0;
#X connect 15 0 0 0;
#X connect 21 0 3 0;
#X connect 22 0 7 0;
#X connect 24 0 5 1;
#X connect 25 0 26 0;
#X connect 27 0 4 2;
#X connect 27 0 28 1;
#X connect 28 0 4 1;
#X connect 29 0 3 0;
#X connect 31 0 13 0;
#X connect 31 0 44 0;
#X connect 34 0 5 2;
#X connect 35 0 38 0;
#X connect 36 0 72 0;
#X connect 37 0 36 0;
#X connect 38 0 37 0;
#X connect 43 0 18 0;
#X connect 44 0 45 0;
#X connect 45 0 0 1;
#X connect 46 0 11 1;
#X connect 46 1 15 2;
#X connect 47 0 55 0;
#X connect 48 0 55 0;
#X connect 50 0 47 0;
#X connect 52 0 74 0;
#X connect 52 0 43 0;
#X connect 53 0 47 0;
#X connect 54 0 52 0;
#X connect 56 0 48 0;
#X connect 56 0 57 0;
#X connect 57 0 58 0;
#X connect 58 0 52 1;
#X connect 59 0 60 0;
#X connect 61 0 62 0;
#X connect 63 0 15 0;
#X connect 63 0 61 0;
#X connect 72 0 39 0;
#X coords 0 0 1 1 150 195 2 10 10;
