#N canvas 388 128 823 916 10;
#X obj 172 707 line;
#X obj 175 733 hsl 128 15 0 200 0 0 empty empty empty -2 -8 0 10 #fcfcfc #000000 #000000 0 1;
#X obj 172 683 pack;
#X obj 306 694 line;
#X obj 307 670 pack;
#X obj 305 735 vsl 15 128 0 200 0 0 empty empty empty 0 -9 0 10 #fcfcfc #000000 #000000 0 1;
#X obj 172 763 t b f;
#X obj 208 763 t b f;
#X obj 172 802 pack \$1 f f;
#X floatatom 226 407 5 0 0 0 - - - 0;
#X floatatom 407 453 5 0 0 0 - - - 0;
#X obj 193 457 random;
#X obj 193 506 +;
#X obj 394 427 random;
#X obj 393 497 +;
#X obj 462 499 +;
#X obj 464 429 random;
#X floatatom 462 527 5 0 0 0 - - - 0;
#X floatatom 393 544 5 0 0 0 - - - 0;
#X floatatom 193 528 5 0 0 0 - - - 0;
#X floatatom 403 162 5 0 0 0 - - - 0;
#X obj 403 140 random 2;
#X obj 383 232 f;
#X msg 414 233 0;
#X floatatom 384 263 5 0 0 0 - - - 0;
#X obj 480 234 f;
#X msg 446 235 0;
#X floatatom 447 265 5 0 0 0 - - - 0;
#X obj 404 98 t b f;
#X floatatom 431 120 5 0 0 0 - - - 0;
#X obj 403 184 sel 0 1;
#X obj 384 285 delay;
#X obj 384 308 bng 15 250 50 0 empty empty empty 17 7 0 10 #fcfcfc #000000 #000000;
#X obj 447 285 delay;
#X obj 447 309 bng 15 250 50 0 empty empty empty 17 7 0 10 #fcfcfc #000000 #000000;
#X floatatom 437 56 5 0 0 0 - - - 0;
#X obj 404 76 random;
#X text 470 661 Arguments:;
#X obj 70 7 r \$1-rnd-pos;
#X obj 172 831 s rnd-pos-out;
#X obj 404 33 r \$1-rnd-bang-out;
#X floatatom 111 437 5 0 0 0 - - - 0;
#X obj 94 407 random;
#X obj 95 458 +;
#X floatatom 95 505 5 0 0 0 - - - 0;
#X obj 63 183 -;
#X floatatom 127 371 5 0 0 0 - - - 0;
#X obj 56 149 t b f;
#X obj 103 183 -;
#X obj 96 149 t b f;
#X obj 147 183 -;
#X floatatom 427 385 5 0 0 0 - - - 0;
#X obj 140 150 t b f;
#X obj 185 182 -;
#X floatatom 497 409 5 0 0 0 - - - 0;
#X obj 179 150 t b f;
#X obj 163 12 loadbang;
#X floatatom 207 485 5 0 0 0 - - - 0;
#X floatatom 478 455 5 0 0 0 - - - 0;
#X text 470 691 1 + 2: x-position low/high (0 - 200);
#X text 469 715 3 + 4: reach x-position low/high in msec;
#X text 468 796 9: delay between trigger x and y-position;
#X text 467 746 5 + 6: y-position low/high (0 - 200);
#X text 468 772 7 + 8: reach y-position low/high in msec;
#X obj 103 31 inlet;
#X obj 70 73 spigot;
#X obj 103 53 tgl 15 0 empty empty empty 17 7 0 10 #fcfcfc #000000 #000000 0 1;
#X obj 41 583 - 100;
#X obj 40 606 abs;
#X obj 41 556 clip 100 -100;
#X obj 338 592 - 100;
#X obj 339 617 abs;
#X obj 338 565 clip 100 -100;
#X obj 392 521 min 200;
#X obj 95 483 min 200;
#X msg 163 34 0 200 100 200 30 130 200 280 0 0;
#X msg 151 65 10 150 150 200 50 200 50 80 50 1;
#X obj 70 115 unpack f f f f f f f f f f;
#N canvas 0 22 360 341 inswitch 0;
#X text 81 64 input1;
#X text 126 64 input2;
#X obj 170 83 inlet;
#X text 170 64 toggle;
#X text 65 34 with toggle on it switsches to 2nd input;
#X obj 82 82 inlet;
#X obj 126 82 inlet;
#X text 63 22 switch between two inputs;
#X obj 82 236 spigot;
#X obj 136 189 spigot;
#X obj 199 162 - 1;
#X obj 199 187 abs;
#X obj 134 282 outlet;
#X obj 170 122 f 0;
#X obj 225 77 loadbang;
#X connect 2 0 13 0;
#X connect 5 0 8 0;
#X connect 6 0 9 0;
#X connect 8 0 12 0;
#X connect 9 0 12 0;
#X connect 10 0 11 0;
#X connect 11 0 8 1;
#X connect 13 0 10 0;
#X connect 13 0 9 1;
#X connect 14 0 13 0;
#X restore 41 632 pd inswitch;
#N canvas 0 22 450 300 inswitch 0;
#X text 81 64 input1;
#X text 126 64 input2;
#X obj 170 83 inlet;
#X text 170 64 toggle;
#X text 65 34 with toggle on it switsches to 2nd input;
#X obj 82 82 inlet;
#X obj 126 82 inlet;
#X text 63 22 switch between two inputs;
#X obj 82 236 spigot;
#X obj 136 189 spigot;
#X obj 199 162 - 1;
#X obj 199 187 abs;
#X obj 134 282 outlet;
#X obj 170 122 f 0;
#X obj 225 77 loadbang;
#X connect 2 0 13 0;
#X connect 5 0 8 0;
#X connect 6 0 9 0;
#X connect 8 0 12 0;
#X connect 9 0 12 0;
#X connect 10 0 11 0;
#X connect 11 0 8 1;
#X connect 13 0 10 0;
#X connect 13 0 9 1;
#X connect 14 0 13 0;
#X restore 308 645 pd inswitch;
#X obj 228 150 tgl 15 0 empty empty empty 17 7 0 10 #fcfcfc #000000 #000000 0 1;
#X text 465 820 10: switch only between 0 and 200 = full space range;
#X obj 377 11 bng 16 250 50 0 empty empty empty 0 -8 0 10 #fcfcfc #000000 #000000;
#X msg 518 125 200 200 2000 2000 0 0 2000 2000 0 0;
#X msg 516 151 0 0 2000 2000 200 200 1000 1000 0 0;
#X obj 447 335 t b b;
#X obj 384 331 t b b;
#X connect 0 0 1 0;
#X connect 1 0 6 0;
#X connect 2 0 0 0;
#X connect 3 0 5 0;
#X connect 4 0 3 0;
#X connect 5 0 7 0;
#X connect 6 0 8 0;
#X connect 6 1 8 1;
#X connect 7 0 8 0;
#X connect 7 1 8 2;
#X connect 8 0 39 0;
#X connect 9 0 11 1;
#X connect 10 0 14 1;
#X connect 11 0 12 0;
#X connect 12 0 19 0;
#X connect 13 0 14 0;
#X connect 14 0 73 0;
#X connect 15 0 17 0;
#X connect 16 0 15 0;
#X connect 17 0 4 1;
#X connect 18 0 79 0;
#X connect 18 0 72 0;
#X connect 19 0 2 1;
#X connect 20 0 30 0;
#X connect 21 0 20 0;
#X connect 22 0 24 0;
#X connect 23 0 24 0;
#X connect 24 0 31 0;
#X connect 25 0 27 0;
#X connect 26 0 27 0;
#X connect 27 0 33 0;
#X connect 28 0 21 0;
#X connect 28 1 29 0;
#X connect 29 0 22 1;
#X connect 29 0 25 1;
#X connect 30 0 22 0;
#X connect 30 0 26 0;
#X connect 30 1 23 0;
#X connect 30 1 25 0;
#X connect 31 0 32 0;
#X connect 32 0 86 0;
#X connect 33 0 34 0;
#X connect 34 0 85 0;
#X connect 35 0 36 1;
#X connect 36 0 28 0;
#X connect 38 0 65 0;
#X connect 40 0 36 0;
#X connect 41 0 43 1;
#X connect 42 0 43 0;
#X connect 43 0 74 0;
#X connect 44 0 69 0;
#X connect 44 0 78 0;
#X connect 45 0 46 0;
#X connect 46 0 42 1;
#X connect 47 0 45 0;
#X connect 47 1 45 1;
#X connect 48 0 9 0;
#X connect 49 0 48 0;
#X connect 49 1 48 1;
#X connect 50 0 51 0;
#X connect 51 0 13 1;
#X connect 52 0 50 0;
#X connect 52 1 50 1;
#X connect 53 0 54 0;
#X connect 54 0 16 1;
#X connect 55 0 53 0;
#X connect 55 1 53 1;
#X connect 56 0 75 0;
#X connect 57 0 12 1;
#X connect 58 0 15 1;
#X connect 64 0 66 0;
#X connect 65 0 77 0;
#X connect 66 0 65 1;
#X connect 67 0 68 0;
#X connect 68 0 78 1;
#X connect 69 0 67 0;
#X connect 70 0 71 0;
#X connect 71 0 79 1;
#X connect 72 0 70 0;
#X connect 73 0 18 0;
#X connect 74 0 44 0;
#X connect 75 0 77 0;
#X connect 76 0 77 0;
#X connect 77 0 47 0;
#X connect 77 0 41 0;
#X connect 77 1 45 0;
#X connect 77 2 49 0;
#X connect 77 2 57 0;
#X connect 77 3 48 0;
#X connect 77 4 52 0;
#X connect 77 4 10 0;
#X connect 77 5 50 0;
#X connect 77 6 55 0;
#X connect 77 6 58 0;
#X connect 77 7 53 0;
#X connect 77 8 35 0;
#X connect 77 9 80 0;
#X connect 78 0 2 0;
#X connect 79 0 4 0;
#X connect 80 0 78 2;
#X connect 80 0 79 2;
#X connect 82 0 36 0;
#X connect 83 0 77 0;
#X connect 84 0 77 0;
#X connect 85 0 13 0;
#X connect 85 1 16 0;
#X connect 86 0 42 0;
#X connect 86 1 11 0;
