#N struct 5245-controller float x0 float y0 float id float color;
#N canvas 659 205 796 726 12;
#X declare -path abs;
#X declare -path abs/spat-control;
#X declare -path qlists;
#X declare -path rec;
#N canvas 435 223 1143 748 schemen 1;
#N canvas 785 316 200 273 block-keys 0;
#X obj 50 150 tgl 15 0 block-dummy-s block-dummy-r block_keys\ (alt/option-b) 20 8 0 12 #b8b8b8 #fc0400 #000000 0 1;
#X obj 50 177 expr ($f1-1)*-1;
#X obj 50 205 tgl 15 0 empty empty empty 17 7 0 10 #fcfcfc #000000 #000000 0 1;
#X obj 50 231 s block-keys;
#X obj 70 92 loadbang;
#X msg 70 116 1;
#X obj 50 12 key;
#X floatatom 50 36 5 0 0 1 alt-b\ (8747) - - 0;
#X obj 50 62 sel 8747;
#X connect 0 0 1 0;
#X connect 1 0 2 0;
#X connect 2 0 3 0;
#X connect 4 0 5 0;
#X connect 5 0 0 0;
#X connect 6 0 7 0;
#X connect 7 0 8 0;
#X connect 8 0 0 0;
#X coords 0 -1 1 1 15 15 2 50 150;
#X restore 815 613 pd block-keys;
#N canvas 498 523 357 183 init 0;
#X obj 46 26 loadbang;
#X obj 114 26 inlet;
#X obj 166 26 noise~;
#X obj 166 50 s~ noise;
#X obj 78 74 s init;
#X obj 46 145 send pd;
#X msg 46 118 compatibility 0.55;
#X obj 248 31 r init;
#X obj 248 63 s spat-init;
#X connect 0 0 4 0;
#X connect 0 0 6 0;
#X connect 1 0 4 0;
#X connect 2 0 3 0;
#X connect 6 0 5 0;
#X connect 7 0 8 0;
#X restore 810 99 pd init;
#N canvas 733 163 433 621 tempo 0;
#X obj 48 256 div 60;
#X floatatom 48 280 5 0 0 0 - - - 0;
#X obj 47 219 * 60;
#X obj 130 198 int;
#X obj 112 226 -;
#X floatatom 48 342 12 0 0 1 min-in-msecs - - 0;
#X obj 48 308 * 60000;
#X obj 112 367 * 1000;
#X floatatom 112 391 8 0 0 1 secs\ in\ msecs - - 0;
#X obj 94 420 +;
#X floatatom 94 445 12 0 0 1 overall\ dur-in-msecs - - 0;
#X obj 48 169 t f f f;
#X obj 94 478 t b f;
#X obj 94 526 /;
#X floatatom 94 550 5 0 0 1 tempo\ relative\ to\ 21\ minutes\ 20\ seconds - - 0;
#X obj 68 100 s piece-dur-s;
#X obj 67 133 r piece-dur-r;
#X text 160 197 cut decimal part;
#X text 142 228 substract interger part;
#X text 168 368 convert to msecs;
#X floatatom 112 307 5 0 0 0 - - - 0;
#N canvas 1058 126 401 314 round 0;
#X msg 165 75 10;
#X obj 165 52 loadbang;
#X obj 79 50 inlet;
#X obj 79 145 + 0.5;
#X obj 79 170 div;
#X obj 79 217 outlet;
#X text 47 265 rundet auf bestimmte anzahl von kommastellen;
#X obj 165 97 pow 2;
#X floatatom 165 124 5 0 0 0 - - - 0;
#X obj 79 120 * 100;
#X connect 0 0 7 0;
#X connect 1 0 0 0;
#X connect 2 0 9 0;
#X connect 3 0 4 0;
#X connect 4 0 5 0;
#X connect 7 0 8 0;
#X connect 9 0 3 0;
#X restore 112 261 pd round;
#X text 180 262 round decimal part;
#X obj 94 577 s rel-tempo;
#X text 43 551 ====>;
#X obj 48 29 loadbang;
#X msg 48 62 21.2;
#X msg 94 502 1.28e+06;
#X text 160 502 21.2 min/msecs = default duration;
#X floatatom 19 502 9 0 0 0 - - - 0;
#X obj 19 475 / 1000;
#X msg 19 447 1.28e+06;
#X connect 0 0 1 0;
#X connect 1 0 6 0;
#X connect 2 0 0 0;
#X connect 3 0 4 1;
#X connect 4 0 21 0;
#X connect 5 0 9 0;
#X connect 6 0 5 0;
#X connect 7 0 8 0;
#X connect 8 0 9 1;
#X connect 9 0 10 0;
#X connect 10 0 12 0;
#X connect 11 0 2 0;
#X connect 11 1 4 0;
#X connect 11 2 3 0;
#X connect 12 0 27 0;
#X connect 12 1 13 1;
#X connect 13 0 14 0;
#X connect 14 0 23 0;
#X connect 16 0 11 0;
#X connect 20 0 7 0;
#X connect 21 0 20 0;
#X connect 25 0 26 0;
#X connect 26 0 15 0;
#X connect 26 0 11 0;
#X connect 27 0 13 0;
#X connect 30 0 29 0;
#X connect 31 0 30 0;
#X restore 879 468 pd tempo calc;
#X obj 810 75 bng 19 250 50 0 empty empty empty 0 -10 0 12 #fcfcfc #000000 #000000;
#N canvas 351 217 371 130 info 0;
#X obj 28 80 pdcontrol;
#X obj 28 25 r info;
#X msg 28 54 browse http://bornhoeft.org/works/schemen;
#X connect 1 0 2 0;
#X connect 2 0 0 0;
#X restore 809 45 pd info;
#N canvas 1089 773 195 181 readme 0;
#X msg 68 87 click;
#X obj 16 87 r init;
#X obj 14 137 text define README;
#X msg 14 111 read README.txt;
#X obj 69 15 r \$0-readme;
#X obj 69 39 sel 1 0;
#X msg 116 87 close;
#X connect 0 0 2 0;
#X connect 1 0 3 0;
#X connect 3 0 2 0;
#X connect 4 0 5 0;
#X connect 5 0 0 0;
#X connect 5 1 6 0;
#X connect 6 0 2 0;
#X restore 809 24 pd readme;
#X obj 814 641 faderfox-mx12;
#N canvas 908 732 306 170 paths 0;
#X obj 20 22 declare -path abs;
#X obj 19 55 declare -path abs/spat-control;
#X obj 22 91 declare -path qlists;
#X obj 19 126 declare -path rec;
#X restore 874 99 pd paths;
#X obj 453 121 input~ 4 Vc 1;
#X obj 302 121 input~ 3 Va 1;
#X obj 151 121 input~ 2 Vn2 1;
#X obj 0 121 input~ 1 Vn1 1;
#X obj 0 0 cnv 19 784 120 empty empty Schemen\ |\ Achim\ Bornhoeft\ (2023/25) 20 25 0 16 #9f9f9f #404040 0;
#X obj 20 77 nbx 5 20 -1e+37 1e+37 0 0 piece-dur-r piece-dur-s empty 0 -10 0 16 #c6ffc7 #ff0400 #ff0400 0 256;
#X text 106 79 Change to new duration if necessary;
#X obj 572 79 bng 20 250 50 0 info none INFO\ (WEB) -62 10 0 10 #fcfcfc #000000 #000000;
#X obj 572 40 tgl 19 0 \$0-readme \$0-readme-dummy README -40 10 0 10 #ffffff #ff0400 #000000 0 1;
#N canvas 1308 459 297 346 cpu 0;
#X floatatom 50 100 0 0 0 1 cpu \$0-cpu cpu-s 0;
#X obj 118 168 cputime;
#X obj 118 28 loadbang;
#X obj 118 112 metro 1000;
#X msg 118 56 1;
#X floatatom 118 84 0 0 0 0 - - - 0;
#X obj 118 140 t b b;
#X obj 118 228 * 0.1;
#X obj 118 197 int;
#X text 163 84 <-- on/off;
#X text 51 284 CPU load in percent;
#X obj 118 257 s \$0-cpu;
#X connect 1 0 8 0;
#X connect 2 0 4 0;
#X connect 3 0 6 0;
#X connect 4 0 5 0;
#X connect 5 0 3 0;
#X connect 6 0 1 0;
#X connect 6 1 1 1;
#X connect 7 0 11 0;
#X connect 8 0 7 0;
#X coords 0 -1 1 1 48 18 2 50 100;
#X restore 663 41 pd cpu;
#N canvas 701 726 342 97 qlist 0;
#X obj 33 28 r pd-window;
#X obj 33 52 print Part;
#X obj 231 28 r cue;
#X obj 123 55 print Section;
#X obj 231 55 print Cue;
#X obj 123 28 r section;
#X connect 0 0 1 0;
#X connect 2 0 4 0;
#X connect 5 0 3 0;
#X restore 808 468 pd qlist;
#X obj 604 318 spat-control;
#X obj 604 121 start-mute;
#X obj 604 520 spat-out;
#N canvas 1041 334 553 401 TODO 0;
#X text 20 27 # pd init is triggering cuelist? \; # at the end 2 bangs when reset pd counter? \; # structure for general output in Opusmodus for qlist \; \; # general init faders etc. \; # dsp on/off automatic \; \; # Envelopes duration = event duration from qlist \; # envelope shapes randomly \; # envelope fade-in random length between 1/3 and 1/2 \; envelope durations at the beginning shorter than the overall duration between the cues \; \; # separate dir-out and fm to spat \; # spat-control display?? spatialisation randomly in space \; \; qlist for carPartial \, modPartial \, index and lfo-freq \; # qlist synthesis coninuously [osc~] to subtractive synthesis [noise~] \; correct the dynamics dependent from the synthesis and the filter-q \; # one format for all spat movements qlist for spat \; starting points GUI for the 8 study signs \; \; # setup for 2ch and 4ch, f 72;
#X restore 930 285 pd TODO;
#N canvas 557 156 394 669 audio 0;
#X floatatom 41 412 5 0 0 0 - - - 0;
#X text 121 442 received in Setup Audio/8out~/out~;
#X msg 116 396 \; pd dsp \$1 \;;
#X obj 214 33 expr ($f1-1)*-1;
#X obj 36 258 t f f;
#X floatatom 116 370 5 0 0 0 - - - 0;
#X obj 99 150 == 0;
#X obj 167 151 == 1;
#X obj 94 232 t b b;
#X obj 32 60 tgl 19 0 empty empty empty 0 -10 0 12 #fcfcfc #000000 #000000 0 1;
#X obj 41 342 pack f f;
#X msg 94 260 150;
#X obj 163 234 t b b;
#X obj 94 207 spigot;
#X obj 98 175 t b f;
#X obj 163 209 spigot;
#X obj 167 177 t b f;
#X msg 126 260 500;
#X text 213 56 reversed toggle;
#X msg 163 260 300;
#X msg 195 259 10;
#X obj 116 342 pipe;
#X msg 41 469 \; 1-gain \$1 \; 2-gain \$1 \; 3-gain \$1 \; 4-gain \$1 \; 1-dirout \$1 \; 2-dirout \$1 \; 3-dirout \$1 \; 4-dirout \$1 \; 1-vol \$1 \; 2-vol \$1 \; 3-vol \$1 \; 4-vol \$1 \;;
#X text 126 85 ON: first dsp on then fader up \; OFF: first fader down then dsp off;
#X obj 32 35 r audio-on-off;
#X obj 41 388 line;
#X obj 62 442 s mute;
#X obj 235 213 s spat-init;
#X obj 258 180 s clear-grid;
#X obj 32 83 t f f f;
#X obj 235 153 sel 1 0;
#X connect 0 0 22 0;
#X connect 0 0 26 0;
#X connect 4 0 10 0;
#X connect 4 1 21 0;
#X connect 5 0 2 0;
#X connect 6 0 14 0;
#X connect 7 0 16 0;
#X connect 8 0 11 0;
#X connect 8 1 17 0;
#X connect 9 0 29 0;
#X connect 10 0 25 0;
#X connect 11 0 10 1;
#X connect 12 0 19 0;
#X connect 12 1 20 0;
#X connect 13 0 8 0;
#X connect 14 0 13 0;
#X connect 14 1 13 1;
#X connect 15 0 12 0;
#X connect 16 0 15 0;
#X connect 16 1 15 1;
#X connect 17 0 21 1;
#X connect 19 0 10 1;
#X connect 20 0 21 1;
#X connect 21 0 5 0;
#X connect 24 0 9 0;
#X connect 25 0 0 0;
#X connect 29 0 4 0;
#X connect 29 1 6 0;
#X connect 29 1 7 0;
#X connect 29 2 30 0;
#X connect 30 0 27 0;
#X connect 30 1 28 0;
#X restore 809 222 pd audio;
#X obj 0 318 fm-abs 1 2 vn1 5;
#X obj 151 318 fm-abs 2 3 vn2 6;
#X obj 302 318 fm-abs 3 4 vla 7;
#X obj 453 318 fm-abs 4 1 vlc 8;
#X obj 1 520 output~ 1 Vn1 1 5;
#X obj 152 520 output~ 2 Vn2 1 6;
#X obj 303 520 output~ 3 Va 1 7;
#X obj 453 520 output~ 4 Vc 1 8;
#N canvas 440 465 496 282 start 0;
#X obj 165 217 s qlist-rewind;
#X obj 170 126 == 0;
#X obj 165 183 spigot;
#X obj 169 151 t b f;
#X obj 65 35 r start-stop;
#X obj 60 183 spigot;
#X obj 64 151 t b f;
#X obj 65 126 == 1;
#X obj 60 217 s start-qlist;
#X obj 65 64 tgl 19 0 empty empty empty 0 -10 0 12 #fcfcfc #000000 #000000 0 1;
#X obj 271 218 s fadeout-env;
#X connect 1 0 3 0;
#X connect 2 0 0 0;
#X connect 2 0 10 0;
#X connect 3 0 2 0;
#X connect 3 1 2 1;
#X connect 4 0 9 0;
#X connect 5 0 8 0;
#X connect 6 0 5 0;
#X connect 6 1 5 1;
#X connect 7 0 6 0;
#X connect 9 0 7 0;
#X connect 9 0 1 0;
#X restore 809 275 pd start;
#N canvas 1218 680 294 277 channels 0;
#X obj 40 115 8in~;
#X obj 156 115 8out~;
#X obj 156 92 hradio 15 1 1 4 empty empty 2/4/8ch 10 -8 0 10 #fcfcfc #000000 #000000 0;
#X obj 40 18 loadbang;
#X obj 40 92 hradio 15 1 1 2 empty empty 8/off 10 -8 0 10 #fcfcfc #000000 #000000 0;
#X msg 40 40 0;
#X obj 35 240 speaker-test;
#X obj 116 216 hradio 15 1 1 3 empty empty 2/4/8ch 10 -8 0 10 #fcfcfc #000000 #000000 0;
#X obj 35 217 tgl 15 0 empty check-speaker on/off 17 7 0 10 #fcfcfc #000000 #000000 0 1;
#X obj 117 127 - 1;
#X text 233 84 4->2 \; 8->2 \; 4->4 \; 8->8;
#X text 213 158 2 \; 4 \; 8 \; any \;;
#X floatatom 116 181 5 0 0 0 - - - 0;
#X obj 116 155 max 0;
#X obj 156 41 r ch-setup;
#X connect 2 0 1 0;
#X connect 2 0 9 0;
#X connect 3 0 5 0;
#X connect 4 0 0 0;
#X connect 5 0 4 0;
#X connect 5 0 2 0;
#X connect 7 0 6 1;
#X connect 8 0 6 0;
#X connect 9 0 13 0;
#X connect 12 0 7 0;
#X connect 13 0 12 0;
#X connect 14 0 2 0;
#X restore 807 172 pd channels;
#X obj 0 400 cuelist 1 1-qlist.txt 1-param.txt;
#X obj 302 400 cuelist 3 3-qlist.txt 3-param.txt;
#X obj 453 400 cuelist 4 4-qlist.txt 4-param.txt;
#X obj 151 400 cuelist 2 2-qlist.txt 2-param.txt;
#X text 20 57 Duration of the piece: min.secs e.g. 23.45 (default: 21 min 20 sec), f 67;
#N canvas 469 494 501 210 rehearsal 0;
#X obj 129 42 hradio 19 1 1 8 empty empty empty 0 -10 0 12 #fcfcfc #000000 #000000 1;
#X floatatom 129 90 5 0 0 0 rehearsal\ mark - - 0;
#X obj 129 65 + 1;
#X obj 129 113 sel 1 2 3 4 5 6 7 8;
#X msg 129 137 0;
#X msg 145 162 4;
#X text 278 82 number of cues per section: \; (4 5 7 10 14 9 6 4);
#X connect 0 0 2 0;
#X connect 1 0 3 0;
#X connect 2 0 1 0;
#X connect 3 0 4 0;
#X connect 3 1 5 0;
#X restore 867 376 pd rehearsal marks;
#X obj 1 482 cnv 19 604 37 empty empty empty 20 12 0 12 #9f9f9f #404040 0;
#X obj 644 549 tgl 19 0 check-speaker speaker-dummy test\ speaker 25 10 0 12 #c6ffc7 #ff0400 #000000 0 1;
#X obj 266 485 hradio 25 1 1 8 rehearsal-mark-no rehearsal-mark-set Rehearsal\ marks\ 1\ -\ 8 -160 13 0 12 #c6ffc7 #ff0400 #000000 0;
#X connect 3 0 1 0;
#X coords 0 -1 1 1 784 715 2 0 0;
#X restore 5 6 pd schemen;
